<?xml version="1.0" encoding="UTF-8"?>
<!--Generator: Apple Native CoreSVG 175-->
<!DOCTYPE svg
PUBLIC "-//W3C//DTD SVG 1.1//EN"
       "http://www.w3.org/Graphics/SVG/1.1/DTD/svg11.dtd">
<svg version="1.1" xmlns="http://www.w3.org/2000/svg" xmlns:xlink="http://www.w3.org/1999/xlink" width="3300" height="2200">
 <!--glyph: "uni100B85.medium", point size: 100.0, font version: "17.0d12e1", template writer version: "65.1"-->
 <g id="Notes">
  <rect height="2200" id="artboard" style="fill:white;opacity:1" width="3300" x="0" y="0"/>
  <line style="fill:none;stroke:black;opacity:1;stroke-width:0.5;" x1="263" x2="3036" y1="292" y2="292"/>
  <text style="stroke:none;fill:black;font-family:sans-serif;font-size:13;font-weight:bold;" transform="matrix(1 0 0 1 263 322)">Weight/Scale Variations</text>
  <text style="stroke:none;fill:black;font-family:sans-serif;font-size:13;text-anchor:middle;" transform="matrix(1 0 0 1 559.711 322)">Ultralight</text>
  <text style="stroke:none;fill:black;font-family:sans-serif;font-size:13;text-anchor:middle;" transform="matrix(1 0 0 1 856.422 322)">Thin</text>
  <text style="stroke:none;fill:black;font-family:sans-serif;font-size:13;text-anchor:middle;" transform="matrix(1 0 0 1 1153.13 322)">Light</text>
  <text style="stroke:none;fill:black;font-family:sans-serif;font-size:13;text-anchor:middle;" transform="matrix(1 0 0 1 1449.84 322)">Regular</text>
  <text style="stroke:none;fill:black;font-family:sans-serif;font-size:13;text-anchor:middle;" transform="matrix(1 0 0 1 1746.56 322)">Medium</text>
  <text style="stroke:none;fill:black;font-family:sans-serif;font-size:13;text-anchor:middle;" transform="matrix(1 0 0 1 2043.27 322)">Semibold</text>
  <text style="stroke:none;fill:black;font-family:sans-serif;font-size:13;text-anchor:middle;" transform="matrix(1 0 0 1 2339.98 322)">Bold</text>
  <text style="stroke:none;fill:black;font-family:sans-serif;font-size:13;text-anchor:middle;" transform="matrix(1 0 0 1 2636.69 322)">Heavy</text>
  <text style="stroke:none;fill:black;font-family:sans-serif;font-size:13;text-anchor:middle;" transform="matrix(1 0 0 1 2933.4 322)">Black</text>
  <line style="fill:none;stroke:black;opacity:1;stroke-width:0.5;" x1="263" x2="3036" y1="1903" y2="1903"/>
  <g transform="matrix(1 0 0 1 263 1933)">
   <path d="M9.24805 0.830078Q10.8691 0.830078 12.2949 0.214844Q13.7207-0.400391 14.8096-1.49414Q15.8984-2.58789 16.5186-4.01367Q17.1387-5.43945 17.1387-7.05078Q17.1387-8.66211 16.5186-10.0879Q15.8984-11.5137 14.8047-12.6074Q13.7109-13.7012 12.2852-14.3164Q10.8594-14.9316 9.23828-14.9316Q7.62695-14.9316 6.20117-14.3164Q4.77539-13.7012 3.69141-12.6074Q2.60742-11.5137 1.9873-10.0879Q1.36719-8.66211 1.36719-7.05078Q1.36719-5.43945 1.9873-4.01367Q2.60742-2.58789 3.69629-1.49414Q4.78516-0.400391 6.21094 0.214844Q7.63672 0.830078 9.24805 0.830078ZM9.24805-0.654297Q7.91992-0.654297 6.7627-1.14746Q5.60547-1.64062 4.73145-2.51953Q3.85742-3.39844 3.36426-4.56055Q2.87109-5.72266 2.87109-7.05078Q2.87109-8.37891 3.35938-9.54102Q3.84766-10.7031 4.72168-11.582Q5.5957-12.4609 6.75293-12.9541Q7.91016-13.4473 9.23828-13.4473Q10.5762-13.4473 11.7334-12.9541Q12.8906-12.4609 13.7695-11.582Q14.6484-10.7031 15.1465-9.54102Q15.6445-8.37891 15.6445-7.05078Q15.6445-5.72266 15.1514-4.56055Q14.6582-3.39844 13.7842-2.51953Q12.9102-1.64062 11.748-1.14746Q10.5859-0.654297 9.24805-0.654297ZM5.6543-7.05078Q5.6543-6.72852 5.85938-6.52832Q6.06445-6.32812 6.40625-6.32812L8.51562-6.32812L8.51562-4.20898Q8.51562-3.88672 8.71094-3.67676Q8.90625-3.4668 9.23828-3.4668Q9.56055-3.4668 9.77051-3.67676Q9.98047-3.88672 9.98047-4.20898L9.98047-6.32812L12.0898-6.32812Q12.4219-6.32812 12.627-6.52832Q12.832-6.72852 12.832-7.05078Q12.832-7.38281 12.627-7.58789Q12.4219-7.79297 12.0898-7.79297L9.98047-7.79297L9.98047-9.90234Q9.98047-10.2344 9.77051-10.4443Q9.56055-10.6543 9.23828-10.6543Q8.90625-10.6543 8.71094-10.4443Q8.51562-10.2344 8.51562-9.90234L8.51562-7.79297L6.40625-7.79297Q6.06445-7.79297 5.85938-7.58789Q5.6543-7.38281 5.6543-7.05078Z"/>
  </g>
  <g transform="matrix(1 0 0 1 281.867 1933)">
   <path d="M11.709 2.91016Q13.75 2.91016 15.5518 2.12891Q17.3535 1.34766 18.7305-0.0292969Q20.1074-1.40625 20.8887-3.20801Q21.6699-5.00977 21.6699-7.05078Q21.6699-9.0918 20.8887-10.8936Q20.1074-12.6953 18.7305-14.0723Q17.3535-15.4492 15.5469-16.2305Q13.7402-17.0117 11.6992-17.0117Q9.6582-17.0117 7.85645-16.2305Q6.05469-15.4492 4.68262-14.0723Q3.31055-12.6953 2.5293-10.8936Q1.74805-9.0918 1.74805-7.05078Q1.74805-5.00977 2.5293-3.20801Q3.31055-1.40625 4.6875-0.0292969Q6.06445 1.34766 7.86621 2.12891Q9.66797 2.91016 11.709 2.91016ZM11.709 1.25Q9.98047 1.25 8.47656 0.605469Q6.97266-0.0390625 5.83496-1.17676Q4.69727-2.31445 4.05762-3.81836Q3.41797-5.32227 3.41797-7.05078Q3.41797-8.7793 4.05762-10.2832Q4.69727-11.7871 5.83008-12.9297Q6.96289-14.0723 8.4668-14.7119Q9.9707-15.3516 11.6992-15.3516Q13.4277-15.3516 14.9316-14.7119Q16.4355-14.0723 17.5781-12.9297Q18.7207-11.7871 19.3652-10.2832Q20.0098-8.7793 20.0098-7.05078Q20.0098-5.32227 19.3701-3.81836Q18.7305-2.31445 17.5928-1.17676Q16.4551-0.0390625 14.9463 0.605469Q13.4375 1.25 11.709 1.25ZM7.17773-7.05078Q7.17773-6.69922 7.41211-6.47461Q7.64648-6.25 8.01758-6.25L10.8887-6.25L10.8887-3.36914Q10.8887-2.99805 11.1133-2.76855Q11.3379-2.53906 11.6895-2.53906Q12.0605-2.53906 12.29-2.76855Q12.5195-2.99805 12.5195-3.36914L12.5195-6.25L15.4004-6.25Q15.7715-6.25 16.001-6.47461Q16.2305-6.69922 16.2305-7.05078Q16.2305-7.42188 16.001-7.65137Q15.7715-7.88086 15.4004-7.88086L12.5195-7.88086L12.5195-10.752Q12.5195-11.1328 12.29-11.3623Q12.0605-11.5918 11.6895-11.5918Q11.3379-11.5918 11.1133-11.3574Q10.8887-11.123 10.8887-10.752L10.8887-7.88086L8.01758-7.88086Q7.63672-7.88086 7.40723-7.65137Q7.17773-7.42188 7.17773-7.05078Z"/>
  </g>
  <g transform="matrix(1 0 0 1 305.646 1933)">
   <path d="M14.9707 5.66406Q17.0605 5.66406 18.96 5.01465Q20.8594 4.36523 22.4512 3.19336Q24.043 2.02148 25.2197 0.429688Q26.3965-1.16211 27.0459-3.06641Q27.6953-4.9707 27.6953-7.05078Q27.6953-9.14062 27.0459-11.04Q26.3965-12.9395 25.2197-14.5312Q24.043-16.123 22.4512-17.2998Q20.8594-18.4766 18.9551-19.126Q17.0508-19.7754 14.9609-19.7754Q12.8711-19.7754 10.9717-19.126Q9.07227-18.4766 7.48535-17.2998Q5.89844-16.123 4.72168-14.5312Q3.54492-12.9395 2.90039-11.04Q2.25586-9.14062 2.25586-7.05078Q2.25586-4.9707 2.90527-3.06641Q3.55469-1.16211 4.72656 0.429688Q5.89844 2.02148 7.49023 3.19336Q9.08203 4.36523 10.9814 5.01465Q12.8809 5.66406 14.9707 5.66406ZM14.9707 3.84766Q13.1641 3.84766 11.5283 3.2959Q9.89258 2.74414 8.53516 1.74805Q7.17773 0.751953 6.17676-0.610352Q5.17578-1.97266 4.62891-3.6084Q4.08203-5.24414 4.08203-7.05078Q4.08203-8.86719 4.62891-10.5029Q5.17578-12.1387 6.17188-13.501Q7.16797-14.8633 8.52539-15.8594Q9.88281-16.8555 11.5186-17.4023Q13.1543-17.9492 14.9609-17.9492Q16.7773-17.9492 18.4131-17.4023Q20.0488-16.8555 21.4111-15.8594Q22.7734-14.8633 23.7695-13.501Q24.7656-12.1387 25.3174-10.5029Q25.8691-8.86719 25.8691-7.05078Q25.8789-5.24414 25.332-3.6084Q24.7852-1.97266 23.7842-0.610352Q22.7832 0.751953 21.4209 1.74805Q20.0586 2.74414 18.4229 3.2959Q16.7871 3.84766 14.9707 3.84766ZM9.19922-7.05078Q9.19922-6.66992 9.45801-6.4209Q9.7168-6.17188 10.1172-6.17188L14.0625-6.17188L14.0625-2.2168Q14.0625-1.81641 14.3115-1.55762Q14.5605-1.29883 14.9512-1.29883Q15.3516-1.29883 15.6104-1.55273Q15.8691-1.80664 15.8691-2.2168L15.8691-6.17188L19.8242-6.17188Q20.2246-6.17188 20.4785-6.4209Q20.7324-6.66992 20.7324-7.05078Q20.7324-7.46094 20.4785-7.71484Q20.2246-7.96875 19.8242-7.96875L15.8691-7.96875L15.8691-11.9141Q15.8691-12.3242 15.6104-12.583Q15.3516-12.8418 14.9512-12.8418Q14.5605-12.8418 14.3115-12.583Q14.0625-12.3242 14.0625-11.9141L14.0625-7.96875L10.1172-7.96875Q9.70703-7.96875 9.45312-7.71484Q9.19922-7.46094 9.19922-7.05078Z"/>
  </g>
  <text style="stroke:none;fill:black;font-family:sans-serif;font-size:13;font-weight:bold;" transform="matrix(1 0 0 1 263 1953)">Design Variations</text>
  <text style="stroke:none;fill:black;font-family:sans-serif;font-size:13;" transform="matrix(1 0 0 1 263 1971)">Symbols are supported in up to nine weights and three scales.</text>
  <text style="stroke:none;fill:black;font-family:sans-serif;font-size:13;" transform="matrix(1 0 0 1 263 1989)">For optimal layout with text and other symbols, vertically align</text>
  <text style="stroke:none;fill:black;font-family:sans-serif;font-size:13;" transform="matrix(1 0 0 1 263 2007)">symbols with the adjacent text.</text>
  <line style="fill:none;stroke:#00AEEF;stroke-width:0.5;opacity:1.0;" x1="776" x2="776" y1="1919" y2="1933"/>
  <g transform="matrix(1 0 0 1 776 1933)">
   <path d="M3.31055 0.15625Q3.70117 0.15625 3.91602-0.00976562Q4.13086-0.175781 4.26758-0.585938L5.52734-4.0332L11.2891-4.0332L12.5488-0.585938Q12.6855-0.175781 12.9004-0.00976562Q13.1152 0.15625 13.4961 0.15625Q13.8867 0.15625 14.1162-0.0585938Q14.3457-0.273438 14.3457-0.644531Q14.3457-0.869141 14.2383-1.17188L9.6582-13.3691Q9.48242-13.8184 9.17969-14.043Q8.87695-14.2676 8.4082-14.2676Q7.5-14.2676 7.17773-13.3789L2.59766-1.16211Q2.49023-0.859375 2.49023-0.634766Q2.49023-0.263672 2.70996-0.0537109Q2.92969 0.15625 3.31055 0.15625ZM6.00586-5.51758L8.37891-12.0898L8.42773-12.0898L10.8008-5.51758Z"/>
  </g>
  <line style="fill:none;stroke:#00AEEF;stroke-width:0.5;opacity:1.0;" x1="793.197" x2="793.197" y1="1919" y2="1933"/>
  <text style="stroke:none;fill:black;font-family:sans-serif;font-size:13;font-weight:bold;" transform="matrix(1 0 0 1 776 1953)">Margins</text>
  <text style="stroke:none;fill:black;font-family:sans-serif;font-size:13;" transform="matrix(1 0 0 1 776 1971)">Leading and trailing margins on the left and right side of each symbol</text>
  <text style="stroke:none;fill:black;font-family:sans-serif;font-size:13;" transform="matrix(1 0 0 1 776 1989)">can be adjusted by modifying the x-location of the margin guidelines.</text>
  <text style="stroke:none;fill:black;font-family:sans-serif;font-size:13;" transform="matrix(1 0 0 1 776 2007)">Modifications are automatically applied proportionally to all</text>
  <text style="stroke:none;fill:black;font-family:sans-serif;font-size:13;" transform="matrix(1 0 0 1 776 2025)">scales and weights.</text>
  <g transform="matrix(1 0 0 1 1289 1933)">
   <path d="M2.8418 1.86523L4.54102 3.57422Q5.18555 4.22852 5.90332 4.17969Q6.62109 4.13086 7.31445 3.35938L18.0078-8.42773L17.041-9.4043L6.42578 2.27539Q6.16211 2.57812 5.89355 2.61719Q5.625 2.65625 5.27344 2.30469L4.10156 1.14258Q3.75 0.791016 3.79395 0.522461Q3.83789 0.253906 4.14062-0.0195312L15.6152-10.8203L14.6387-11.7871L3.04688-0.898438Q2.30469-0.214844 2.25098 0.498047Q2.19727 1.21094 2.8418 1.86523ZM9.25781-16.3281Q8.94531-16.0254 8.90625-15.6348Q8.86719-15.2441 9.04297-14.9512Q9.21875-14.6777 9.55566-14.541Q9.89258-14.4043 10.3809-14.5215Q11.4746-14.7754 12.5977-14.7314Q13.7207-14.6875 14.7949-13.9844L14.209-12.5293Q13.9551-11.9043 14.0674-11.4404Q14.1797-10.9766 14.5801-10.5664L16.875-8.25195Q17.2363-7.88086 17.5781-7.82227Q17.9199-7.76367 18.3398-7.8418L19.4043-8.03711L20.0684-7.36328L20.0293-6.80664Q20-6.43555 20.1221-6.12305Q20.2441-5.81055 20.6055-5.44922L21.3672-4.70703Q21.7285-4.3457 22.1533-4.33105Q22.5781-4.31641 22.9297-4.66797L25.8398-7.58789Q26.1914-7.93945 26.1816-8.35449Q26.1719-8.76953 25.8105-9.13086L25.0391-9.89258Q24.6875-10.2539 24.3799-10.3857Q24.0723-10.5176 23.7109-10.4883L23.1348-10.4395L22.4902-11.0742L22.7344-12.1973Q22.832-12.6172 22.6953-12.9834Q22.5586-13.3496 22.1191-13.7891L19.9219-15.9766Q18.6719-17.2168 17.2607-17.8369Q15.8496-18.457 14.4189-18.4814Q12.9883-18.5059 11.665-17.959Q10.3418-17.4121 9.25781-16.3281ZM10.752-15.957Q11.6602-16.6211 12.7002-16.9043Q13.7402-17.1875 14.8047-17.085Q15.8691-16.9824 16.8701-16.5137Q17.8711-16.0449 18.7012-15.2051L21.1328-12.793Q21.3086-12.6172 21.3525-12.4512Q21.3965-12.2852 21.3379-12.0312L21.0156-10.5469L22.5195-9.0625L23.5059-9.12109Q23.6914-9.13086 23.7891-9.09668Q23.8867-9.0625 24.0332-8.91602L24.6094-8.33984L22.168-5.89844L21.5918-6.47461Q21.4453-6.62109 21.4062-6.71875Q21.3672-6.81641 21.377-7.01172L21.4453-7.98828L19.9512-9.47266L18.4277-9.21875Q18.1836-9.16992 18.042-9.2041Q17.9004-9.23828 17.7148-9.41406L15.7129-11.416Q15.5176-11.5918 15.4932-11.7529Q15.4688-11.9141 15.5859-12.1875L16.4648-14.2773Q15.293-15.3711 13.8281-15.791Q12.3633-16.2109 10.8398-15.7617Q10.7227-15.7324 10.6885-15.8057Q10.6543-15.8789 10.752-15.957Z"/>
  </g>
  <text style="stroke:none;fill:black;font-family:sans-serif;font-size:13;font-weight:bold;" transform="matrix(1 0 0 1 1289 1953)">Exporting</text>
  <text style="stroke:none;fill:black;font-family:sans-serif;font-size:13;" transform="matrix(1 0 0 1 1289 1971)">Symbols should be outlined when exporting to ensure the</text>
  <text style="stroke:none;fill:black;font-family:sans-serif;font-size:13;" transform="matrix(1 0 0 1 1289 1989)">design is preserved when submitting to Xcode.</text>
  <text id="template-version" style="stroke:none;fill:black;font-family:sans-serif;font-size:13;text-anchor:end;" transform="matrix(1 0 0 1 3036 1933)">Template v.3.0</text>
  <text style="stroke:none;fill:black;font-family:sans-serif;font-size:13;text-anchor:end;" transform="matrix(1 0 0 1 3036 1951)">Requires Xcode 13 or greater</text>
  <text id="descriptive-name" style="stroke:none;fill:black;font-family:sans-serif;font-size:13;text-anchor:end;" transform="matrix(1 0 0 1 3036 1969)">Generated from building</text>
  <text style="stroke:none;fill:black;font-family:sans-serif;font-size:13;text-anchor:end;" transform="matrix(1 0 0 1 3036 1987)">Typeset at 100 points</text>
  <text style="stroke:none;fill:black;font-family:sans-serif;font-size:13;" transform="matrix(1 0 0 1 263 726)">Small</text>
  <text style="stroke:none;fill:black;font-family:sans-serif;font-size:13;" transform="matrix(1 0 0 1 263 1156)">Medium</text>
  <text style="stroke:none;fill:black;font-family:sans-serif;font-size:13;" transform="matrix(1 0 0 1 263 1586)">Large</text>
 </g>
 <g id="Guides">
  <g id="H-reference" style="fill:#27AAE1;stroke:none;" transform="matrix(1 0 0 1 339 696)">
   <path d="M0.976562 0L3.66211 0L29.3457-67.1387L30.0293-67.1387L30.0293-70.459L28.125-70.459ZM11.6699-24.4629L46.9727-24.4629L46.2402-26.709L12.4512-26.709ZM55.127 0L57.7637 0L30.6152-70.459L29.4434-70.459L29.4434-67.1387Z"/>
  </g>
  <line id="Baseline-S" style="fill:none;stroke:#27AAE1;opacity:1;stroke-width:0.5;" x1="263" x2="3036" y1="696" y2="696"/>
  <line id="Capline-S" style="fill:none;stroke:#27AAE1;opacity:1;stroke-width:0.5;" x1="263" x2="3036" y1="625.541" y2="625.541"/>
  <g id="H-reference" style="fill:#27AAE1;stroke:none;" transform="matrix(1 0 0 1 339 1126)">
   <path d="M0.976562 0L3.66211 0L29.3457-67.1387L30.0293-67.1387L30.0293-70.459L28.125-70.459ZM11.6699-24.4629L46.9727-24.4629L46.2402-26.709L12.4512-26.709ZM55.127 0L57.7637 0L30.6152-70.459L29.4434-70.459L29.4434-67.1387Z"/>
  </g>
  <line id="Baseline-M" style="fill:none;stroke:#27AAE1;opacity:1;stroke-width:0.5;" x1="263" x2="3036" y1="1126" y2="1126"/>
  <line id="Capline-M" style="fill:none;stroke:#27AAE1;opacity:1;stroke-width:0.5;" x1="263" x2="3036" y1="1055.54" y2="1055.54"/>
  <g id="H-reference" style="fill:#27AAE1;stroke:none;" transform="matrix(1 0 0 1 339 1556)">
   <path d="M0.976562 0L3.66211 0L29.3457-67.1387L30.0293-67.1387L30.0293-70.459L28.125-70.459ZM11.6699-24.4629L46.9727-24.4629L46.2402-26.709L12.4512-26.709ZM55.127 0L57.7637 0L30.6152-70.459L29.4434-70.459L29.4434-67.1387Z"/>
  </g>
  <line id="Baseline-L" style="fill:none;stroke:#27AAE1;opacity:1;stroke-width:0.5;" x1="263" x2="3036" y1="1556" y2="1556"/>
  <line id="Capline-L" style="fill:none;stroke:#27AAE1;opacity:1;stroke-width:0.5;" x1="263" x2="3036" y1="1485.54" y2="1485.54"/>
  <line id="left-margin-Ultralight-S" style="fill:none;stroke:#00AEEF;stroke-width:0.5;opacity:1.0;" x1="523.017" x2="523.017" y1="600.785" y2="720.121"/>
  <line id="right-margin-Ultralight-S" style="fill:none;stroke:#00AEEF;stroke-width:0.5;opacity:1.0;" x1="596.405" x2="596.405" y1="600.785" y2="720.121"/>
  <line id="left-margin-Thin-S" style="fill:none;stroke:#00AEEF;stroke-width:0.5;opacity:1.0;" x1="818.751" x2="818.751" y1="600.785" y2="720.121"/>
  <line id="right-margin-Thin-S" style="fill:none;stroke:#00AEEF;stroke-width:0.5;opacity:1.0;" x1="894.093" x2="894.093" y1="600.785" y2="720.121"/>
  <line id="left-margin-Light-S" style="fill:none;stroke:#00AEEF;stroke-width:0.5;opacity:1.0;" x1="1113.56" x2="1113.56" y1="600.785" y2="720.121"/>
  <line id="right-margin-Light-S" style="fill:none;stroke:#00AEEF;stroke-width:0.5;opacity:1.0;" x1="1192.71" x2="1192.71" y1="600.785" y2="720.121"/>
  <line id="left-margin-Regular-S" style="fill:none;stroke:#00AEEF;stroke-width:0.5;opacity:1.0;" x1="1408.83" x2="1408.83" y1="600.785" y2="720.121"/>
  <line id="right-margin-Regular-S" style="fill:none;stroke:#00AEEF;stroke-width:0.5;opacity:1.0;" x1="1490.86" x2="1490.86" y1="600.785" y2="720.121"/>
  <line id="left-margin-Medium-S" style="fill:none;stroke:#00AEEF;stroke-width:0.5;opacity:1.0;" x1="1704.61" x2="1704.61" y1="600.785" y2="720.121"/>
  <line id="right-margin-Medium-S" style="fill:none;stroke:#00AEEF;stroke-width:0.5;opacity:1.0;" x1="1788.5" x2="1788.5" y1="600.785" y2="720.121"/>
  <line id="left-margin-Semibold-S" style="fill:none;stroke:#00AEEF;stroke-width:0.5;opacity:1.0;" x1="2000.59" x2="2000.59" y1="600.785" y2="720.121"/>
  <line id="right-margin-Semibold-S" style="fill:none;stroke:#00AEEF;stroke-width:0.5;opacity:1.0;" x1="2085.94" x2="2085.94" y1="600.785" y2="720.121"/>
  <line id="left-margin-Bold-S" style="fill:none;stroke:#00AEEF;stroke-width:0.5;opacity:1.0;" x1="2296.35" x2="2296.35" y1="600.785" y2="720.121"/>
  <line id="right-margin-Bold-S" style="fill:none;stroke:#00AEEF;stroke-width:0.5;opacity:1.0;" x1="2383.61" x2="2383.61" y1="600.785" y2="720.121"/>
  <line id="left-margin-Heavy-S" style="fill:none;stroke:#00AEEF;stroke-width:0.5;opacity:1.0;" x1="2591.69" x2="2591.69" y1="600.785" y2="720.121"/>
  <line id="right-margin-Heavy-S" style="fill:none;stroke:#00AEEF;stroke-width:0.5;opacity:1.0;" x1="2681.68" x2="2681.68" y1="600.785" y2="720.121"/>
  <line id="left-margin-Black-S" style="fill:none;stroke:#00AEEF;stroke-width:0.5;opacity:1.0;" x1="2887.18" x2="2887.18" y1="600.785" y2="720.121"/>
  <line id="right-margin-Black-S" style="fill:none;stroke:#00AEEF;stroke-width:0.5;opacity:1.0;" x1="2979.62" x2="2979.62" y1="600.785" y2="720.121"/>
  <line id="left-margin-Ultralight-M" style="fill:none;stroke:#00AEEF;stroke-width:0.5;opacity:1.0;" x1="513.251" x2="513.251" y1="1030.79" y2="1150.12"/>
  <line id="right-margin-Ultralight-M" style="fill:none;stroke:#00AEEF;stroke-width:0.5;opacity:1.0;" x1="606.171" x2="606.171" y1="1030.79" y2="1150.12"/>
  <line id="left-margin-Thin-M" style="fill:none;stroke:#00AEEF;stroke-width:0.5;opacity:1.0;" x1="808.864" x2="808.864" y1="1030.79" y2="1150.12"/>
  <line id="right-margin-Thin-M" style="fill:none;stroke:#00AEEF;stroke-width:0.5;opacity:1.0;" x1="903.981" x2="903.981" y1="1030.79" y2="1150.12"/>
  <line id="left-margin-Light-M" style="fill:none;stroke:#00AEEF;stroke-width:0.5;opacity:1.0;" x1="1103.43" x2="1103.43" y1="1030.79" y2="1150.12"/>
  <line id="right-margin-Light-M" style="fill:none;stroke:#00AEEF;stroke-width:0.5;opacity:1.0;" x1="1202.84" x2="1202.84" y1="1030.79" y2="1150.12"/>
  <line id="left-margin-Regular-M" style="fill:none;stroke:#00AEEF;stroke-width:0.5;opacity:1.0;" x1="1398.53" x2="1398.53" y1="1030.79" y2="1150.12"/>
  <line id="right-margin-Regular-M" style="fill:none;stroke:#00AEEF;stroke-width:0.5;opacity:1.0;" x1="1501.16" x2="1501.16" y1="1030.79" y2="1150.12"/>
  <line id="left-margin-Medium-M" style="fill:none;stroke:#00AEEF;stroke-width:0.5;opacity:1.0;" x1="1693.94" x2="1693.94" y1="1030.79" y2="1150.12"/>
  <line id="right-margin-Medium-M" style="fill:none;stroke:#00AEEF;stroke-width:0.5;opacity:1.0;" x1="1799.17" x2="1799.17" y1="1030.79" y2="1150.12"/>
  <line id="left-margin-Semibold-M" style="fill:none;stroke:#00AEEF;stroke-width:0.5;opacity:1.0;" x1="1989.68" x2="1989.68" y1="1030.79" y2="1150.12"/>
  <line id="right-margin-Semibold-M" style="fill:none;stroke:#00AEEF;stroke-width:0.5;opacity:1.0;" x1="2096.86" x2="2096.86" y1="1030.79" y2="1150.12"/>
  <line id="left-margin-Bold-M" style="fill:none;stroke:#00AEEF;stroke-width:0.5;opacity:1.0;" x1="2285.09" x2="2285.09" y1="1030.79" y2="1150.12"/>
  <line id="right-margin-Bold-M" style="fill:none;stroke:#00AEEF;stroke-width:0.5;opacity:1.0;" x1="2394.86" x2="2394.86" y1="1030.79" y2="1150.12"/>
  <line id="left-margin-Heavy-M" style="fill:none;stroke:#00AEEF;stroke-width:0.5;opacity:1.0;" x1="2579.93" x2="2579.93" y1="1030.79" y2="1150.12"/>
  <line id="right-margin-Heavy-M" style="fill:none;stroke:#00AEEF;stroke-width:0.5;opacity:1.0;" x1="2693.45" x2="2693.45" y1="1030.79" y2="1150.12"/>
  <line id="left-margin-Black-M" style="fill:none;stroke:#00AEEF;stroke-width:0.5;opacity:1.0;" x1="2874.95" x2="2874.95" y1="1030.79" y2="1150.12"/>
  <line id="right-margin-Black-M" style="fill:none;stroke:#00AEEF;stroke-width:0.5;opacity:1.0;" x1="2991.85" x2="2991.85" y1="1030.79" y2="1150.12"/>
  <line id="left-margin-Ultralight-L" style="fill:none;stroke:#00AEEF;stroke-width:0.5;opacity:1.0;" x1="500.238" x2="500.238" y1="1460.79" y2="1580.12"/>
  <line id="right-margin-Ultralight-L" style="fill:none;stroke:#00AEEF;stroke-width:0.5;opacity:1.0;" x1="619.184" x2="619.184" y1="1460.79" y2="1580.12"/>
  <line id="left-margin-Thin-L" style="fill:none;stroke:#00AEEF;stroke-width:0.5;opacity:1.0;" x1="795.729" x2="795.729" y1="1460.79" y2="1580.12"/>
  <line id="right-margin-Thin-L" style="fill:none;stroke:#00AEEF;stroke-width:0.5;opacity:1.0;" x1="917.116" x2="917.116" y1="1460.79" y2="1580.12"/>
  <line id="left-margin-Light-L" style="fill:none;stroke:#00AEEF;stroke-width:0.5;opacity:1.0;" x1="1090.05" x2="1090.05" y1="1460.79" y2="1580.12"/>
  <line id="right-margin-Light-L" style="fill:none;stroke:#00AEEF;stroke-width:0.5;opacity:1.0;" x1="1216.22" x2="1216.22" y1="1460.79" y2="1580.12"/>
  <line id="left-margin-Regular-L" style="fill:none;stroke:#00AEEF;stroke-width:0.5;opacity:1.0;" x1="1384.95" x2="1384.95" y1="1460.79" y2="1580.12"/>
  <line id="right-margin-Regular-L" style="fill:none;stroke:#00AEEF;stroke-width:0.5;opacity:1.0;" x1="1514.74" x2="1514.74" y1="1460.79" y2="1580.12"/>
  <line id="left-margin-Medium-L" style="fill:none;stroke:#00AEEF;stroke-width:0.5;opacity:1.0;" x1="1680.05" x2="1680.05" y1="1460.79" y2="1580.12"/>
  <line id="right-margin-Medium-L" style="fill:none;stroke:#00AEEF;stroke-width:0.5;opacity:1.0;" x1="1813.06" x2="1813.06" y1="1460.79" y2="1580.12"/>
  <line id="left-margin-Semibold-L" style="fill:none;stroke:#00AEEF;stroke-width:0.5;opacity:1.0;" x1="1975.52" x2="1975.52" y1="1460.79" y2="1580.12"/>
  <line id="right-margin-Semibold-L" style="fill:none;stroke:#00AEEF;stroke-width:0.5;opacity:1.0;" x1="2111.02" x2="2111.02" y1="1460.79" y2="1580.12"/>
  <line id="left-margin-Bold-L" style="fill:none;stroke:#00AEEF;stroke-width:0.5;opacity:1.0;" x1="2270.59" x2="2270.59" y1="1460.79" y2="1580.12"/>
  <line id="right-margin-Bold-L" style="fill:none;stroke:#00AEEF;stroke-width:0.5;opacity:1.0;" x1="2409.36" x2="2409.36" y1="1460.79" y2="1580.12"/>
  <line id="left-margin-Heavy-L" style="fill:none;stroke:#00AEEF;stroke-width:0.5;opacity:1.0;" x1="2564.96" x2="2564.96" y1="1460.79" y2="1580.12"/>
  <line id="right-margin-Heavy-L" style="fill:none;stroke:#00AEEF;stroke-width:0.5;opacity:1.0;" x1="2708.42" x2="2708.42" y1="1460.79" y2="1580.12"/>
  <line id="left-margin-Black-L" style="fill:none;stroke:#00AEEF;stroke-width:0.5;opacity:1.0;" x1="2859.55" x2="2859.55" y1="1460.79" y2="1580.12"/>
  <line id="right-margin-Black-L" style="fill:none;stroke:#00AEEF;stroke-width:0.5;opacity:1.0;" x1="3007.25" x2="3007.25" y1="1460.79" y2="1580.12"/>
 </g>
 <g id="Symbols">
  <g id="Black-L" transform="matrix(1 0 0 1 2859.55 1556)">
   <path d="M16.0645 16.5527Q16.0645 25.4395 20.7031 30.3467Q25.3418 35.2539 33.8379 35.2539L113.916 35.2539Q122.363 35.2539 127.002 30.3467Q131.641 25.4395 131.641 16.5527L131.641-86.9629Q131.641-95.8008 127.002-100.708Q122.363-105.615 113.916-105.615L33.8379-105.615Q25.3418-105.615 20.7031-100.708Q16.0645-95.8008 16.0645-86.9629ZM35.791 13.5254L35.791-83.8867Q35.791-84.8145 36.3525-85.4004Q36.9141-85.9863 37.8418-85.9863L109.863-85.9863Q110.791-85.9863 111.377-85.4004Q111.963-84.8145 111.963-83.8867L111.963 13.5254Q111.963 14.4531 111.377 15.0146Q110.791 15.5762 109.863 15.5762L37.8418 15.5762Q36.9141 15.5762 36.3525 15.0146Q35.791 14.4531 35.791 13.5254ZM49.4629 25.2441L63.7695 25.2441L63.7695 4.63867Q63.7695 3.02734 65.3809 3.02734L82.373 3.02734Q84.0332 3.02734 84.0332 4.63867L84.0332 25.2441L98.3398 25.2441L98.3398-1.75781Q98.3398-5.66406 96.2402-7.88574Q94.1406-10.1074 90.4785-10.1074L57.3242-10.1074Q53.6133-10.1074 51.5381-7.88574Q49.4629-5.66406 49.4629-1.75781ZM54.1992-60.0098L65.2344-60.0098Q67.5781-60.0098 67.5781-62.4023L67.5781-73.2422Q67.5781-75.6348 65.2344-75.6348L54.1992-75.6348Q51.8555-75.6348 51.8555-73.2422L51.8555-62.4023Q51.8555-60.0098 54.1992-60.0098ZM82.5195-60.0098L93.5547-60.0098Q95.9473-60.0098 95.9473-62.4023L95.9473-73.2422Q95.9473-75.6348 93.5547-75.6348L82.5195-75.6348Q80.1758-75.6348 80.1758-73.2422L80.1758-62.4023Q80.1758-60.0098 82.5195-60.0098ZM54.1992-38.6719L65.2344-38.6719Q67.5781-38.6719 67.5781-41.1133L67.5781-51.9043Q67.5781-54.3457 65.2344-54.3457L54.1992-54.3457Q51.8555-54.3457 51.8555-51.9043L51.8555-41.1133Q51.8555-38.6719 54.1992-38.6719ZM82.5195-38.6719L93.5547-38.6719Q95.9473-38.6719 95.9473-41.1133L95.9473-51.9043Q95.9473-54.3457 93.5547-54.3457L82.5195-54.3457Q80.1758-54.3457 80.1758-51.9043L80.1758-41.1133Q80.1758-38.6719 82.5195-38.6719ZM54.1992-17.3828L65.2344-17.3828Q67.5781-17.3828 67.5781-19.7754L67.5781-30.6152Q67.5781-33.0078 65.2344-33.0078L54.1992-33.0078Q51.8555-33.0078 51.8555-30.6152L51.8555-19.7754Q51.8555-17.3828 54.1992-17.3828ZM82.5195-17.3828L93.5547-17.3828Q95.9473-17.3828 95.9473-19.7754L95.9473-30.6152Q95.9473-33.0078 93.5547-33.0078L82.5195-33.0078Q80.1758-33.0078 80.1758-30.6152L80.1758-19.7754Q80.1758-17.3828 82.5195-17.3828Z"/>
  </g>
  <g id="Heavy-L" transform="matrix(1 0 0 1 2564.96 1556)">
   <path d="M16.0645 17.5293Q16.0645 25.4883 20.2393 29.9316Q24.4141 34.375 31.9824 34.375L111.523 34.375Q119.092 34.375 123.242 29.9316Q127.393 25.4883 127.393 17.5293L127.393-87.9395Q127.393-95.8496 123.242-100.293Q119.092-104.736 111.523-104.736L31.9824-104.736Q24.4141-104.736 20.2393-100.293Q16.0645-95.8496 16.0645-87.9395ZM33.1543 14.7949L33.1543-85.1562Q33.1543-86.3281 33.8135-87.0117Q34.4727-87.6953 35.6445-87.6953L107.812-87.6953Q108.984-87.6953 109.668-87.0117Q110.352-86.3281 110.352-85.1562L110.352 14.7949Q110.352 15.9668 109.668 16.626Q108.984 17.2852 107.812 17.2852L35.6445 17.2852Q34.4727 17.2852 33.8135 16.626Q33.1543 15.9668 33.1543 14.7949ZM47.9492 25.6348L60.5957 25.6348L60.5957 5.0293Q60.5957 3.27148 62.3535 3.27148L81.1523 3.27148Q82.959 3.27148 82.959 5.0293L82.959 25.6348L95.6055 25.6348L95.6055-0.292969Q95.6055-4.19922 93.5791-6.32324Q91.5527-8.44727 87.8418-8.44727L55.7129-8.44727Q51.9531-8.44727 49.9512-6.32324Q47.9492-4.19922 47.9492-0.292969ZM51.8066-61.1328L63.2324-61.1328Q65.5762-61.1328 65.5762-63.5254L65.5762-74.7559Q65.5762-77.1484 63.2324-77.1484L51.8066-77.1484Q49.4629-77.1484 49.4629-74.7559L49.4629-63.5254Q49.4629-61.1328 51.8066-61.1328ZM80.2734-61.1328L91.6992-61.1328Q94.0918-61.1328 94.0918-63.5254L94.0918-74.7559Q94.0918-77.1484 91.6992-77.1484L80.2734-77.1484Q77.9297-77.1484 77.9297-74.7559L77.9297-63.5254Q77.9297-61.1328 80.2734-61.1328ZM51.8066-38.7695L63.2324-38.7695Q65.5762-38.7695 65.5762-41.2109L65.5762-52.3926Q65.5762-54.834 63.2324-54.834L51.8066-54.834Q49.4629-54.834 49.4629-52.3926L49.4629-41.2109Q49.4629-38.7695 51.8066-38.7695ZM80.2734-38.7695L91.6992-38.7695Q94.0918-38.7695 94.0918-41.2109L94.0918-52.3926Q94.0918-54.834 91.6992-54.834L80.2734-54.834Q77.9297-54.834 77.9297-52.3926L77.9297-41.2109Q77.9297-38.7695 80.2734-38.7695ZM51.8066-16.4551L63.2324-16.4551Q65.5762-16.4551 65.5762-18.8477L65.5762-30.0781Q65.5762-32.4707 63.2324-32.4707L51.8066-32.4707Q49.4629-32.4707 49.4629-30.0781L49.4629-18.8477Q49.4629-16.4551 51.8066-16.4551ZM80.2734-16.4551L91.6992-16.4551Q94.0918-16.4551 94.0918-18.8477L94.0918-30.0781Q94.0918-32.4707 91.6992-32.4707L80.2734-32.4707Q77.9297-32.4707 77.9297-30.0781L77.9297-18.8477Q77.9297-16.4551 80.2734-16.4551Z"/>
  </g>
  <g id="Bold-L" transform="matrix(1 0 0 1 2270.59 1556)">
   <path d="M16.0645 18.6523Q16.0645 25.5859 19.7021 29.4678Q23.3398 33.3496 29.9316 33.3496L108.887 33.3496Q115.43 33.3496 119.067 29.4678Q122.705 25.5859 122.705 18.6523L122.705-89.0625Q122.705-95.9473 119.067-99.8291Q115.43-103.711 108.887-103.711L29.9316-103.711Q23.3398-103.711 19.7021-99.8291Q16.0645-95.9473 16.0645-89.0625ZM30.2734 16.2109L30.2734-86.6211Q30.2734-88.0859 31.0059-88.8428Q31.7383-89.5996 33.252-89.5996L105.518-89.5996Q107.031-89.5996 107.788-88.8428Q108.545-88.0859 108.545-86.6211L108.545 16.2109Q108.545 17.7246 107.788 18.457Q107.031 19.1895 105.518 19.1895L33.252 19.1895Q31.7383 19.1895 31.0059 18.457Q30.2734 17.7246 30.2734 16.2109ZM46.2891 26.123L57.0312 26.123L57.0312 5.51758Q57.0312 3.56445 58.9844 3.56445L79.834 3.56445Q81.7871 3.56445 81.7871 5.51758L81.7871 26.123L92.5293 26.123L92.5293 1.41602Q92.5293-2.53906 90.6006-4.56543Q88.6719-6.5918 84.9609-6.5918L53.9062-6.5918Q50.1465-6.5918 48.2178-4.56543Q46.2891-2.53906 46.2891 1.41602ZM49.1211-62.4023L61.0352-62.4023Q63.3789-62.4023 63.3789-64.7949L63.3789-76.4648Q63.3789-78.8574 61.0352-78.8574L49.1211-78.8574Q46.8262-78.8574 46.8262-76.4648L46.8262-64.7949Q46.8262-62.4023 49.1211-62.4023ZM77.7344-62.4023L89.6484-62.4023Q91.9922-62.4023 91.9922-64.7949L91.9922-76.4648Q91.9922-78.8574 89.6484-78.8574L77.7344-78.8574Q75.3906-78.8574 75.3906-76.4648L75.3906-64.7949Q75.3906-62.4023 77.7344-62.4023ZM49.1211-38.916L61.0352-38.916Q63.3789-38.916 63.3789-41.3574L63.3789-52.9785Q63.3789-55.3711 61.0352-55.3711L49.1211-55.3711Q46.8262-55.3711 46.8262-52.9785L46.8262-41.3574Q46.8262-38.916 49.1211-38.916ZM77.7344-38.916L89.6484-38.916Q91.9922-38.916 91.9922-41.3574L91.9922-52.9785Q91.9922-55.3711 89.6484-55.3711L77.7344-55.3711Q75.3906-55.3711 75.3906-52.9785L75.3906-41.3574Q75.3906-38.916 77.7344-38.916ZM49.1211-15.4785L61.0352-15.4785Q63.3789-15.4785 63.3789-17.8711L63.3789-29.4922Q63.3789-31.8848 61.0352-31.8848L49.1211-31.8848Q46.8262-31.8848 46.8262-29.4922L46.8262-17.8711Q46.8262-15.4785 49.1211-15.4785ZM77.7344-15.4785L89.6484-15.4785Q91.9922-15.4785 91.9922-17.8711L91.9922-29.4922Q91.9922-31.8848 89.6484-31.8848L77.7344-31.8848Q75.3906-31.8848 75.3906-29.4922L75.3906-17.8711Q75.3906-15.4785 77.7344-15.4785Z"/>
  </g>
  <g id="Semibold-L" transform="matrix(1 0 0 1 1975.52 1556)">
   <path d="M16.0645 19.4336Q16.0645 25.6348 19.3359 29.1504Q22.6074 32.666 28.4668 32.666L107.031 32.666Q112.891 32.666 116.162 29.1504Q119.434 25.6348 119.434 19.4336L119.434-89.7949Q119.434-95.9961 116.162-99.5117Q112.891-103.027 107.031-103.027L28.4668-103.027Q22.6074-103.027 19.3359-99.5117Q16.0645-95.9961 16.0645-89.7949ZM28.2227 17.1875L28.2227-87.5977Q28.2227-89.2578 29.0283-90.0635Q29.834-90.8691 31.543-90.8691L103.955-90.8691Q105.615-90.8691 106.445-90.0635Q107.275-89.2578 107.275-87.5977L107.275 17.1875Q107.275 18.8965 106.445 19.7021Q105.615 20.5078 103.955 20.5078L31.543 20.5078Q29.834 20.5078 29.0283 19.7021Q28.2227 18.8965 28.2227 17.1875ZM45.1172 26.416L54.5898 26.416L54.5898 5.81055Q54.5898 3.75977 56.6406 3.75977L78.8574 3.75977Q80.957 3.75977 80.957 5.81055L80.957 26.416L90.4297 26.416L90.4297 2.53906Q90.4297-1.36719 88.5498-3.34473Q86.6699-5.32227 82.9102-5.32227L52.6367-5.32227Q48.877-5.32227 46.9971-3.34473Q45.1172-1.36719 45.1172 2.53906ZM47.2656-63.2324L59.5215-63.2324Q61.8652-63.2324 61.8652-65.6738L61.8652-77.5879Q61.8652-79.9805 59.5215-79.9805L47.2656-79.9805Q44.9707-79.9805 44.9707-77.5879L44.9707-65.6738Q44.9707-63.2324 47.2656-63.2324ZM75.9766-63.2324L88.1836-63.2324Q90.5762-63.2324 90.5762-65.6738L90.5762-77.5879Q90.5762-79.9805 88.1836-79.9805L75.9766-79.9805Q73.6328-79.9805 73.6328-77.5879L73.6328-65.6738Q73.6328-63.2324 75.9766-63.2324ZM47.2656-38.9648L59.5215-38.9648Q61.8652-38.9648 61.8652-41.4062L61.8652-53.3203Q61.8652-55.7617 59.5215-55.7617L47.2656-55.7617Q44.9707-55.7617 44.9707-53.3203L44.9707-41.4062Q44.9707-38.9648 47.2656-38.9648ZM75.9766-38.9648L88.1836-38.9648Q90.5762-38.9648 90.5762-41.4062L90.5762-53.3203Q90.5762-55.7617 88.1836-55.7617L75.9766-55.7617Q73.6328-55.7617 73.6328-53.3203L73.6328-41.4062Q73.6328-38.9648 75.9766-38.9648ZM47.2656-14.7461L59.5215-14.7461Q61.8652-14.7461 61.8652-17.1387L61.8652-29.1016Q61.8652-31.4941 59.5215-31.4941L47.2656-31.4941Q44.9707-31.4941 44.9707-29.1016L44.9707-17.1387Q44.9707-14.7461 47.2656-14.7461ZM75.9766-14.7461L88.1836-14.7461Q90.5762-14.7461 90.5762-17.1387L90.5762-29.1016Q90.5762-31.4941 88.1836-31.4941L75.9766-31.4941Q73.6328-31.4941 73.6328-29.1016L73.6328-17.1387Q73.6328-14.7461 75.9766-14.7461Z"/>
  </g>
  <g id="Medium-L" transform="matrix(1 0 0 1 1680.05 1556)">
   <path d="M16.0645 20.0195Q16.0645 25.6836 19.0674 28.9062Q22.0703 32.1289 27.3926 32.1289L105.615 32.1289Q110.938 32.1289 113.94 28.9062Q116.943 25.6836 116.943 20.0195L116.943-90.3809Q116.943-96.0449 113.94-99.2676Q110.938-102.49 105.615-102.49L27.3926-102.49Q22.0703-102.49 19.0674-99.2676Q16.0645-96.0449 16.0645-90.3809ZM26.709 17.9199L26.709-88.3301Q26.709-90.1367 27.5635-91.0156Q28.418-91.8945 30.2734-91.8945L102.734-91.8945Q104.59-91.8945 105.444-91.0156Q106.299-90.1367 106.299-88.3301L106.299 17.9199Q106.299 19.7754 105.444 20.6299Q104.59 21.4844 102.734 21.4844L30.2734 21.4844Q28.418 21.4844 27.5635 20.6299Q26.709 19.7754 26.709 17.9199ZM44.2383 26.6602L52.7344 26.6602L52.7344 6.05469Q52.7344 3.90625 54.8828 3.90625L78.1738 3.90625Q80.3711 3.90625 80.3711 6.05469L80.3711 26.6602L88.8184 26.6602L88.8184 3.41797Q88.8184-0.488281 86.9629-2.41699Q85.1074-4.3457 81.3965-4.3457L51.6602-4.3457Q47.9492-4.3457 46.0938-2.41699Q44.2383-0.488281 44.2383 3.41797ZM45.8496-63.916L58.3496-63.916Q60.6934-63.916 60.6934-66.3086L60.6934-78.4668Q60.6934-80.8594 58.3496-80.8594L45.8496-80.8594Q43.5547-80.8594 43.5547-78.4668L43.5547-66.3086Q43.5547-63.916 45.8496-63.916ZM74.6094-63.916L87.1094-63.916Q89.4531-63.916 89.4531-66.3086L89.4531-78.4668Q89.4531-80.8594 87.1094-80.8594L74.6094-80.8594Q72.3145-80.8594 72.3145-78.4668L72.3145-66.3086Q72.3145-63.916 74.6094-63.916ZM45.8496-39.0137L58.3496-39.0137Q60.6934-39.0137 60.6934-41.4551L60.6934-53.6133Q60.6934-56.0059 58.3496-56.0059L45.8496-56.0059Q43.5547-56.0059 43.5547-53.6133L43.5547-41.4551Q43.5547-39.0137 45.8496-39.0137ZM74.6094-39.0137L87.1094-39.0137Q89.4531-39.0137 89.4531-41.4551L89.4531-53.6133Q89.4531-56.0059 87.1094-56.0059L74.6094-56.0059Q72.3145-56.0059 72.3145-53.6133L72.3145-41.4551Q72.3145-39.0137 74.6094-39.0137ZM45.8496-14.209L58.3496-14.209Q60.6934-14.209 60.6934-16.6016L60.6934-28.7598Q60.6934-31.1523 58.3496-31.1523L45.8496-31.1523Q43.5547-31.1523 43.5547-28.7598L43.5547-16.6016Q43.5547-14.209 45.8496-14.209ZM74.6094-14.209L87.1094-14.209Q89.4531-14.209 89.4531-16.6016L89.4531-28.7598Q89.4531-31.1523 87.1094-31.1523L74.6094-31.1523Q72.3145-31.1523 72.3145-28.7598L72.3145-16.6016Q72.3145-14.209 74.6094-14.209Z"/>
  </g>
  <g id="Regular-L" transform="matrix(1 0 0 1 1384.95 1556)">
   <path d="M16.0645 20.752Q16.0645 25.7324 18.7012 28.5889Q21.3379 31.4453 25.9766 31.4453L103.809 31.4453Q108.447 31.4453 111.084 28.5889Q113.721 25.7324 113.721 20.752L113.721-91.1133Q113.721-96.0938 111.084-98.9502Q108.447-101.807 103.809-101.807L25.9766-101.807Q21.3379-101.807 18.7012-98.9502Q16.0645-96.0938 16.0645-91.1133ZM24.707 18.8965L24.707-89.3066Q24.707-91.3086 25.6348-92.2363Q26.5625-93.1641 28.6133-93.1641L101.172-93.1641Q103.223-93.1641 104.15-92.2363Q105.078-91.3086 105.078-89.3066L105.078 18.8965Q105.078 20.9473 104.15 21.875Q103.223 22.8027 101.172 22.8027L28.6133 22.8027Q26.5625 22.8027 25.6348 21.875Q24.707 20.9473 24.707 18.8965ZM43.1152 26.9531L50.293 26.9531L50.293 6.34766Q50.293 4.10156 52.5879 4.10156L77.2461 4.10156Q79.541 4.10156 79.541 6.34766L79.541 26.9531L86.7188 26.9531L86.7188 4.54102Q86.7188 0.634766 84.9365-1.2207Q83.1543-3.07617 79.3945-3.07617L50.4395-3.07617Q46.6797-3.07617 44.8975-1.2207Q43.1152 0.634766 43.1152 4.54102ZM44.043-64.7461L56.8359-64.7461Q59.1797-64.7461 59.1797-67.1875L59.1797-79.6387Q59.1797-82.0312 56.8359-82.0312L44.043-82.0312Q41.748-82.0312 41.748-79.6387L41.748-67.1875Q41.748-64.7461 44.043-64.7461ZM72.9004-64.7461L85.6934-64.7461Q88.0371-64.7461 88.0371-67.1875L88.0371-79.6387Q88.0371-82.0312 85.6934-82.0312L72.9004-82.0312Q70.6055-82.0312 70.6055-79.6387L70.6055-67.1875Q70.6055-64.7461 72.9004-64.7461ZM44.043-39.1113L56.8359-39.1113Q59.1797-39.1113 59.1797-41.5527L59.1797-54.0039Q59.1797-56.3965 56.8359-56.3965L44.043-56.3965Q41.748-56.3965 41.748-54.0039L41.748-41.5527Q41.748-39.1113 44.043-39.1113ZM72.9004-39.1113L85.6934-39.1113Q88.0371-39.1113 88.0371-41.5527L88.0371-54.0039Q88.0371-56.3965 85.6934-56.3965L72.9004-56.3965Q70.6055-56.3965 70.6055-54.0039L70.6055-41.5527Q70.6055-39.1113 72.9004-39.1113ZM44.043-13.5254L56.8359-13.5254Q59.1797-13.5254 59.1797-15.918L59.1797-28.3691Q59.1797-30.7617 56.8359-30.7617L44.043-30.7617Q41.748-30.7617 41.748-28.3691L41.748-15.918Q41.748-13.5254 44.043-13.5254ZM72.9004-13.5254L85.6934-13.5254Q88.0371-13.5254 88.0371-15.918L88.0371-28.3691Q88.0371-30.7617 85.6934-30.7617L72.9004-30.7617Q70.6055-30.7617 70.6055-28.3691L70.6055-15.918Q70.6055-13.5254 72.9004-13.5254Z"/>
  </g>
  <g id="Light-L" transform="matrix(1 0 0 1 1090.05 1556)">
   <path d="M16.0645 21.0938Q16.0645 25.7324 18.457 28.2471Q20.8496 30.7617 25.293 30.7617L100.879 30.7617Q105.322 30.7617 107.715 28.2471Q110.107 25.7324 110.107 21.0938L110.107-91.3574Q110.107-95.9961 107.715-98.5352Q105.322-101.074 100.879-101.074L25.293-101.074Q20.8496-101.074 18.457-98.5352Q16.0645-95.9961 16.0645-91.3574ZM22.6562 19.873L22.6562-90.2344Q22.6562-92.4805 23.6572-93.4814Q24.6582-94.4824 26.9531-94.4824L99.2188-94.4824Q101.514-94.4824 102.49-93.4814Q103.467-92.4805 103.467-90.2344L103.467 19.873Q103.467 22.168 102.49 23.1689Q101.514 24.1699 99.2188 24.1699L26.9531 24.1699Q24.6582 24.1699 23.6572 23.1689Q22.6562 22.168 22.6562 19.873ZM41.5039 27.3438L47.2168 27.3438L47.2168 7.42188Q47.2168 4.83398 49.8535 4.83398L76.3672 4.83398Q79.0039 4.83398 79.0039 7.42188L79.0039 27.3438L84.7168 27.3438L84.7168 6.29883Q84.7168 2.63672 83.0078 0.878906Q81.2988-0.878906 77.7344-0.878906L48.4863-0.878906Q44.9219-0.878906 43.2129 0.878906Q41.5039 2.63672 41.5039 6.29883ZM42.334-64.8926L55.8105-64.8926Q57.9102-64.8926 57.9102-67.0898L57.9102-80.2734Q57.9102-82.4219 55.8105-82.4219L42.334-82.4219Q40.2832-82.4219 40.2832-80.2734L40.2832-67.0898Q40.2832-64.8926 42.334-64.8926ZM70.3125-64.8926L83.7891-64.8926Q85.8887-64.8926 85.8887-67.0898L85.8887-80.2734Q85.8887-82.4219 83.7891-82.4219L70.3125-82.4219Q68.2617-82.4219 68.2617-80.2734L68.2617-67.0898Q68.2617-64.8926 70.3125-64.8926ZM42.334-38.3301L55.8105-38.3301Q57.9102-38.3301 57.9102-40.4785L57.9102-53.7109Q57.9102-55.8594 55.8105-55.8594L42.334-55.8594Q40.2832-55.8594 40.2832-53.7109L40.2832-40.4785Q40.2832-38.3301 42.334-38.3301ZM70.3125-38.3301L83.7891-38.3301Q85.8887-38.3301 85.8887-40.4785L85.8887-53.7109Q85.8887-55.8594 83.7891-55.8594L70.3125-55.8594Q68.2617-55.8594 68.2617-53.7109L68.2617-40.4785Q68.2617-38.3301 70.3125-38.3301ZM42.334-11.7676L55.8105-11.7676Q57.9102-11.7676 57.9102-13.916L57.9102-27.1484Q57.9102-29.2969 55.8105-29.2969L42.334-29.2969Q40.2832-29.2969 40.2832-27.1484L40.2832-13.916Q40.2832-11.7676 42.334-11.7676ZM70.3125-11.7676L83.7891-11.7676Q85.8887-11.7676 85.8887-13.916L85.8887-27.1484Q85.8887-29.2969 83.7891-29.2969L70.3125-29.2969Q68.2617-29.2969 68.2617-27.1484L68.2617-13.916Q68.2617-11.7676 70.3125-11.7676Z"/>
  </g>
  <g id="Thin-L" transform="matrix(1 0 0 1 795.729 1556)">
   <path d="M16.0645 21.4844Q16.0645 25.6836 18.1152 27.7832Q20.166 29.8828 24.3652 29.8828L97.0215 29.8828Q101.221 29.8828 103.271 27.7832Q105.322 25.6836 105.322 21.4844L105.322-91.6992Q105.322-95.8984 103.271-97.998Q101.221-100.098 97.0215-100.098L24.3652-100.098Q20.166-100.098 18.1152-97.998Q16.0645-95.8984 16.0645-91.6992ZM20.0195 21.2402L20.0195-91.5039Q20.0195-94.043 21.0693-95.1172Q22.1191-96.1914 24.707-96.1914L96.6797-96.1914Q99.2676-96.1914 100.317-95.1172Q101.367-94.043 101.367-91.5039L101.367 21.2402Q101.367 23.7793 100.317 24.8535Q99.2676 25.9277 96.6797 25.9277L24.707 25.9277Q22.1191 25.9277 21.0693 24.8535Q20.0195 23.7793 20.0195 21.2402ZM39.4043 27.8809L43.1152 27.8809L43.1152 8.88672Q43.1152 5.81055 46.2402 5.81055L75.2441 5.81055Q78.3691 5.81055 78.3691 8.88672L78.3691 27.8809L82.0801 27.8809L82.0801 8.64258Q82.0801 5.27344 80.4932 3.66211Q78.9062 2.05078 75.5371 2.05078L45.9473 2.05078Q42.5781 2.05078 40.9912 3.66211Q39.4043 5.27344 39.4043 8.64258ZM40.0879-65.0391L54.4922-65.0391Q56.25-65.0391 56.25-66.8945L56.25-81.1035Q56.25-82.959 54.4922-82.959L40.0879-82.959Q38.2812-82.959 38.2812-81.1035L38.2812-66.8945Q38.2812-65.0391 40.0879-65.0391ZM66.8945-65.0391L81.2988-65.0391Q83.0566-65.0391 83.0566-66.8945L83.0566-81.1035Q83.0566-82.959 81.2988-82.959L66.8945-82.959Q65.1367-82.959 65.1367-81.1035L65.1367-66.8945Q65.1367-65.0391 66.8945-65.0391ZM40.0879-37.2559L54.4922-37.2559Q56.25-37.2559 56.25-39.1113L56.25-53.3203Q56.25-55.1758 54.4922-55.1758L40.0879-55.1758Q38.2812-55.1758 38.2812-53.3203L38.2812-39.1113Q38.2812-37.2559 40.0879-37.2559ZM66.8945-37.2559L81.2988-37.2559Q83.0566-37.2559 83.0566-39.1113L83.0566-53.3203Q83.0566-55.1758 81.2988-55.1758L66.8945-55.1758Q65.1367-55.1758 65.1367-53.3203L65.1367-39.1113Q65.1367-37.2559 66.8945-37.2559ZM40.0879-9.42383L54.4922-9.42383Q56.25-9.42383 56.25-11.2793L56.25-25.4883Q56.25-27.3438 54.4922-27.3438L40.0879-27.3438Q38.2812-27.3438 38.2812-25.4883L38.2812-11.2793Q38.2812-9.42383 40.0879-9.42383ZM66.8945-9.42383L81.2988-9.42383Q83.0566-9.42383 83.0566-11.2793L83.0566-25.4883Q83.0566-27.3438 81.2988-27.3438L66.8945-27.3438Q65.1367-27.3438 65.1367-25.4883L65.1367-11.2793Q65.1367-9.42383 66.8945-9.42383Z"/>
  </g>
  <g id="Ultralight-L" transform="matrix(1 0 0 1 500.238 1556)">
   <path d="M16.0645 21.7285Q16.0645 25.6836 17.9443 27.5391Q19.8242 29.3945 23.877 29.3945L95.0684 29.3945Q99.0723 29.3945 100.977 27.5391Q102.881 25.6836 102.881 21.7285L102.881-91.8945Q102.881-95.8496 100.977-97.7051Q99.0723-99.5605 95.0684-99.5605L23.877-99.5605Q19.8242-99.5605 17.9443-97.7051Q16.0645-95.8496 16.0645-91.8945ZM18.6035 21.875L18.6035-92.1387Q18.6035-94.873 19.7266-95.9717Q20.8496-97.0703 23.584-97.0703L95.3613-97.0703Q98.0957-97.0703 99.1943-95.9717Q100.293-94.873 100.293-92.1387L100.293 21.875Q100.293 24.6094 99.1943 25.7324Q98.0957 26.8555 95.3613 26.8555L23.584 26.8555Q20.8496 26.8555 19.7266 25.7324Q18.6035 24.6094 18.6035 21.875ZM38.2812 28.125L41.0156 28.125L41.0156 9.61914Q41.0156 6.34766 44.3848 6.34766L74.6582 6.34766Q77.9785 6.34766 77.9785 9.61914L77.9785 28.125L80.7129 28.125L80.7129 9.86328Q80.7129 6.64062 79.1748 5.10254Q77.6367 3.56445 74.4141 3.56445L44.6289 3.56445Q41.3574 3.56445 39.8193 5.10254Q38.2812 6.64062 38.2812 9.86328ZM38.916-65.1367L53.8086-65.1367Q55.3711-65.1367 55.3711-66.8457L55.3711-81.543Q55.3711-83.252 53.8086-83.252L38.916-83.252Q37.3047-83.252 37.3047-81.543L37.3047-66.8457Q37.3047-65.1367 38.916-65.1367ZM65.1367-65.1367L80.0293-65.1367Q81.6406-65.1367 81.6406-66.8457L81.6406-81.543Q81.6406-83.252 80.0293-83.252L65.1367-83.252Q63.5742-83.252 63.5742-81.543L63.5742-66.8457Q63.5742-65.1367 65.1367-65.1367ZM38.916-36.7188L53.8086-36.7188Q55.3711-36.7188 55.3711-38.3789L55.3711-53.0762Q55.3711-54.7852 53.8086-54.7852L38.916-54.7852Q37.3047-54.7852 37.3047-53.0762L37.3047-38.3789Q37.3047-36.7188 38.916-36.7188ZM65.1367-36.7188L80.0293-36.7188Q81.6406-36.7188 81.6406-38.3789L81.6406-53.0762Q81.6406-54.7852 80.0293-54.7852L65.1367-54.7852Q63.5742-54.7852 63.5742-53.0762L63.5742-38.3789Q63.5742-36.7188 65.1367-36.7188ZM38.916-8.25195L53.8086-8.25195Q55.3711-8.25195 55.3711-9.91211L55.3711-24.6582Q55.3711-26.3672 53.8086-26.3672L38.916-26.3672Q37.3047-26.3672 37.3047-24.6582L37.3047-9.91211Q37.3047-8.25195 38.916-8.25195ZM65.1367-8.25195L80.0293-8.25195Q81.6406-8.25195 81.6406-9.91211L81.6406-24.6582Q81.6406-26.3672 80.0293-26.3672L65.1367-26.3672Q63.5742-26.3672 63.5742-24.6582L63.5742-9.91211Q63.5742-8.25195 65.1367-8.25195Z"/>
  </g>
  <g id="Black-M" transform="matrix(1 0 0 1 2874.95 1126)">
   <path d="M12.4512 4.15039Q12.4512 11.7188 16.3818 15.8203Q20.3125 19.9219 27.5391 19.9219L89.3066 19.9219Q96.582 19.9219 100.513 15.8203Q104.443 11.7188 104.443 4.15039L104.443-74.5605Q104.443-82.0801 100.513-86.2061Q96.582-90.332 89.3066-90.332L27.5391-90.332Q20.3125-90.332 16.3818-86.2061Q12.4512-82.0801 12.4512-74.5605ZM29.2969 1.80664L29.2969-72.168Q29.2969-72.7539 29.6875-73.1445Q30.0781-73.5352 30.6152-73.5352L86.2305-73.5352Q86.8164-73.5352 87.207-73.1445Q87.5977-72.7539 87.5977-72.168L87.5977 1.80664Q87.5977 2.34375 87.207 2.73438Q86.8164 3.125 86.2305 3.125L30.6152 3.125Q30.0781 3.125 29.6875 2.73438Q29.2969 2.34375 29.2969 1.80664ZM39.0625 11.4258L51.0742 11.4258L51.0742-4.29688Q51.0742-5.56641 52.3438-5.56641L64.5996-5.56641Q65.8691-5.56641 65.8691-4.29688L65.8691 11.4258L77.8809 11.4258L77.8809-9.96094Q77.8809-12.8906 76.2207-14.6729Q74.5605-16.4551 71.7773-16.4551L45.166-16.4551Q42.3828-16.4551 40.7227-14.6729Q39.0625-12.8906 39.0625-9.96094ZM43.457-53.5156L51.9043-53.5156Q53.6621-53.5156 53.6621-55.2734L53.6621-63.5742Q53.6621-65.3809 51.9043-65.3809L43.457-65.3809Q41.748-65.3809 41.748-63.5742L41.748-55.2734Q41.748-53.5156 43.457-53.5156ZM65.0391-53.5156L73.4863-53.5156Q75.1953-53.5156 75.1953-55.2734L75.1953-63.5742Q75.1953-65.3809 73.4863-65.3809L65.0391-65.3809Q63.2812-65.3809 63.2812-63.5742L63.2812-55.2734Q63.2812-53.5156 65.0391-53.5156ZM43.457-37.5488L51.9043-37.5488Q53.6621-37.5488 53.6621-39.3066L53.6621-47.6562Q53.6621-49.4141 51.9043-49.4141L43.457-49.4141Q41.748-49.4141 41.748-47.6562L41.748-39.3066Q41.748-37.5488 43.457-37.5488ZM65.0391-37.5488L73.4863-37.5488Q75.1953-37.5488 75.1953-39.3066L75.1953-47.6562Q75.1953-49.4141 73.4863-49.4141L65.0391-49.4141Q63.2812-49.4141 63.2812-47.6562L63.2812-39.3066Q63.2812-37.5488 65.0391-37.5488ZM43.457-21.582L51.9043-21.582Q53.6621-21.582 53.6621-23.3887L53.6621-31.6895Q53.6621-33.4961 51.9043-33.4961L43.457-33.4961Q41.748-33.4961 41.748-31.6895L41.748-23.3887Q41.748-21.582 43.457-21.582ZM65.0391-21.582L73.4863-21.582Q75.1953-21.582 75.1953-23.3887L75.1953-31.6895Q75.1953-33.4961 73.4863-33.4961L65.0391-33.4961Q63.2812-33.4961 63.2812-31.6895L63.2812-23.3887Q63.2812-21.582 65.0391-21.582Z"/>
  </g>
  <g id="Heavy-M" transform="matrix(1 0 0 1 2579.93 1126)">
   <path d="M12.4512 5.0293Q12.4512 11.7676 15.9668 15.4785Q19.4824 19.1895 25.8789 19.1895L87.5977 19.1895Q94.043 19.1895 97.5586 15.4785Q101.074 11.7676 101.074 5.0293L101.074-75.4395Q101.074-82.1777 97.5586-85.8887Q94.043-89.5996 87.5977-89.5996L25.8789-89.5996Q19.4824-89.5996 15.9668-85.8887Q12.4512-82.1777 12.4512-75.4395ZM27.1973 2.83203L27.1973-73.1934Q27.1973-73.9746 27.6367-74.4385Q28.0762-74.9023 28.8574-74.9023L84.668-74.9023Q85.4492-74.9023 85.9131-74.4385Q86.377-73.9746 86.377-73.1934L86.377 2.83203Q86.377 3.56445 85.9131 4.02832Q85.4492 4.49219 84.668 4.49219L28.8574 4.49219Q28.0762 4.49219 27.6367 4.02832Q27.1973 3.56445 27.1973 2.83203ZM37.9395 11.7188L48.6328 11.7188L48.6328-4.15039Q48.6328-5.46875 49.9512-5.46875L63.5742-5.46875Q64.9414-5.46875 64.9414-4.15039L64.9414 11.7188L75.6348 11.7188L75.6348-8.88672Q75.6348-11.8652 74.0234-13.5742Q72.4121-15.2832 69.5801-15.2832L43.9941-15.2832Q41.1621-15.2832 39.5508-13.5742Q37.9395-11.8652 37.9395-8.88672ZM41.5039-54.5898L50.1953-54.5898Q52.002-54.5898 52.002-56.3965L52.002-64.9414Q52.002-66.7969 50.1953-66.7969L41.5039-66.7969Q39.7461-66.7969 39.7461-64.9414L39.7461-56.3965Q39.7461-54.5898 41.5039-54.5898ZM63.3789-54.5898L72.0703-54.5898Q73.8281-54.5898 73.8281-56.3965L73.8281-64.9414Q73.8281-66.7969 72.0703-66.7969L63.3789-66.7969Q61.5723-66.7969 61.5723-64.9414L61.5723-56.3965Q61.5723-54.5898 63.3789-54.5898ZM41.5039-37.8418L50.1953-37.8418Q52.002-37.8418 52.002-39.6484L52.002-48.1934Q52.002-50 50.1953-50L41.5039-50Q39.7461-50 39.7461-48.1934L39.7461-39.6484Q39.7461-37.8418 41.5039-37.8418ZM63.3789-37.8418L72.0703-37.8418Q73.8281-37.8418 73.8281-39.6484L73.8281-48.1934Q73.8281-50 72.0703-50L63.3789-50Q61.5723-50 61.5723-48.1934L61.5723-39.6484Q61.5723-37.8418 63.3789-37.8418ZM41.5039-21.0449L50.1953-21.0449Q52.002-21.0449 52.002-22.9004L52.002-31.4453Q52.002-33.3008 50.1953-33.3008L41.5039-33.3008Q39.7461-33.3008 39.7461-31.4453L39.7461-22.9004Q39.7461-21.0449 41.5039-21.0449ZM63.3789-21.0449L72.0703-21.0449Q73.8281-21.0449 73.8281-22.9004L73.8281-31.4453Q73.8281-33.3008 72.0703-33.3008L63.3789-33.3008Q61.5723-33.3008 61.5723-31.4453L61.5723-22.9004Q61.5723-21.0449 63.3789-21.0449Z"/>
  </g>
  <g id="Bold-M" transform="matrix(1 0 0 1 2285.09 1126)">
   <path d="M12.4512 6.05469Q12.4512 11.8652 15.5029 15.1367Q18.5547 18.4082 24.0723 18.4082L85.7422 18.4082Q91.2109 18.4082 94.2627 15.1367Q97.3145 11.8652 97.3145 6.05469L97.3145-76.4648Q97.3145-82.2754 94.2627-85.5469Q91.2109-88.8184 85.7422-88.8184L24.0723-88.8184Q18.5547-88.8184 15.5029-85.5469Q12.4512-82.2754 12.4512-76.4648ZM24.8047 4.00391L24.8047-74.3652Q24.8047-75.3906 25.3418-75.9277Q25.8789-76.4648 26.9043-76.4648L82.9102-76.4648Q83.8867-76.4648 84.4238-75.9277Q84.9609-75.3906 84.9609-74.3652L84.9609 4.00391Q84.9609 4.98047 84.4238 5.51758Q83.8867 6.05469 82.9102 6.05469L26.9043 6.05469Q25.8789 6.05469 25.3418 5.51758Q24.8047 4.98047 24.8047 4.00391ZM36.7188 12.0605L45.8984 12.0605L45.8984-3.95508Q45.8984-5.37109 47.3145-5.37109L62.5-5.37109Q63.916-5.37109 63.916-3.95508L63.916 12.0605L73.0957 12.0605L73.0957-7.71484Q73.0957-10.7422 71.5576-12.3779Q70.0195-14.0137 67.1387-14.0137L42.6758-14.0137Q39.7949-14.0137 38.2568-12.3779Q36.7188-10.7422 36.7188-7.71484ZM39.3066-55.8105L48.291-55.8105Q50.1465-55.8105 50.1465-57.666L50.1465-66.4551Q50.1465-68.3594 48.291-68.3594L39.3066-68.3594Q37.5-68.3594 37.5-66.4551L37.5-57.666Q37.5-55.8105 39.3066-55.8105ZM61.5234-55.8105L70.5078-55.8105Q72.3633-55.8105 72.3633-57.666L72.3633-66.4551Q72.3633-68.3594 70.5078-68.3594L61.5234-68.3594Q59.668-68.3594 59.668-66.4551L59.668-57.666Q59.668-55.8105 61.5234-55.8105ZM39.3066-38.1348L48.291-38.1348Q50.1465-38.1348 50.1465-40.0391L50.1465-48.8281Q50.1465-50.6836 48.291-50.6836L39.3066-50.6836Q37.5-50.6836 37.5-48.8281L37.5-40.0391Q37.5-38.1348 39.3066-38.1348ZM61.5234-38.1348L70.5078-38.1348Q72.3633-38.1348 72.3633-40.0391L72.3633-48.8281Q72.3633-50.6836 70.5078-50.6836L61.5234-50.6836Q59.668-50.6836 59.668-48.8281L59.668-40.0391Q59.668-38.1348 61.5234-38.1348ZM39.3066-20.5078L48.291-20.5078Q50.1465-20.5078 50.1465-22.4121L50.1465-31.1523Q50.1465-33.0566 48.291-33.0566L39.3066-33.0566Q37.5-33.0566 37.5-31.1523L37.5-22.4121Q37.5-20.5078 39.3066-20.5078ZM61.5234-20.5078L70.5078-20.5078Q72.3633-20.5078 72.3633-22.4121L72.3633-31.1523Q72.3633-33.0566 70.5078-33.0566L61.5234-33.0566Q59.668-33.0566 59.668-31.1523L59.668-22.4121Q59.668-20.5078 61.5234-20.5078Z"/>
  </g>
  <g id="Semibold-M" transform="matrix(1 0 0 1 1989.68 1126)">
   <path d="M12.4512 6.73828Q12.4512 11.9141 15.1855 14.8682Q17.9199 17.8223 22.7539 17.8223L84.4238 17.8223Q89.2578 17.8223 91.9922 14.8682Q94.7266 11.9141 94.7266 6.73828L94.7266-77.1484Q94.7266-82.3242 91.9922-85.2783Q89.2578-88.2324 84.4238-88.2324L22.7539-88.2324Q17.9199-88.2324 15.1855-85.2783Q12.4512-82.3242 12.4512-77.1484ZM23.1934 4.78516L23.1934-75.1465Q23.1934-76.3672 23.7793-76.9531Q24.3652-77.5391 25.5371-77.5391L81.6895-77.5391Q82.8125-77.5391 83.3984-76.9531Q83.9844-76.3672 83.9844-75.1465L83.9844 4.78516Q83.9844 5.95703 83.3984 6.54297Q82.8125 7.12891 81.6895 7.12891L25.5371 7.12891Q24.3652 7.12891 23.7793 6.54297Q23.1934 5.95703 23.1934 4.78516ZM35.8398 12.3047L43.9941 12.3047L43.9941-3.80859Q43.9941-5.32227 45.5078-5.32227L61.7188-5.32227Q63.1836-5.32227 63.1836-3.80859L63.1836 12.3047L71.3379 12.3047L71.3379-6.88477Q71.3379-9.96094 69.8486-11.5479Q68.3594-13.1348 65.4297-13.1348L41.748-13.1348Q38.8672-13.1348 37.3535-11.5479Q35.8398-9.96094 35.8398-6.88477ZM37.7441-56.5918L46.9238-56.5918Q48.877-56.5918 48.877-58.5449L48.877-67.4805Q48.877-69.4336 46.9238-69.4336L37.7441-69.4336Q35.9375-69.4336 35.9375-67.4805L35.9375-58.5449Q35.9375-56.5918 37.7441-56.5918ZM60.2539-56.5918L69.3848-56.5918Q71.2891-56.5918 71.2891-58.5449L71.2891-67.4805Q71.2891-69.4336 69.3848-69.4336L60.2539-69.4336Q58.3496-69.4336 58.3496-67.4805L58.3496-58.5449Q58.3496-56.5918 60.2539-56.5918ZM37.7441-38.3301L46.9238-38.3301Q48.877-38.3301 48.877-40.2832L48.877-49.2188Q48.877-51.123 46.9238-51.123L37.7441-51.123Q35.9375-51.123 35.9375-49.2188L35.9375-40.2832Q35.9375-38.3301 37.7441-38.3301ZM60.2539-38.3301L69.3848-38.3301Q71.2891-38.3301 71.2891-40.2832L71.2891-49.2188Q71.2891-51.123 69.3848-51.123L60.2539-51.123Q58.3496-51.123 58.3496-49.2188L58.3496-40.2832Q58.3496-38.3301 60.2539-38.3301ZM37.7441-20.0684L46.9238-20.0684Q48.877-20.0684 48.877-22.0215L48.877-30.957Q48.877-32.9102 46.9238-32.9102L37.7441-32.9102Q35.9375-32.9102 35.9375-30.957L35.9375-22.0215Q35.9375-20.0684 37.7441-20.0684ZM60.2539-20.0684L69.3848-20.0684Q71.2891-20.0684 71.2891-22.0215L71.2891-30.957Q71.2891-32.9102 69.3848-32.9102L60.2539-32.9102Q58.3496-32.9102 58.3496-30.957L58.3496-22.0215Q58.3496-20.0684 60.2539-20.0684Z"/>
  </g>
  <g id="Medium-M" transform="matrix(1 0 0 1 1693.94 1126)">
   <path d="M12.4512 7.27539Q12.4512 11.9629 14.9414 14.6729Q17.4316 17.3828 21.8262 17.3828L83.3984 17.3828Q87.793 17.3828 90.2832 14.6729Q92.7734 11.9629 92.7734 7.27539L92.7734-77.6855Q92.7734-82.4219 90.2832-85.1074Q87.793-87.793 83.3984-87.793L21.8262-87.793Q17.4316-87.793 14.9414-85.1074Q12.4512-82.4219 12.4512-77.6855ZM21.9238 5.37109L21.9238-75.7812Q21.9238-77.0996 22.5586-77.71Q23.1934-78.3203 24.5117-78.3203L80.7617-78.3203Q82.0312-78.3203 82.6416-77.71Q83.252-77.0996 83.252-75.7812L83.252 5.37109Q83.252 6.68945 82.6416 7.2998Q82.0312 7.91016 80.7617 7.91016L24.5117 7.91016Q23.1934 7.91016 22.5586 7.2998Q21.9238 6.68945 21.9238 5.37109ZM35.1562 12.4512L42.5781 12.4512L42.5781-3.75977Q42.5781-5.22461 44.0918-5.22461L61.1328-5.22461Q62.6465-5.22461 62.6465-3.75977L62.6465 12.4512L70.0195 12.4512L70.0195-6.25Q70.0195-9.375 68.5547-10.9131Q67.0898-12.4512 64.1113-12.4512L41.0645-12.4512Q38.1348-12.4512 36.6455-10.9131Q35.1562-9.375 35.1562-6.25ZM36.6211-57.2266L45.9473-57.2266Q47.9004-57.2266 47.9004-59.1797L47.9004-68.2617Q47.9004-70.2148 45.9473-70.2148L36.6211-70.2148Q34.7168-70.2148 34.7168-68.2617L34.7168-59.1797Q34.7168-57.2266 36.6211-57.2266ZM59.2773-57.2266L68.5547-57.2266Q70.5078-57.2266 70.5078-59.1797L70.5078-68.2617Q70.5078-70.2148 68.5547-70.2148L59.2773-70.2148Q57.373-70.2148 57.373-68.2617L57.373-59.1797Q57.373-57.2266 59.2773-57.2266ZM36.6211-38.5254L45.9473-38.5254Q47.9004-38.5254 47.9004-40.4785L47.9004-49.5605Q47.9004-51.5137 45.9473-51.5137L36.6211-51.5137Q34.7168-51.5137 34.7168-49.5605L34.7168-40.4785Q34.7168-38.5254 36.6211-38.5254ZM59.2773-38.5254L68.5547-38.5254Q70.5078-38.5254 70.5078-40.4785L70.5078-49.5605Q70.5078-51.5137 68.5547-51.5137L59.2773-51.5137Q57.373-51.5137 57.373-49.5605L57.373-40.4785Q57.373-38.5254 59.2773-38.5254ZM36.6211-19.7754L45.9473-19.7754Q47.9004-19.7754 47.9004-21.7285L47.9004-30.8105Q47.9004-32.7637 45.9473-32.7637L36.6211-32.7637Q34.7168-32.7637 34.7168-30.8105L34.7168-21.7285Q34.7168-19.7754 36.6211-19.7754ZM59.2773-19.7754L68.5547-19.7754Q70.5078-19.7754 70.5078-21.7285L70.5078-30.8105Q70.5078-32.7637 68.5547-32.7637L59.2773-32.7637Q57.373-32.7637 57.373-30.8105L57.373-21.7285Q57.373-19.7754 59.2773-19.7754Z"/>
  </g>
  <g id="Regular-M" transform="matrix(1 0 0 1 1398.53 1126)">
   <path d="M12.4512 7.95898Q12.4512 12.0117 14.624 14.4287Q16.7969 16.8457 20.5566 16.8457L82.1289 16.8457Q85.8398 16.8457 88.0127 14.4287Q90.1855 12.0117 90.1855 7.95898L90.1855-78.3691Q90.1855-82.4707 88.0127-84.8633Q85.8398-87.2559 82.1289-87.2559L20.5566-87.2559Q16.7969-87.2559 14.624-84.8633Q12.4512-82.4707 12.4512-78.3691ZM20.3125 6.15234L20.3125-76.5625Q20.3125-78.0273 20.9961-78.7109Q21.6797-79.3945 23.1445-79.3945L79.541-79.3945Q80.957-79.3945 81.6406-78.7109Q82.3242-78.0273 82.3242-76.5625L82.3242 6.15234Q82.3242 7.61719 81.6406 8.30078Q80.957 8.98438 79.541 8.98438L23.1445 8.98438Q21.6797 8.98438 20.9961 8.30078Q20.3125 7.61719 20.3125 6.15234ZM34.3262 12.6953L40.7227 12.6953L40.7227-3.61328Q40.7227-5.17578 42.2852-5.17578L60.3516-5.17578Q61.9141-5.17578 61.9141-3.61328L61.9141 12.6953L68.3105 12.6953L68.3105-5.41992Q68.3105-8.59375 66.8945-10.083Q65.4785-11.5723 62.4512-11.5723L40.1855-11.5723Q37.207-11.5723 35.7666-10.083Q34.3262-8.59375 34.3262-5.41992ZM35.1074-58.0566L44.6289-58.0566Q46.6309-58.0566 46.6309-60.0586L46.6309-69.2871Q46.6309-71.2891 44.6289-71.2891L35.1074-71.2891Q33.2031-71.2891 33.2031-69.2871L33.2031-60.0586Q33.2031-58.0566 35.1074-58.0566ZM58.0078-58.0566L67.4805-58.0566Q69.4824-58.0566 69.4824-60.0586L69.4824-69.2871Q69.4824-71.2891 67.4805-71.2891L58.0078-71.2891Q56.0547-71.2891 56.0547-69.2871L56.0547-60.0586Q56.0547-58.0566 58.0078-58.0566ZM35.1074-38.7207L44.6289-38.7207Q46.6309-38.7207 46.6309-40.7227L46.6309-49.9512Q46.6309-51.9531 44.6289-51.9531L35.1074-51.9531Q33.2031-51.9531 33.2031-49.9512L33.2031-40.7227Q33.2031-38.7207 35.1074-38.7207ZM58.0078-38.7207L67.4805-38.7207Q69.4824-38.7207 69.4824-40.7227L69.4824-49.9512Q69.4824-51.9531 67.4805-51.9531L58.0078-51.9531Q56.0547-51.9531 56.0547-49.9512L56.0547-40.7227Q56.0547-38.7207 58.0078-38.7207ZM35.1074-19.3848L44.6289-19.3848Q46.6309-19.3848 46.6309-21.3867L46.6309-30.6152Q46.6309-32.6172 44.6289-32.6172L35.1074-32.6172Q33.2031-32.6172 33.2031-30.6152L33.2031-21.3867Q33.2031-19.3848 35.1074-19.3848ZM58.0078-19.3848L67.4805-19.3848Q69.4824-19.3848 69.4824-21.3867L69.4824-30.6152Q69.4824-32.6172 67.4805-32.6172L58.0078-32.6172Q56.0547-32.6172 56.0547-30.6152L56.0547-21.3867Q56.0547-19.3848 58.0078-19.3848Z"/>
  </g>
  <g id="Light-M" transform="matrix(1 0 0 1 1103.43 1126)">
   <path d="M12.4512 8.25195Q12.4512 12.0117 14.4043 14.1113Q16.3574 16.2109 19.9219 16.2109L79.4922 16.2109Q83.0566 16.2109 85.0098 14.1113Q86.9629 12.0117 86.9629 8.25195L86.9629-78.6133Q86.9629-82.373 85.0098-84.4727Q83.0566-86.5723 79.4922-86.5723L19.9219-86.5723Q16.3574-86.5723 14.4043-84.4727Q12.4512-82.373 12.4512-78.6133ZM18.5059 7.03125L18.5059-77.3926Q18.5059-79.1016 19.2383-79.834Q19.9707-80.5664 21.6309-80.5664L77.7832-80.5664Q79.4434-80.5664 80.1758-79.834Q80.9082-79.1016 80.9082-77.3926L80.9082 7.03125Q80.9082 8.74023 80.1758 9.47266Q79.4434 10.2051 77.7832 10.2051L21.6309 10.2051Q19.9707 10.2051 19.2383 9.47266Q18.5059 8.74023 18.5059 7.03125ZM32.9102 13.0371L37.9395 13.0371L37.9395-2.63672Q37.9395-4.49219 39.8438-4.49219L59.5703-4.49219Q61.4746-4.49219 61.4746-2.63672L61.4746 13.0371L66.5039 13.0371L66.5039-3.80859Q66.5039-6.78711 65.1855-8.17871Q63.8672-9.57031 60.9863-9.57031L38.4277-9.57031Q35.5957-9.57031 34.2529-8.17871Q32.9102-6.78711 32.9102-3.80859ZM33.5938-58.1543L43.7012-58.1543Q45.459-58.1543 45.459-59.9609L45.459-69.873Q45.459-71.6309 43.7012-71.6309L33.5938-71.6309Q31.8848-71.6309 31.8848-69.873L31.8848-59.9609Q31.8848-58.1543 33.5938-58.1543ZM55.6641-58.1543L65.7715-58.1543Q67.5781-58.1543 67.5781-59.9609L67.5781-69.873Q67.5781-71.6309 65.7715-71.6309L55.6641-71.6309Q53.9551-71.6309 53.9551-69.873L53.9551-59.9609Q53.9551-58.1543 55.6641-58.1543ZM33.5938-37.9883L43.7012-37.9883Q45.459-37.9883 45.459-39.7949L45.459-49.6582Q45.459-51.4648 43.7012-51.4648L33.5938-51.4648Q31.8848-51.4648 31.8848-49.6582L31.8848-39.7949Q31.8848-37.9883 33.5938-37.9883ZM55.6641-37.9883L65.7715-37.9883Q67.5781-37.9883 67.5781-39.7949L67.5781-49.6582Q67.5781-51.4648 65.7715-51.4648L55.6641-51.4648Q53.9551-51.4648 53.9551-49.6582L53.9551-39.7949Q53.9551-37.9883 55.6641-37.9883ZM33.5938-17.8223L43.7012-17.8223Q45.459-17.8223 45.459-19.5801L45.459-29.4922Q45.459-31.2988 43.7012-31.2988L33.5938-31.2988Q31.8848-31.2988 31.8848-29.4922L31.8848-19.5801Q31.8848-17.8223 33.5938-17.8223ZM55.6641-17.8223L65.7715-17.8223Q67.5781-17.8223 67.5781-19.5801L67.5781-29.4922Q67.5781-31.2988 65.7715-31.2988L55.6641-31.2988Q53.9551-31.2988 53.9551-29.4922L53.9551-19.5801Q53.9551-17.8223 55.6641-17.8223Z"/>
  </g>
  <g id="Thin-M" transform="matrix(1 0 0 1 808.864 1126)">
   <path d="M12.4512 8.64258Q12.4512 11.9629 14.1113 13.6719Q15.7715 15.3809 19.0918 15.3809L76.0254 15.3809Q79.3457 15.3809 81.0059 13.6719Q82.666 11.9629 82.666 8.64258L82.666-78.9551Q82.666-82.2754 81.0059-83.9844Q79.3457-85.6934 76.0254-85.6934L19.0918-85.6934Q15.7715-85.6934 14.1113-83.9844Q12.4512-82.2754 12.4512-78.9551ZM16.1133 8.20312L16.1133-78.5156Q16.1133-80.4688 16.9189-81.2744Q17.7246-82.0801 19.6289-82.0801L75.4883-82.0801Q77.3926-82.0801 78.1982-81.2744Q79.0039-80.4688 79.0039-78.5156L79.0039 8.20312Q79.0039 10.2051 78.1982 11.0107Q77.3926 11.8164 75.4883 11.8164L19.6289 11.8164Q17.7246 11.8164 16.9189 11.0107Q16.1133 10.2051 16.1133 8.20312ZM31.0059 13.5254L34.2773 13.5254L34.2773-1.31836Q34.2773-3.61328 36.5723-3.61328L58.5449-3.61328Q60.8398-3.61328 60.8398-1.31836L60.8398 13.5254L64.1602 13.5254L64.1602-1.70898Q64.1602-4.39453 62.915-5.68848Q61.6699-6.98242 58.9844-6.98242L36.1328-6.98242Q33.4961-6.98242 32.251-5.68848Q31.0059-4.39453 31.0059-1.70898ZM31.543-58.3008L42.4805-58.3008Q43.9453-58.3008 43.9453-59.8145L43.9453-70.6055Q43.9453-72.1191 42.4805-72.1191L31.543-72.1191Q30.127-72.1191 30.127-70.6055L30.127-59.8145Q30.127-58.3008 31.543-58.3008ZM52.5879-58.3008L63.5254-58.3008Q65.0391-58.3008 65.0391-59.8145L65.0391-70.6055Q65.0391-72.1191 63.5254-72.1191L52.5879-72.1191Q51.1719-72.1191 51.1719-70.6055L51.1719-59.8145Q51.1719-58.3008 52.5879-58.3008ZM31.543-37.0117L42.4805-37.0117Q43.9453-37.0117 43.9453-38.5254L43.9453-49.3164Q43.9453-50.8301 42.4805-50.8301L31.543-50.8301Q30.127-50.8301 30.127-49.3164L30.127-38.5254Q30.127-37.0117 31.543-37.0117ZM52.5879-37.0117L63.5254-37.0117Q65.0391-37.0117 65.0391-38.5254L65.0391-49.3164Q65.0391-50.8301 63.5254-50.8301L52.5879-50.8301Q51.1719-50.8301 51.1719-49.3164L51.1719-38.5254Q51.1719-37.0117 52.5879-37.0117ZM31.543-15.7227L42.4805-15.7227Q43.9453-15.7227 43.9453-17.2363L43.9453-28.0273Q43.9453-29.541 42.4805-29.541L31.543-29.541Q30.127-29.541 30.127-28.0273L30.127-17.2363Q30.127-15.7227 31.543-15.7227ZM52.5879-15.7227L63.5254-15.7227Q65.0391-15.7227 65.0391-17.2363L65.0391-28.0273Q65.0391-29.541 63.5254-29.541L52.5879-29.541Q51.1719-29.541 51.1719-28.0273L51.1719-17.2363Q51.1719-15.7227 52.5879-15.7227Z"/>
  </g>
  <g id="Ultralight-M" transform="matrix(1 0 0 1 513.251 1126)">
   <path d="M12.4512 8.83789Q12.4512 11.9629 13.9648 13.4766Q15.4785 14.9902 18.6523 14.9902L74.2676 14.9902Q77.4414 14.9902 78.9551 13.4766Q80.4688 11.9629 80.4688 8.83789L80.4688-79.1016Q80.4688-82.2266 78.9551-83.7402Q77.4414-85.2539 74.2676-85.2539L18.6523-85.2539Q15.4785-85.2539 13.9648-83.7402Q12.4512-82.2266 12.4512-79.1016ZM14.8438 8.83789L14.8438-79.1016Q14.8438-81.2012 15.6982-82.0557Q16.5527-82.9102 18.6035-82.9102L74.3164-82.9102Q76.3672-82.9102 77.2217-82.0557Q78.0762-81.2012 78.0762-79.1016L78.0762 8.83789Q78.0762 10.9375 77.2217 11.7676Q76.3672 12.5977 74.3164 12.5977L18.6035 12.5977Q16.5527 12.5977 15.6982 11.7676Q14.8438 10.9375 14.8438 8.83789ZM30.0293 13.7695L32.4219 13.7695L32.4219-0.683594Q32.4219-3.17383 34.9121-3.17383L58.0566-3.17383Q60.5469-3.17383 60.5469-0.683594L60.5469 13.7695L62.9395 13.7695L62.9395-0.634766Q62.9395-3.17383 61.7676-4.39453Q60.5957-5.61523 58.0078-5.61523L34.9609-5.61523Q32.4219-5.61523 31.2256-4.39453Q30.0293-3.17383 30.0293-0.634766ZM30.5176-58.3984L41.8457-58.3984Q43.1641-58.3984 43.1641-59.7168L43.1641-70.9961Q43.1641-72.3633 41.8457-72.3633L30.5176-72.3633Q29.1992-72.3633 29.1992-70.9961L29.1992-59.7168Q29.1992-58.3984 30.5176-58.3984ZM51.0254-58.3984L62.4023-58.3984Q63.7207-58.3984 63.7207-59.7168L63.7207-70.9961Q63.7207-72.3633 62.4023-72.3633L51.0254-72.3633Q49.7559-72.3633 49.7559-70.9961L49.7559-59.7168Q49.7559-58.3984 51.0254-58.3984ZM30.5176-36.5234L41.8457-36.5234Q43.1641-36.5234 43.1641-37.8906L43.1641-49.1211Q43.1641-50.4883 41.8457-50.4883L30.5176-50.4883Q29.1992-50.4883 29.1992-49.1211L29.1992-37.8906Q29.1992-36.5234 30.5176-36.5234ZM51.0254-36.5234L62.4023-36.5234Q63.7207-36.5234 63.7207-37.8906L63.7207-49.1211Q63.7207-50.4883 62.4023-50.4883L51.0254-50.4883Q49.7559-50.4883 49.7559-49.1211L49.7559-37.8906Q49.7559-36.5234 51.0254-36.5234ZM30.5176-14.6484L41.8457-14.6484Q43.1641-14.6484 43.1641-16.0156L43.1641-27.2949Q43.1641-28.6133 41.8457-28.6133L30.5176-28.6133Q29.1992-28.6133 29.1992-27.2949L29.1992-16.0156Q29.1992-14.6484 30.5176-14.6484ZM51.0254-14.6484L62.4023-14.6484Q63.7207-14.6484 63.7207-16.0156L63.7207-27.2949Q63.7207-28.6133 62.4023-28.6133L51.0254-28.6133Q49.7559-28.6133 49.7559-27.2949L49.7559-16.0156Q49.7559-14.6484 51.0254-14.6484Z"/>
  </g>
  <g id="Black-S" transform="matrix(1 0 0 1 2887.18 696)">
   <path d="M9.76562-4.63867Q9.76562 1.51367 12.9639 4.83398Q16.1621 8.1543 22.0703 8.1543L70.3613 8.1543Q76.3184 8.1543 79.4922 4.83398Q82.666 1.51367 82.666-4.63867L82.666-65.7715Q82.666-71.9238 79.4922-75.2441Q76.3184-78.5645 70.3613-78.5645L22.0703-78.5645Q16.1621-78.5645 12.9639-75.2441Q9.76562-71.9238 9.76562-65.7715ZM23.4863-6.49414L23.4863-63.916Q23.4863-64.3066 23.7793-64.5996Q24.0723-64.8926 24.4629-64.8926L67.9688-64.8926Q68.3594-64.8926 68.6523-64.5996Q68.9453-64.3066 68.9453-63.916L68.9453-6.49414Q68.9453-6.10352 68.6523-5.81055Q68.3594-5.51758 67.9688-5.51758L24.4629-5.51758Q24.0723-5.51758 23.7793-5.81055Q23.4863-6.10352 23.4863-6.49414ZM30.8594 1.26953L40.625 1.26953L40.625-10.9863Q40.625-11.9629 41.6016-11.9629L50.8789-11.9629Q51.8555-11.9629 51.8555-10.9863L51.8555 1.26953L61.6211 1.26953L61.6211-15.6738Q61.6211-17.9688 60.3027-19.3604Q58.9844-20.752 56.8359-20.752L35.6445-20.752Q33.4961-20.752 32.1777-19.3604Q30.8594-17.9688 30.8594-15.6738ZM34.5703-49.2188L41.1621-49.2188Q42.4805-49.2188 42.4805-50.5859L42.4805-57.0801Q42.4805-58.4473 41.1621-58.4473L34.5703-58.4473Q33.252-58.4473 33.252-57.0801L33.252-50.5859Q33.252-49.2188 34.5703-49.2188ZM51.3184-49.2188L57.9102-49.2188Q59.2285-49.2188 59.2285-50.5859L59.2285-57.0801Q59.2285-58.4473 57.9102-58.4473L51.3184-58.4473Q50-58.4473 50-57.0801L50-50.5859Q50-49.2188 51.3184-49.2188ZM34.5703-36.9141L41.1621-36.9141Q42.4805-36.9141 42.4805-38.2812L42.4805-44.7754Q42.4805-46.1426 41.1621-46.1426L34.5703-46.1426Q33.252-46.1426 33.252-44.7754L33.252-38.2812Q33.252-36.9141 34.5703-36.9141ZM51.3184-36.9141L57.9102-36.9141Q59.2285-36.9141 59.2285-38.2812L59.2285-44.7754Q59.2285-46.1426 57.9102-46.1426L51.3184-46.1426Q50-46.1426 50-44.7754L50-38.2812Q50-36.9141 51.3184-36.9141ZM34.5703-24.6094L41.1621-24.6094Q42.4805-24.6094 42.4805-25.9766L42.4805-32.4707Q42.4805-33.8379 41.1621-33.8379L34.5703-33.8379Q33.252-33.8379 33.252-32.4707L33.252-25.9766Q33.252-24.6094 34.5703-24.6094ZM51.3184-24.6094L57.9102-24.6094Q59.2285-24.6094 59.2285-25.9766L59.2285-32.4707Q59.2285-33.8379 57.9102-33.8379L51.3184-33.8379Q50-33.8379 50-32.4707L50-25.9766Q50-24.6094 51.3184-24.6094Z"/>
  </g>
  <g id="Heavy-S" transform="matrix(1 0 0 1 2591.69 696)">
   <path d="M9.76562-3.90625Q9.76562 1.5625 12.6465 4.58984Q15.5273 7.61719 20.752 7.61719L69.2383 7.61719Q74.5117 7.61719 77.3682 4.58984Q80.2246 1.5625 80.2246-3.90625L80.2246-66.5039Q80.2246-72.0215 77.3682-75.0244Q74.5117-78.0273 69.2383-78.0273L20.752-78.0273Q15.5273-78.0273 12.6465-75.0244Q9.76562-72.0215 9.76562-66.5039ZM21.9238-5.71289L21.9238-64.6973Q21.9238-65.2344 22.2656-65.5762Q22.6074-65.918 23.1445-65.918L66.8457-65.918Q67.3828-65.918 67.7246-65.5762Q68.0664-65.2344 68.0664-64.6973L68.0664-5.71289Q68.0664-5.17578 67.7246-4.83398Q67.3828-4.49219 66.8457-4.49219L23.1445-4.49219Q22.6074-4.49219 22.2656-4.83398Q21.9238-5.17578 21.9238-5.71289ZM30.0781 1.46484L38.8672 1.46484L38.8672-10.9863Q38.8672-11.9629 39.8926-11.9629L50.1465-11.9629Q51.123-11.9629 51.123-10.9863L51.123 1.46484L59.9121 1.46484L59.9121-14.9414Q59.9121-17.334 58.6426-18.6768Q57.373-20.0195 55.127-20.0195L34.8633-20.0195Q32.666-20.0195 31.3721-18.6768Q30.0781-17.334 30.0781-14.9414ZM33.1055-50.0977L39.7949-50.0977Q41.2109-50.0977 41.2109-51.5625L41.2109-58.1543Q41.2109-59.5703 39.7949-59.5703L33.1055-59.5703Q31.6895-59.5703 31.6895-58.1543L31.6895-51.5625Q31.6895-50.0977 33.1055-50.0977ZM50.1953-50.0977L56.9336-50.0977Q58.3008-50.0977 58.3008-51.5625L58.3008-58.1543Q58.3008-59.5703 56.9336-59.5703L50.1953-59.5703Q48.7793-59.5703 48.7793-58.1543L48.7793-51.5625Q48.7793-50.0977 50.1953-50.0977ZM33.1055-37.2559L39.7949-37.2559Q41.2109-37.2559 41.2109-38.6719L41.2109-45.2637Q41.2109-46.7285 39.7949-46.7285L33.1055-46.7285Q31.6895-46.7285 31.6895-45.2637L31.6895-38.6719Q31.6895-37.2559 33.1055-37.2559ZM50.1953-37.2559L56.9336-37.2559Q58.3008-37.2559 58.3008-38.6719L58.3008-45.2637Q58.3008-46.7285 56.9336-46.7285L50.1953-46.7285Q48.7793-46.7285 48.7793-45.2637L48.7793-38.6719Q48.7793-37.2559 50.1953-37.2559ZM33.1055-24.3652L39.7949-24.3652Q41.2109-24.3652 41.2109-25.7812L41.2109-32.373Q41.2109-33.8379 39.7949-33.8379L33.1055-33.8379Q31.6895-33.8379 31.6895-32.373L31.6895-25.7812Q31.6895-24.3652 33.1055-24.3652ZM50.1953-24.3652L56.9336-24.3652Q58.3008-24.3652 58.3008-25.7812L58.3008-32.373Q58.3008-33.8379 56.9336-33.8379L50.1953-33.8379Q48.7793-33.8379 48.7793-32.373L48.7793-25.7812Q48.7793-24.3652 50.1953-24.3652Z"/>
  </g>
  <g id="Bold-S" transform="matrix(1 0 0 1 2296.35 696)">
   <path d="M9.76562-3.07617Q9.76562 1.66016 12.2803 4.3457Q14.7949 7.03125 19.2383 7.03125L68.0176 7.03125Q72.4609 7.03125 74.9756 4.3457Q77.4902 1.66016 77.4902-3.07617L77.4902-67.3828Q77.4902-72.1191 74.9756-74.7803Q72.4609-77.4414 68.0176-77.4414L19.2383-77.4414Q14.7949-77.4414 12.2803-74.7803Q9.76562-72.1191 9.76562-67.3828ZM20.166-4.88281L20.166-65.5762Q20.166-66.3086 20.5566-66.6992Q20.9473-67.0898 21.6797-67.0898L65.5762-67.0898Q66.2598-67.0898 66.6748-66.6992Q67.0898-66.3086 67.0898-65.5762L67.0898-4.88281Q67.0898-4.15039 66.6748-3.75977Q66.2598-3.36914 65.5762-3.36914L21.6797-3.36914Q20.9473-3.36914 20.5566-3.75977Q20.166-4.15039 20.166-4.88281ZM29.248 1.70898L36.9629 1.70898L36.9629-10.9863Q36.9629-12.0117 37.9883-12.0117L49.3164-12.0117Q50.3418-12.0117 50.3418-10.9863L50.3418 1.70898L58.0078 1.70898L58.0078-14.1602Q58.0078-16.6016 56.7871-17.9199Q55.5664-19.2383 53.2715-19.2383L33.9844-19.2383Q31.7383-19.2383 30.4932-17.9199Q29.248-16.6016 29.248-14.1602ZM31.4453-51.123L38.2812-51.123Q39.7949-51.123 39.7949-52.6855L39.7949-59.375Q39.7949-60.8887 38.2812-60.8887L31.4453-60.8887Q29.9805-60.8887 29.9805-59.375L29.9805-52.6855Q29.9805-51.123 31.4453-51.123ZM48.9746-51.123L55.8105-51.123Q57.3242-51.123 57.3242-52.6855L57.3242-59.375Q57.3242-60.8887 55.8105-60.8887L48.9746-60.8887Q47.4609-60.8887 47.4609-59.375L47.4609-52.6855Q47.4609-51.123 48.9746-51.123ZM31.4453-37.6465L38.2812-37.6465Q39.7949-37.6465 39.7949-39.1602L39.7949-45.8496Q39.7949-47.3633 38.2812-47.3633L31.4453-47.3633Q29.9805-47.3633 29.9805-45.8496L29.9805-39.1602Q29.9805-37.6465 31.4453-37.6465ZM48.9746-37.6465L55.8105-37.6465Q57.3242-37.6465 57.3242-39.1602L57.3242-45.8496Q57.3242-47.3633 55.8105-47.3633L48.9746-47.3633Q47.4609-47.3633 47.4609-45.8496L47.4609-39.1602Q47.4609-37.6465 48.9746-37.6465ZM31.4453-24.1211L38.2812-24.1211Q39.7949-24.1211 39.7949-25.6348L39.7949-32.3242Q39.7949-33.8379 38.2812-33.8379L31.4453-33.8379Q29.9805-33.8379 29.9805-32.3242L29.9805-25.6348Q29.9805-24.1211 31.4453-24.1211ZM48.9746-24.1211L55.8105-24.1211Q57.3242-24.1211 57.3242-25.6348L57.3242-32.3242Q57.3242-33.8379 55.8105-33.8379L48.9746-33.8379Q47.4609-33.8379 47.4609-32.3242L47.4609-25.6348Q47.4609-24.1211 48.9746-24.1211Z"/>
  </g>
  <g id="Semibold-S" transform="matrix(1 0 0 1 2000.59 696)">
   <path d="M9.76562-2.49023Q9.76562 1.70898 12.0117 4.15039Q14.2578 6.5918 18.2129 6.5918L67.1387 6.5918Q71.0449 6.5918 73.3154 4.15039Q75.5859 1.70898 75.5859-2.49023L75.5859-67.9199Q75.5859-72.168 73.3154-74.6094Q71.0449-77.0508 67.1387-77.0508L18.2129-77.0508Q14.2578-77.0508 12.0117-74.6094Q9.76562-72.168 9.76562-67.9199ZM18.9453-4.24805L18.9453-66.1621Q18.9453-66.9922 19.3848-67.4316Q19.8242-67.8711 20.6543-67.8711L64.6484-67.8711Q65.4785-67.8711 65.918-67.4316Q66.3574-66.9922 66.3574-66.1621L66.3574-4.24805Q66.3574-3.41797 65.918-2.97852Q65.4785-2.53906 64.6484-2.53906L20.6543-2.53906Q19.8242-2.53906 19.3848-2.97852Q18.9453-3.41797 18.9453-4.24805ZM28.6133 1.85547L35.5957 1.85547L35.5957-10.9375Q35.5957-12.0117 36.6211-12.0117L48.7305-12.0117Q49.7559-12.0117 49.7559-10.9375L49.7559 1.85547L56.6895 1.85547L56.6895-13.623Q56.6895-16.1133 55.4932-17.3828Q54.2969-18.6523 51.9531-18.6523L33.3984-18.6523Q31.0547-18.6523 29.834-17.3828Q28.6133-16.1133 28.6133-13.623ZM30.2734-51.8066L37.2559-51.8066Q38.7695-51.8066 38.7695-53.418L38.7695-60.1562Q38.7695-61.7676 37.2559-61.7676L30.2734-61.7676Q28.7598-61.7676 28.7598-60.1562L28.7598-53.418Q28.7598-51.8066 30.2734-51.8066ZM48.0957-51.8066L55.0293-51.8066Q56.5918-51.8066 56.5918-53.418L56.5918-60.1562Q56.5918-61.7676 55.0293-61.7676L48.0957-61.7676Q46.5332-61.7676 46.5332-60.1562L46.5332-53.418Q46.5332-51.8066 48.0957-51.8066ZM30.2734-37.8906L37.2559-37.8906Q38.7695-37.8906 38.7695-39.4531L38.7695-46.1914Q38.7695-47.7539 37.2559-47.7539L30.2734-47.7539Q28.7598-47.7539 28.7598-46.1914L28.7598-39.4531Q28.7598-37.8906 30.2734-37.8906ZM48.0957-37.8906L55.0293-37.8906Q56.5918-37.8906 56.5918-39.4531L56.5918-46.1914Q56.5918-47.7539 55.0293-47.7539L48.0957-47.7539Q46.5332-47.7539 46.5332-46.1914L46.5332-39.4531Q46.5332-37.8906 48.0957-37.8906ZM30.2734-23.9258L37.2559-23.9258Q38.7695-23.9258 38.7695-25.4883L38.7695-32.2266Q38.7695-33.8379 37.2559-33.8379L30.2734-33.8379Q28.7598-33.8379 28.7598-32.2266L28.7598-25.4883Q28.7598-23.9258 30.2734-23.9258ZM48.0957-23.9258L55.0293-23.9258Q56.5918-23.9258 56.5918-25.4883L56.5918-32.2266Q56.5918-33.8379 55.0293-33.8379L48.0957-33.8379Q46.5332-33.8379 46.5332-32.2266L46.5332-25.4883Q46.5332-23.9258 48.0957-23.9258Z"/>
  </g>
  <g id="Medium-S" transform="matrix(1 0 0 1 1704.61 696)">
   <path d="M9.76562-2.09961Q9.76562 1.75781 11.8164 4.00391Q13.8672 6.25 17.4316 6.25L66.4551 6.25Q69.9707 6.25 72.0459 4.00391Q74.1211 1.75781 74.1211-2.09961L74.1211-68.3594Q74.1211-72.2168 72.0459-74.4629Q69.9707-76.709 66.4551-76.709L17.4316-76.709Q13.8672-76.709 11.8164-74.4629Q9.76562-72.2168 9.76562-68.3594ZM18.0176-3.80859L18.0176-66.6504Q18.0176-67.5293 18.4814-68.0176Q18.9453-68.5059 19.873-68.5059L64.0137-68.5059Q64.8926-68.5059 65.3809-68.0176Q65.8691-67.5293 65.8691-66.6504L65.8691-3.80859Q65.8691-2.88086 65.3809-2.41699Q64.8926-1.95312 64.0137-1.95312L19.873-1.95312Q18.9453-1.95312 18.4814-2.41699Q18.0176-2.88086 18.0176-3.80859ZM28.1738 2.00195L34.5703 2.00195L34.5703-10.9375Q34.5703-12.0117 35.6445-12.0117L48.291-12.0117Q49.3164-12.0117 49.3164-10.9375L49.3164 2.00195L55.7129 2.00195L55.7129-13.1836Q55.7129-15.7227 54.5166-16.9678Q53.3203-18.2129 50.9277-18.2129L32.9102-18.2129Q30.5664-18.2129 29.3701-16.9678Q28.1738-15.7227 28.1738-13.1836ZM29.3945-52.3438L36.4258-52.3438Q38.0371-52.3438 38.0371-54.0039L38.0371-60.791Q38.0371-62.4023 36.4258-62.4023L29.3945-62.4023Q27.832-62.4023 27.832-60.791L27.832-54.0039Q27.832-52.3438 29.3945-52.3438ZM47.4121-52.3438L54.4434-52.3438Q56.0547-52.3438 56.0547-54.0039L56.0547-60.791Q56.0547-62.4023 54.4434-62.4023L47.4121-62.4023Q45.8496-62.4023 45.8496-60.791L45.8496-54.0039Q45.8496-52.3438 47.4121-52.3438ZM29.3945-38.0859L36.4258-38.0859Q38.0371-38.0859 38.0371-39.6973L38.0371-46.4844Q38.0371-48.0957 36.4258-48.0957L29.3945-48.0957Q27.832-48.0957 27.832-46.4844L27.832-39.6973Q27.832-38.0859 29.3945-38.0859ZM47.4121-38.0859L54.4434-38.0859Q56.0547-38.0859 56.0547-39.6973L56.0547-46.4844Q56.0547-48.0957 54.4434-48.0957L47.4121-48.0957Q45.8496-48.0957 45.8496-46.4844L45.8496-39.6973Q45.8496-38.0859 47.4121-38.0859ZM29.3945-23.7793L36.4258-23.7793Q38.0371-23.7793 38.0371-25.3906L38.0371-32.1777Q38.0371-33.8379 36.4258-33.8379L29.3945-33.8379Q27.832-33.8379 27.832-32.1777L27.832-25.3906Q27.832-23.7793 29.3945-23.7793ZM47.4121-23.7793L54.4434-23.7793Q56.0547-23.7793 56.0547-25.3906L56.0547-32.1777Q56.0547-33.8379 54.4434-33.8379L47.4121-33.8379Q45.8496-33.8379 45.8496-32.1777L45.8496-25.3906Q45.8496-23.7793 47.4121-23.7793Z"/>
  </g>
  <g id="Regular-S" transform="matrix(1 0 0 1 1408.83 696)">
   <path d="M9.76562-1.51367Q9.76562 1.80664 11.5723 3.83301Q13.3789 5.85938 16.4062 5.85938L65.625 5.85938Q68.6035 5.85938 70.4346 3.83301Q72.2656 1.80664 72.2656-1.51367L72.2656-68.9453Q72.2656-72.2656 70.4346-74.292Q68.6035-76.3184 65.625-76.3184L16.4062-76.3184Q13.3789-76.3184 11.5723-74.292Q9.76562-72.2656 9.76562-68.9453ZM16.7969-3.22266L16.7969-67.2363Q16.7969-68.2617 17.3096-68.7744Q17.8223-69.2871 18.8477-69.2871L63.1348-69.2871Q64.1602-69.2871 64.6729-68.7744Q65.1855-68.2617 65.1855-67.2363L65.1855-3.22266Q65.1855-2.19727 64.6729-1.68457Q64.1602-1.17188 63.1348-1.17188L18.8477-1.17188Q17.8223-1.17188 17.3096-1.68457Q16.7969-2.19727 16.7969-3.22266ZM27.5879 2.14844L33.252 2.14844L33.252-10.9375Q33.252-12.0117 34.3262-12.0117L47.7051-12.0117Q48.7793-12.0117 48.7793-10.9375L48.7793 2.14844L54.3945 2.14844L54.3945-12.6465Q54.3945-15.2344 53.2471-16.4551Q52.0996-17.6758 49.6582-17.6758L32.3242-17.6758Q29.9316-17.6758 28.7598-16.4551Q27.5879-15.2344 27.5879-12.6465ZM28.2715-53.0273L35.4004-53.0273Q37.0605-53.0273 37.0605-54.7363L37.0605-61.6211Q37.0605-63.2812 35.4004-63.2812L28.2715-63.2812Q26.6602-63.2812 26.6602-61.6211L26.6602-54.7363Q26.6602-53.0273 28.2715-53.0273ZM46.582-53.0273L53.7109-53.0273Q55.3711-53.0273 55.3711-54.7363L55.3711-61.6211Q55.3711-63.2812 53.7109-63.2812L46.582-63.2812Q44.9219-63.2812 44.9219-61.6211L44.9219-54.7363Q44.9219-53.0273 46.582-53.0273ZM28.2715-38.3301L35.4004-38.3301Q37.0605-38.3301 37.0605-39.9902L37.0605-46.875Q37.0605-48.5352 35.4004-48.5352L28.2715-48.5352Q26.6602-48.5352 26.6602-46.875L26.6602-39.9902Q26.6602-38.3301 28.2715-38.3301ZM46.582-38.3301L53.7109-38.3301Q55.3711-38.3301 55.3711-39.9902L55.3711-46.875Q55.3711-48.5352 53.7109-48.5352L46.582-48.5352Q44.9219-48.5352 44.9219-46.875L44.9219-39.9902Q44.9219-38.3301 46.582-38.3301ZM28.2715-23.584L35.4004-23.584Q37.0605-23.584 37.0605-25.2441L37.0605-32.1289Q37.0605-33.8379 35.4004-33.8379L28.2715-33.8379Q26.6602-33.8379 26.6602-32.1289L26.6602-25.2441Q26.6602-23.584 28.2715-23.584ZM46.582-23.584L53.7109-23.584Q55.3711-23.584 55.3711-25.2441L55.3711-32.1289Q55.3711-33.8379 53.7109-33.8379L46.582-33.8379Q44.9219-33.8379 44.9219-32.1289L44.9219-25.2441Q44.9219-23.584 46.582-23.584Z"/>
  </g>
  <g id="Light-S" transform="matrix(1 0 0 1 1113.56 696)">
   <path d="M9.76562-1.26953Q9.76562 1.80664 11.377 3.56445Q12.9883 5.32227 15.8691 5.32227L63.3301 5.32227Q66.1133 5.32227 67.749 3.56445Q69.3848 1.80664 69.3848-1.26953L69.3848-69.1406Q69.3848-72.2168 67.749-73.9746Q66.1133-75.7324 63.3301-75.7324L15.8691-75.7324Q12.9883-75.7324 11.377-73.9746Q9.76562-72.2168 9.76562-69.1406ZM15.1855-2.44141L15.1855-67.9688Q15.1855-69.1895 15.7471-69.751Q16.3086-70.3125 17.5293-70.3125L61.6211-70.3125Q62.793-70.3125 63.3545-69.751Q63.916-69.1895 63.916-67.9688L63.916-2.44141Q63.916-1.2207 63.3545-0.65918Q62.793-0.0976562 61.6211-0.0976562L17.5293-0.0976562Q16.3086-0.0976562 15.7471-0.65918Q15.1855-1.2207 15.1855-2.44141ZM26.3184 2.49023L30.8105 2.49023L30.8105-10.0586Q30.8105-11.4258 32.1777-11.4258L47.0215-11.4258Q48.3398-11.4258 48.3398-10.0586L48.3398 2.49023L52.832 2.49023L52.832-11.2305Q52.832-13.623 51.7334-14.7705Q50.6348-15.918 48.3398-15.918L30.8105-15.918Q28.5156-15.918 27.417-14.7705Q26.3184-13.623 26.3184-11.2305ZM26.9043-53.125L34.6191-53.125Q36.084-53.125 36.084-54.6387L36.084-62.1582Q36.084-63.623 34.6191-63.623L26.9043-63.623Q25.4883-63.623 25.4883-62.1582L25.4883-54.6387Q25.4883-53.125 26.9043-53.125ZM44.5312-53.125L52.1973-53.125Q53.6621-53.125 53.6621-54.6387L53.6621-62.1582Q53.6621-63.623 52.1973-63.623L44.5312-63.623Q43.0664-63.623 43.0664-62.1582L43.0664-54.6387Q43.0664-53.125 44.5312-53.125ZM26.9043-37.6953L34.6191-37.6953Q36.084-37.6953 36.084-39.1602L36.084-46.6309Q36.084-48.0957 34.6191-48.0957L26.9043-48.0957Q25.4883-48.0957 25.4883-46.6309L25.4883-39.1602Q25.4883-37.6953 26.9043-37.6953ZM44.5312-37.6953L52.1973-37.6953Q53.6621-37.6953 53.6621-39.1602L53.6621-46.6309Q53.6621-48.0957 52.1973-48.0957L44.5312-48.0957Q43.0664-48.0957 43.0664-46.6309L43.0664-39.1602Q43.0664-37.6953 44.5312-37.6953ZM26.9043-22.168L34.6191-22.168Q36.084-22.168 36.084-23.6816L36.084-31.1523Q36.084-32.666 34.6191-32.666L26.9043-32.666Q25.4883-32.666 25.4883-31.1523L25.4883-23.6816Q25.4883-22.168 26.9043-22.168ZM44.5312-22.168L52.1973-22.168Q53.6621-22.168 53.6621-23.6816L53.6621-31.1523Q53.6621-32.666 52.1973-32.666L44.5312-32.666Q43.0664-32.666 43.0664-31.1523L43.0664-23.6816Q43.0664-22.168 44.5312-22.168Z"/>
  </g>
  <g id="Thin-S" transform="matrix(1 0 0 1 818.751 696)">
   <path d="M9.76562-0.927734Q9.76562 1.75781 11.1084 3.17383Q12.4512 4.58984 15.0879 4.58984L60.2539 4.58984Q62.8418 4.58984 64.209 3.17383Q65.5762 1.75781 65.5762-0.927734L65.5762-69.3848Q65.5762-72.1191 64.209-73.5352Q62.8418-74.9512 60.2539-74.9512L15.0879-74.9512Q12.4512-74.9512 11.1084-73.5352Q9.76562-72.1191 9.76562-69.3848ZM13.0859-1.41602L13.0859-68.9453Q13.0859-70.4102 13.6963-71.0205Q14.3066-71.6309 15.7715-71.6309L59.5703-71.6309Q61.0352-71.6309 61.6455-71.0205Q62.2559-70.4102 62.2559-68.9453L62.2559-1.41602Q62.2559 0.0488281 61.6455 0.683594Q61.0352 1.31836 59.5703 1.31836L15.7715 1.31836Q14.3066 1.31836 13.6963 0.683594Q13.0859 0.0488281 13.0859-1.41602ZM24.6582 2.88086L27.5391 2.88086L27.5391-8.93555Q27.5391-10.6445 29.2969-10.6445L46.0938-10.6445Q47.8027-10.6445 47.8027-8.93555L47.8027 2.88086L50.7324 2.88086L50.7324-9.375Q50.7324-11.5234 49.7314-12.5488Q48.7305-13.5742 46.582-13.5742L28.7598-13.5742Q26.6602-13.5742 25.6592-12.5488Q24.6582-11.5234 24.6582-9.375ZM25.0977-53.2715L33.5449-53.2715Q34.7168-53.2715 34.7168-54.541L34.7168-62.793Q34.7168-64.0137 33.5449-64.0137L25.0977-64.0137Q23.9258-64.0137 23.9258-62.793L23.9258-54.541Q23.9258-53.2715 25.0977-53.2715ZM41.7969-53.2715L50.2441-53.2715Q51.416-53.2715 51.416-54.541L51.416-62.793Q51.416-64.0137 50.2441-64.0137L41.7969-64.0137Q40.5762-64.0137 40.5762-62.793L40.5762-54.541Q40.5762-53.2715 41.7969-53.2715ZM25.0977-36.8164L33.5449-36.8164Q34.7168-36.8164 34.7168-38.0371L34.7168-46.3379Q34.7168-47.5586 33.5449-47.5586L25.0977-47.5586Q23.9258-47.5586 23.9258-46.3379L23.9258-38.0371Q23.9258-36.8164 25.0977-36.8164ZM41.7969-36.8164L50.2441-36.8164Q51.416-36.8164 51.416-38.0371L51.416-46.3379Q51.416-47.5586 50.2441-47.5586L41.7969-47.5586Q40.5762-47.5586 40.5762-46.3379L40.5762-38.0371Q40.5762-36.8164 41.7969-36.8164ZM25.0977-20.3613L33.5449-20.3613Q34.7168-20.3613 34.7168-21.582L34.7168-29.8828Q34.7168-31.1035 33.5449-31.1035L25.0977-31.1035Q23.9258-31.1035 23.9258-29.8828L23.9258-21.582Q23.9258-20.3613 25.0977-20.3613ZM41.7969-20.3613L50.2441-20.3613Q51.416-20.3613 51.416-21.582L51.416-29.8828Q51.416-31.1035 50.2441-31.1035L41.7969-31.1035Q40.5762-31.1035 40.5762-29.8828L40.5762-21.582Q40.5762-20.3613 41.7969-20.3613Z"/>
  </g>
  <g id="Ultralight-S" transform="matrix(1 0 0 1 523.017 696)">
   <path d="M9.76562-0.78125Q9.76562 1.75781 10.9863 3.00293Q12.207 4.24805 14.7461 4.24805L58.6914 4.24805Q61.1328 4.24805 62.3779 3.00293Q63.623 1.75781 63.623-0.78125L63.623-69.5312Q63.623-72.0703 62.3779-73.3154Q61.1328-74.5605 58.6914-74.5605L14.7461-74.5605Q12.207-74.5605 10.9863-73.3154Q9.76562-72.0703 9.76562-69.5312ZM11.9629-0.878906L11.9629-69.4824Q11.9629-71.0449 12.6221-71.6797Q13.2812-72.3145 14.8438-72.3145L58.5449-72.3145Q60.1074-72.3145 60.7666-71.6797Q61.4258-71.0449 61.4258-69.4824L61.4258-0.878906Q61.4258 0.732422 60.7666 1.3916Q60.1074 2.05078 58.5449 2.05078L14.8438 2.05078Q13.2812 2.05078 12.6221 1.3916Q11.9629 0.732422 11.9629-0.878906ZM23.7793 3.125L25.8789 3.125L25.8789-8.34961Q25.8789-10.2539 27.832-10.2539L45.6055-10.2539Q47.5098-10.2539 47.5098-8.34961L47.5098 3.125L49.6582 3.125L49.6582-8.44727Q49.6582-10.4492 48.7061-11.4014Q47.7539-12.3535 45.7031-12.3535L27.7344-12.3535Q25.7324-12.3535 24.7559-11.4014Q23.7793-10.4492 23.7793-8.44727ZM24.1699-53.3691L33.0078-53.3691Q34.082-53.3691 34.082-54.4434L34.082-63.1836Q34.082-64.2578 33.0078-64.2578L24.1699-64.2578Q23.0957-64.2578 23.0957-63.1836L23.0957-54.4434Q23.0957-53.3691 24.1699-53.3691ZM40.4297-53.3691L49.2188-53.3691Q50.293-53.3691 50.293-54.4434L50.293-63.1836Q50.293-64.2578 49.2188-64.2578L40.4297-64.2578Q39.3555-64.2578 39.3555-63.1836L39.3555-54.4434Q39.3555-53.3691 40.4297-53.3691ZM24.1699-36.377L33.0078-36.377Q34.082-36.377 34.082-37.5L34.082-46.1914Q34.082-47.2656 33.0078-47.2656L24.1699-47.2656Q23.0957-47.2656 23.0957-46.1914L23.0957-37.5Q23.0957-36.377 24.1699-36.377ZM40.4297-36.377L49.2188-36.377Q50.293-36.377 50.293-37.5L50.293-46.1914Q50.293-47.2656 49.2188-47.2656L40.4297-47.2656Q39.3555-47.2656 39.3555-46.1914L39.3555-37.5Q39.3555-36.377 40.4297-36.377ZM24.1699-19.3848L33.0078-19.3848Q34.082-19.3848 34.082-20.5078L34.082-29.1992Q34.082-30.2734 33.0078-30.2734L24.1699-30.2734Q23.0957-30.2734 23.0957-29.1992L23.0957-20.5078Q23.0957-19.3848 24.1699-19.3848ZM40.4297-19.3848L49.2188-19.3848Q50.293-19.3848 50.293-20.5078L50.293-29.1992Q50.293-30.2734 49.2188-30.2734L40.4297-30.2734Q39.3555-30.2734 39.3555-29.1992L39.3555-20.5078Q39.3555-19.3848 40.4297-19.3848Z"/>
  </g>
 </g>
</svg>
