<?xml version="1.0" encoding="UTF-8"?>
<!--Generator: Apple Native CoreSVG 175-->
<!DOCTYPE svg
PUBLIC "-//W3C//DTD SVG 1.1//EN"
       "http://www.w3.org/Graphics/SVG/1.1/DTD/svg11.dtd">
<svg version="1.1" xmlns="http://www.w3.org/2000/svg" xmlns:xlink="http://www.w3.org/1999/xlink" width="3300" height="2200">
 <!--glyph: "uni100D1B.medium", point size: 100.0, font version: "17.0d12e1", template writer version: "65.1"-->
 <style>.hierarchical-0:tertiary {fill:#8E8E8E}
.hierarchical-1:primary {fill:#212121}

.SFSymbolsPreview212121 {fill:#212121;opacity:1.0}
.SFSymbolsPreview8E8E8E {fill:#8E8E8E;opacity:1.0}
</style>
 <g id="Notes">
  <rect height="2200" id="artboard" style="fill:white;opacity:1" width="3300" x="0" y="0"/>
  <line style="fill:none;stroke:black;opacity:1;stroke-width:0.5;" x1="263" x2="3036" y1="292" y2="292"/>
  <text style="stroke:none;fill:black;font-family:sans-serif;font-size:13;font-weight:bold;" transform="matrix(1 0 0 1 263 322)">Weight/Scale Variations</text>
  <text style="stroke:none;fill:black;font-family:sans-serif;font-size:13;text-anchor:middle;" transform="matrix(1 0 0 1 559.711 322)">Ultralight</text>
  <text style="stroke:none;fill:black;font-family:sans-serif;font-size:13;text-anchor:middle;" transform="matrix(1 0 0 1 856.422 322)">Thin</text>
  <text style="stroke:none;fill:black;font-family:sans-serif;font-size:13;text-anchor:middle;" transform="matrix(1 0 0 1 1153.13 322)">Light</text>
  <text style="stroke:none;fill:black;font-family:sans-serif;font-size:13;text-anchor:middle;" transform="matrix(1 0 0 1 1449.84 322)">Regular</text>
  <text style="stroke:none;fill:black;font-family:sans-serif;font-size:13;text-anchor:middle;" transform="matrix(1 0 0 1 1746.56 322)">Medium</text>
  <text style="stroke:none;fill:black;font-family:sans-serif;font-size:13;text-anchor:middle;" transform="matrix(1 0 0 1 2043.27 322)">Semibold</text>
  <text style="stroke:none;fill:black;font-family:sans-serif;font-size:13;text-anchor:middle;" transform="matrix(1 0 0 1 2339.98 322)">Bold</text>
  <text style="stroke:none;fill:black;font-family:sans-serif;font-size:13;text-anchor:middle;" transform="matrix(1 0 0 1 2636.69 322)">Heavy</text>
  <text style="stroke:none;fill:black;font-family:sans-serif;font-size:13;text-anchor:middle;" transform="matrix(1 0 0 1 2933.4 322)">Black</text>
  <line style="fill:none;stroke:black;opacity:1;stroke-width:0.5;" x1="263" x2="3036" y1="1903" y2="1903"/>
  <g transform="matrix(1 0 0 1 263 1933)">
   <path d="M9.24805 0.830078Q10.8691 0.830078 12.2949 0.214844Q13.7207-0.400391 14.8096-1.49414Q15.8984-2.58789 16.5186-4.01367Q17.1387-5.43945 17.1387-7.05078Q17.1387-8.66211 16.5186-10.0879Q15.8984-11.5137 14.8047-12.6074Q13.7109-13.7012 12.2852-14.3164Q10.8594-14.9316 9.23828-14.9316Q7.62695-14.9316 6.20117-14.3164Q4.77539-13.7012 3.69141-12.6074Q2.60742-11.5137 1.9873-10.0879Q1.36719-8.66211 1.36719-7.05078Q1.36719-5.43945 1.9873-4.01367Q2.60742-2.58789 3.69629-1.49414Q4.78516-0.400391 6.21094 0.214844Q7.63672 0.830078 9.24805 0.830078ZM9.24805-0.654297Q7.91992-0.654297 6.7627-1.14746Q5.60547-1.64062 4.73145-2.51953Q3.85742-3.39844 3.36426-4.56055Q2.87109-5.72266 2.87109-7.05078Q2.87109-8.37891 3.35938-9.54102Q3.84766-10.7031 4.72168-11.582Q5.5957-12.4609 6.75293-12.9541Q7.91016-13.4473 9.23828-13.4473Q10.5762-13.4473 11.7334-12.9541Q12.8906-12.4609 13.7695-11.582Q14.6484-10.7031 15.1465-9.54102Q15.6445-8.37891 15.6445-7.05078Q15.6445-5.72266 15.1514-4.56055Q14.6582-3.39844 13.7842-2.51953Q12.9102-1.64062 11.748-1.14746Q10.5859-0.654297 9.24805-0.654297ZM5.6543-7.05078Q5.6543-6.72852 5.85938-6.52832Q6.06445-6.32812 6.40625-6.32812L8.51562-6.32812L8.51562-4.20898Q8.51562-3.88672 8.71094-3.67676Q8.90625-3.4668 9.23828-3.4668Q9.56055-3.4668 9.77051-3.67676Q9.98047-3.88672 9.98047-4.20898L9.98047-6.32812L12.0898-6.32812Q12.4219-6.32812 12.627-6.52832Q12.832-6.72852 12.832-7.05078Q12.832-7.38281 12.627-7.58789Q12.4219-7.79297 12.0898-7.79297L9.98047-7.79297L9.98047-9.90234Q9.98047-10.2344 9.77051-10.4443Q9.56055-10.6543 9.23828-10.6543Q8.90625-10.6543 8.71094-10.4443Q8.51562-10.2344 8.51562-9.90234L8.51562-7.79297L6.40625-7.79297Q6.06445-7.79297 5.85938-7.58789Q5.6543-7.38281 5.6543-7.05078Z"/>
  </g>
  <g transform="matrix(1 0 0 1 281.867 1933)">
   <path d="M11.709 2.91016Q13.75 2.91016 15.5518 2.12891Q17.3535 1.34766 18.7305-0.0292969Q20.1074-1.40625 20.8887-3.20801Q21.6699-5.00977 21.6699-7.05078Q21.6699-9.0918 20.8887-10.8936Q20.1074-12.6953 18.7305-14.0723Q17.3535-15.4492 15.5469-16.2305Q13.7402-17.0117 11.6992-17.0117Q9.6582-17.0117 7.85645-16.2305Q6.05469-15.4492 4.68262-14.0723Q3.31055-12.6953 2.5293-10.8936Q1.74805-9.0918 1.74805-7.05078Q1.74805-5.00977 2.5293-3.20801Q3.31055-1.40625 4.6875-0.0292969Q6.06445 1.34766 7.86621 2.12891Q9.66797 2.91016 11.709 2.91016ZM11.709 1.25Q9.98047 1.25 8.47656 0.605469Q6.97266-0.0390625 5.83496-1.17676Q4.69727-2.31445 4.05762-3.81836Q3.41797-5.32227 3.41797-7.05078Q3.41797-8.7793 4.05762-10.2832Q4.69727-11.7871 5.83008-12.9297Q6.96289-14.0723 8.4668-14.7119Q9.9707-15.3516 11.6992-15.3516Q13.4277-15.3516 14.9316-14.7119Q16.4355-14.0723 17.5781-12.9297Q18.7207-11.7871 19.3652-10.2832Q20.0098-8.7793 20.0098-7.05078Q20.0098-5.32227 19.3701-3.81836Q18.7305-2.31445 17.5928-1.17676Q16.4551-0.0390625 14.9463 0.605469Q13.4375 1.25 11.709 1.25ZM7.17773-7.05078Q7.17773-6.69922 7.41211-6.47461Q7.64648-6.25 8.01758-6.25L10.8887-6.25L10.8887-3.36914Q10.8887-2.99805 11.1133-2.76855Q11.3379-2.53906 11.6895-2.53906Q12.0605-2.53906 12.29-2.76855Q12.5195-2.99805 12.5195-3.36914L12.5195-6.25L15.4004-6.25Q15.7715-6.25 16.001-6.47461Q16.2305-6.69922 16.2305-7.05078Q16.2305-7.42188 16.001-7.65137Q15.7715-7.88086 15.4004-7.88086L12.5195-7.88086L12.5195-10.752Q12.5195-11.1328 12.29-11.3623Q12.0605-11.5918 11.6895-11.5918Q11.3379-11.5918 11.1133-11.3574Q10.8887-11.123 10.8887-10.752L10.8887-7.88086L8.01758-7.88086Q7.63672-7.88086 7.40723-7.65137Q7.17773-7.42188 7.17773-7.05078Z"/>
  </g>
  <g transform="matrix(1 0 0 1 305.646 1933)">
   <path d="M14.9707 5.66406Q17.0605 5.66406 18.96 5.01465Q20.8594 4.36523 22.4512 3.19336Q24.043 2.02148 25.2197 0.429688Q26.3965-1.16211 27.0459-3.06641Q27.6953-4.9707 27.6953-7.05078Q27.6953-9.14062 27.0459-11.04Q26.3965-12.9395 25.2197-14.5312Q24.043-16.123 22.4512-17.2998Q20.8594-18.4766 18.9551-19.126Q17.0508-19.7754 14.9609-19.7754Q12.8711-19.7754 10.9717-19.126Q9.07227-18.4766 7.48535-17.2998Q5.89844-16.123 4.72168-14.5312Q3.54492-12.9395 2.90039-11.04Q2.25586-9.14062 2.25586-7.05078Q2.25586-4.9707 2.90527-3.06641Q3.55469-1.16211 4.72656 0.429688Q5.89844 2.02148 7.49023 3.19336Q9.08203 4.36523 10.9814 5.01465Q12.8809 5.66406 14.9707 5.66406ZM14.9707 3.84766Q13.1641 3.84766 11.5283 3.2959Q9.89258 2.74414 8.53516 1.74805Q7.17773 0.751953 6.17676-0.610352Q5.17578-1.97266 4.62891-3.6084Q4.08203-5.24414 4.08203-7.05078Q4.08203-8.86719 4.62891-10.5029Q5.17578-12.1387 6.17188-13.501Q7.16797-14.8633 8.52539-15.8594Q9.88281-16.8555 11.5186-17.4023Q13.1543-17.9492 14.9609-17.9492Q16.7773-17.9492 18.4131-17.4023Q20.0488-16.8555 21.4111-15.8594Q22.7734-14.8633 23.7695-13.501Q24.7656-12.1387 25.3174-10.5029Q25.8691-8.86719 25.8691-7.05078Q25.8789-5.24414 25.332-3.6084Q24.7852-1.97266 23.7842-0.610352Q22.7832 0.751953 21.4209 1.74805Q20.0586 2.74414 18.4229 3.2959Q16.7871 3.84766 14.9707 3.84766ZM9.19922-7.05078Q9.19922-6.66992 9.45801-6.4209Q9.7168-6.17188 10.1172-6.17188L14.0625-6.17188L14.0625-2.2168Q14.0625-1.81641 14.3115-1.55762Q14.5605-1.29883 14.9512-1.29883Q15.3516-1.29883 15.6104-1.55273Q15.8691-1.80664 15.8691-2.2168L15.8691-6.17188L19.8242-6.17188Q20.2246-6.17188 20.4785-6.4209Q20.7324-6.66992 20.7324-7.05078Q20.7324-7.46094 20.4785-7.71484Q20.2246-7.96875 19.8242-7.96875L15.8691-7.96875L15.8691-11.9141Q15.8691-12.3242 15.6104-12.583Q15.3516-12.8418 14.9512-12.8418Q14.5605-12.8418 14.3115-12.583Q14.0625-12.3242 14.0625-11.9141L14.0625-7.96875L10.1172-7.96875Q9.70703-7.96875 9.45312-7.71484Q9.19922-7.46094 9.19922-7.05078Z"/>
  </g>
  <text style="stroke:none;fill:black;font-family:sans-serif;font-size:13;font-weight:bold;" transform="matrix(1 0 0 1 263 1953)">Design Variations</text>
  <text style="stroke:none;fill:black;font-family:sans-serif;font-size:13;" transform="matrix(1 0 0 1 263 1971)">Symbols are supported in up to nine weights and three scales.</text>
  <text style="stroke:none;fill:black;font-family:sans-serif;font-size:13;" transform="matrix(1 0 0 1 263 1989)">For optimal layout with text and other symbols, vertically align</text>
  <text style="stroke:none;fill:black;font-family:sans-serif;font-size:13;" transform="matrix(1 0 0 1 263 2007)">symbols with the adjacent text.</text>
  <line style="fill:none;stroke:#00AEEF;stroke-width:0.5;opacity:1.0;" x1="776" x2="776" y1="1919" y2="1933"/>
  <g transform="matrix(1 0 0 1 776 1933)">
   <path d="M3.31055 0.15625Q3.70117 0.15625 3.91602-0.00976562Q4.13086-0.175781 4.26758-0.585938L5.52734-4.0332L11.2891-4.0332L12.5488-0.585938Q12.6855-0.175781 12.9004-0.00976562Q13.1152 0.15625 13.4961 0.15625Q13.8867 0.15625 14.1162-0.0585938Q14.3457-0.273438 14.3457-0.644531Q14.3457-0.869141 14.2383-1.17188L9.6582-13.3691Q9.48242-13.8184 9.17969-14.043Q8.87695-14.2676 8.4082-14.2676Q7.5-14.2676 7.17773-13.3789L2.59766-1.16211Q2.49023-0.859375 2.49023-0.634766Q2.49023-0.263672 2.70996-0.0537109Q2.92969 0.15625 3.31055 0.15625ZM6.00586-5.51758L8.37891-12.0898L8.42773-12.0898L10.8008-5.51758Z"/>
  </g>
  <line style="fill:none;stroke:#00AEEF;stroke-width:0.5;opacity:1.0;" x1="793.197" x2="793.197" y1="1919" y2="1933"/>
  <text style="stroke:none;fill:black;font-family:sans-serif;font-size:13;font-weight:bold;" transform="matrix(1 0 0 1 776 1953)">Margins</text>
  <text style="stroke:none;fill:black;font-family:sans-serif;font-size:13;" transform="matrix(1 0 0 1 776 1971)">Leading and trailing margins on the left and right side of each symbol</text>
  <text style="stroke:none;fill:black;font-family:sans-serif;font-size:13;" transform="matrix(1 0 0 1 776 1989)">can be adjusted by modifying the x-location of the margin guidelines.</text>
  <text style="stroke:none;fill:black;font-family:sans-serif;font-size:13;" transform="matrix(1 0 0 1 776 2007)">Modifications are automatically applied proportionally to all</text>
  <text style="stroke:none;fill:black;font-family:sans-serif;font-size:13;" transform="matrix(1 0 0 1 776 2025)">scales and weights.</text>
  <g transform="matrix(1 0 0 1 1289 1933)">
   <path d="M2.8418 1.86523L4.54102 3.57422Q5.18555 4.22852 5.90332 4.17969Q6.62109 4.13086 7.31445 3.35938L18.0078-8.42773L17.041-9.4043L6.42578 2.27539Q6.16211 2.57812 5.89355 2.61719Q5.625 2.65625 5.27344 2.30469L4.10156 1.14258Q3.75 0.791016 3.79395 0.522461Q3.83789 0.253906 4.14062-0.0195312L15.6152-10.8203L14.6387-11.7871L3.04688-0.898438Q2.30469-0.214844 2.25098 0.498047Q2.19727 1.21094 2.8418 1.86523ZM9.25781-16.3281Q8.94531-16.0254 8.90625-15.6348Q8.86719-15.2441 9.04297-14.9512Q9.21875-14.6777 9.55566-14.541Q9.89258-14.4043 10.3809-14.5215Q11.4746-14.7754 12.5977-14.7314Q13.7207-14.6875 14.7949-13.9844L14.209-12.5293Q13.9551-11.9043 14.0674-11.4404Q14.1797-10.9766 14.5801-10.5664L16.875-8.25195Q17.2363-7.88086 17.5781-7.82227Q17.9199-7.76367 18.3398-7.8418L19.4043-8.03711L20.0684-7.36328L20.0293-6.80664Q20-6.43555 20.1221-6.12305Q20.2441-5.81055 20.6055-5.44922L21.3672-4.70703Q21.7285-4.3457 22.1533-4.33105Q22.5781-4.31641 22.9297-4.66797L25.8398-7.58789Q26.1914-7.93945 26.1816-8.35449Q26.1719-8.76953 25.8105-9.13086L25.0391-9.89258Q24.6875-10.2539 24.3799-10.3857Q24.0723-10.5176 23.7109-10.4883L23.1348-10.4395L22.4902-11.0742L22.7344-12.1973Q22.832-12.6172 22.6953-12.9834Q22.5586-13.3496 22.1191-13.7891L19.9219-15.9766Q18.6719-17.2168 17.2607-17.8369Q15.8496-18.457 14.4189-18.4814Q12.9883-18.5059 11.665-17.959Q10.3418-17.4121 9.25781-16.3281ZM10.752-15.957Q11.6602-16.6211 12.7002-16.9043Q13.7402-17.1875 14.8047-17.085Q15.8691-16.9824 16.8701-16.5137Q17.8711-16.0449 18.7012-15.2051L21.1328-12.793Q21.3086-12.6172 21.3525-12.4512Q21.3965-12.2852 21.3379-12.0312L21.0156-10.5469L22.5195-9.0625L23.5059-9.12109Q23.6914-9.13086 23.7891-9.09668Q23.8867-9.0625 24.0332-8.91602L24.6094-8.33984L22.168-5.89844L21.5918-6.47461Q21.4453-6.62109 21.4062-6.71875Q21.3672-6.81641 21.377-7.01172L21.4453-7.98828L19.9512-9.47266L18.4277-9.21875Q18.1836-9.16992 18.042-9.2041Q17.9004-9.23828 17.7148-9.41406L15.7129-11.416Q15.5176-11.5918 15.4932-11.7529Q15.4688-11.9141 15.5859-12.1875L16.4648-14.2773Q15.293-15.3711 13.8281-15.791Q12.3633-16.2109 10.8398-15.7617Q10.7227-15.7324 10.6885-15.8057Q10.6543-15.8789 10.752-15.957Z"/>
  </g>
  <text style="stroke:none;fill:black;font-family:sans-serif;font-size:13;font-weight:bold;" transform="matrix(1 0 0 1 1289 1953)">Exporting</text>
  <text style="stroke:none;fill:black;font-family:sans-serif;font-size:13;" transform="matrix(1 0 0 1 1289 1971)">Symbols should be outlined when exporting to ensure the</text>
  <text style="stroke:none;fill:black;font-family:sans-serif;font-size:13;" transform="matrix(1 0 0 1 1289 1989)">design is preserved when submitting to Xcode.</text>
  <text id="template-version" style="stroke:none;fill:black;font-family:sans-serif;font-size:13;text-anchor:end;" transform="matrix(1 0 0 1 3036 1933)">Template v.3.0</text>
  <text style="stroke:none;fill:black;font-family:sans-serif;font-size:13;text-anchor:end;" transform="matrix(1 0 0 1 3036 1951)">Requires Xcode 13 or greater</text>
  <text id="descriptive-name" style="stroke:none;fill:black;font-family:sans-serif;font-size:13;text-anchor:end;" transform="matrix(1 0 0 1 3036 1969)">Generated from chart.line.uptrend.xyaxis.circle.fill</text>
  <text style="stroke:none;fill:black;font-family:sans-serif;font-size:13;text-anchor:end;" transform="matrix(1 0 0 1 3036 1987)">Typeset at 100 points</text>
  <text style="stroke:none;fill:black;font-family:sans-serif;font-size:13;" transform="matrix(1 0 0 1 263 726)">Small</text>
  <text style="stroke:none;fill:black;font-family:sans-serif;font-size:13;" transform="matrix(1 0 0 1 263 1156)">Medium</text>
  <text style="stroke:none;fill:black;font-family:sans-serif;font-size:13;" transform="matrix(1 0 0 1 263 1586)">Large</text>
 </g>
 <g id="Guides">
  <g id="H-reference" style="fill:#27AAE1;stroke:none;" transform="matrix(1 0 0 1 339 696)">
   <path d="M0.976562 0L3.66211 0L29.3457-67.1387L30.0293-67.1387L30.0293-70.459L28.125-70.459ZM11.6699-24.4629L46.9727-24.4629L46.2402-26.709L12.4512-26.709ZM55.127 0L57.7637 0L30.6152-70.459L29.4434-70.459L29.4434-67.1387Z"/>
  </g>
  <line id="Baseline-S" style="fill:none;stroke:#27AAE1;opacity:1;stroke-width:0.5;" x1="263" x2="3036" y1="696" y2="696"/>
  <line id="Capline-S" style="fill:none;stroke:#27AAE1;opacity:1;stroke-width:0.5;" x1="263" x2="3036" y1="625.541" y2="625.541"/>
  <g id="H-reference" style="fill:#27AAE1;stroke:none;" transform="matrix(1 0 0 1 339 1126)">
   <path d="M0.976562 0L3.66211 0L29.3457-67.1387L30.0293-67.1387L30.0293-70.459L28.125-70.459ZM11.6699-24.4629L46.9727-24.4629L46.2402-26.709L12.4512-26.709ZM55.127 0L57.7637 0L30.6152-70.459L29.4434-70.459L29.4434-67.1387Z"/>
  </g>
  <line id="Baseline-M" style="fill:none;stroke:#27AAE1;opacity:1;stroke-width:0.5;" x1="263" x2="3036" y1="1126" y2="1126"/>
  <line id="Capline-M" style="fill:none;stroke:#27AAE1;opacity:1;stroke-width:0.5;" x1="263" x2="3036" y1="1055.54" y2="1055.54"/>
  <g id="H-reference" style="fill:#27AAE1;stroke:none;" transform="matrix(1 0 0 1 339 1556)">
   <path d="M0.976562 0L3.66211 0L29.3457-67.1387L30.0293-67.1387L30.0293-70.459L28.125-70.459ZM11.6699-24.4629L46.9727-24.4629L46.2402-26.709L12.4512-26.709ZM55.127 0L57.7637 0L30.6152-70.459L29.4434-70.459L29.4434-67.1387Z"/>
  </g>
  <line id="Baseline-L" style="fill:none;stroke:#27AAE1;opacity:1;stroke-width:0.5;" x1="263" x2="3036" y1="1556" y2="1556"/>
  <line id="Capline-L" style="fill:none;stroke:#27AAE1;opacity:1;stroke-width:0.5;" x1="263" x2="3036" y1="1485.54" y2="1485.54"/>
  <line id="left-margin-Ultralight-S" style="fill:none;stroke:#00AEEF;stroke-width:0.5;opacity:1.0;" x1="515.644" x2="515.644" y1="600.785" y2="720.121"/>
  <line id="right-margin-Ultralight-S" style="fill:none;stroke:#00AEEF;stroke-width:0.5;opacity:1.0;" x1="603.778" x2="603.778" y1="600.785" y2="720.121"/>
  <line id="left-margin-Thin-S" style="fill:none;stroke:#00AEEF;stroke-width:0.5;opacity:1.0;" x1="811.867" x2="811.867" y1="600.785" y2="720.121"/>
  <line id="right-margin-Thin-S" style="fill:none;stroke:#00AEEF;stroke-width:0.5;opacity:1.0;" x1="900.978" x2="900.978" y1="600.785" y2="720.121"/>
  <line id="left-margin-Light-S" style="fill:none;stroke:#00AEEF;stroke-width:0.5;opacity:1.0;" x1="1107.6" x2="1107.6" y1="600.785" y2="720.121"/>
  <line id="right-margin-Light-S" style="fill:none;stroke:#00AEEF;stroke-width:0.5;opacity:1.0;" x1="1198.67" x2="1198.67" y1="600.785" y2="720.121"/>
  <line id="left-margin-Regular-S" style="fill:none;stroke:#00AEEF;stroke-width:0.5;opacity:1.0;" x1="1403.58" x2="1403.58" y1="600.785" y2="720.121"/>
  <line id="right-margin-Regular-S" style="fill:none;stroke:#00AEEF;stroke-width:0.5;opacity:1.0;" x1="1496.11" x2="1496.11" y1="600.785" y2="720.121"/>
  <line id="left-margin-Medium-S" style="fill:none;stroke:#00AEEF;stroke-width:0.5;opacity:1.0;" x1="1699.83" x2="1699.83" y1="600.785" y2="720.121"/>
  <line id="right-margin-Medium-S" style="fill:none;stroke:#00AEEF;stroke-width:0.5;opacity:1.0;" x1="1793.28" x2="1793.28" y1="600.785" y2="720.121"/>
  <line id="left-margin-Semibold-S" style="fill:none;stroke:#00AEEF;stroke-width:0.5;opacity:1.0;" x1="1996.2" x2="1996.2" y1="600.785" y2="720.121"/>
  <line id="right-margin-Semibold-S" style="fill:none;stroke:#00AEEF;stroke-width:0.5;opacity:1.0;" x1="2090.34" x2="2090.34" y1="600.785" y2="720.121"/>
  <line id="left-margin-Bold-S" style="fill:none;stroke:#00AEEF;stroke-width:0.5;opacity:1.0;" x1="2292.42" x2="2292.42" y1="600.785" y2="720.121"/>
  <line id="right-margin-Bold-S" style="fill:none;stroke:#00AEEF;stroke-width:0.5;opacity:1.0;" x1="2387.54" x2="2387.54" y1="600.785" y2="720.121"/>
  <line id="left-margin-Heavy-S" style="fill:none;stroke:#00AEEF;stroke-width:0.5;opacity:1.0;" x1="2588.47" x2="2588.47" y1="600.785" y2="720.121"/>
  <line id="right-margin-Heavy-S" style="fill:none;stroke:#00AEEF;stroke-width:0.5;opacity:1.0;" x1="2684.91" x2="2684.91" y1="600.785" y2="720.121"/>
  <line id="left-margin-Black-S" style="fill:none;stroke:#00AEEF;stroke-width:0.5;opacity:1.0;" x1="2884.57" x2="2884.57" y1="600.785" y2="720.121"/>
  <line id="right-margin-Black-S" style="fill:none;stroke:#00AEEF;stroke-width:0.5;opacity:1.0;" x1="2982.23" x2="2982.23" y1="600.785" y2="720.121"/>
  <line id="left-margin-Ultralight-M" style="fill:none;stroke:#00AEEF;stroke-width:0.5;opacity:1.0;" x1="503.632" x2="503.632" y1="1030.79" y2="1150.12"/>
  <line id="right-margin-Ultralight-M" style="fill:none;stroke:#00AEEF;stroke-width:0.5;opacity:1.0;" x1="615.79" x2="615.79" y1="1030.79" y2="1150.12"/>
  <line id="left-margin-Thin-M" style="fill:none;stroke:#00AEEF;stroke-width:0.5;opacity:1.0;" x1="799.782" x2="799.782" y1="1030.79" y2="1150.12"/>
  <line id="right-margin-Thin-M" style="fill:none;stroke:#00AEEF;stroke-width:0.5;opacity:1.0;" x1="913.063" x2="913.063" y1="1030.79" y2="1150.12"/>
  <line id="left-margin-Light-M" style="fill:none;stroke:#00AEEF;stroke-width:0.5;opacity:1.0;" x1="1095.42" x2="1095.42" y1="1030.79" y2="1150.12"/>
  <line id="right-margin-Light-M" style="fill:none;stroke:#00AEEF;stroke-width:0.5;opacity:1.0;" x1="1210.85" x2="1210.85" y1="1030.79" y2="1150.12"/>
  <line id="left-margin-Regular-M" style="fill:none;stroke:#00AEEF;stroke-width:0.5;opacity:1.0;" x1="1391.3" x2="1391.3" y1="1030.79" y2="1150.12"/>
  <line id="right-margin-Regular-M" style="fill:none;stroke:#00AEEF;stroke-width:0.5;opacity:1.0;" x1="1508.39" x2="1508.39" y1="1030.79" y2="1150.12"/>
  <line id="left-margin-Medium-M" style="fill:none;stroke:#00AEEF;stroke-width:0.5;opacity:1.0;" x1="1687.38" x2="1687.38" y1="1030.79" y2="1150.12"/>
  <line id="right-margin-Medium-M" style="fill:none;stroke:#00AEEF;stroke-width:0.5;opacity:1.0;" x1="1805.74" x2="1805.74" y1="1030.79" y2="1150.12"/>
  <line id="left-margin-Semibold-M" style="fill:none;stroke:#00AEEF;stroke-width:0.5;opacity:1.0;" x1="1983.6" x2="1983.6" y1="1030.79" y2="1150.12"/>
  <line id="right-margin-Semibold-M" style="fill:none;stroke:#00AEEF;stroke-width:0.5;opacity:1.0;" x1="2102.93" x2="2102.93" y1="1030.79" y2="1150.12"/>
  <line id="left-margin-Bold-M" style="fill:none;stroke:#00AEEF;stroke-width:0.5;opacity:1.0;" x1="2279.65" x2="2279.65" y1="1030.79" y2="1150.12"/>
  <line id="right-margin-Bold-M" style="fill:none;stroke:#00AEEF;stroke-width:0.5;opacity:1.0;" x1="2400.3" x2="2400.3" y1="1030.79" y2="1150.12"/>
  <line id="left-margin-Heavy-M" style="fill:none;stroke:#00AEEF;stroke-width:0.5;opacity:1.0;" x1="2575.43" x2="2575.43" y1="1030.79" y2="1150.12"/>
  <line id="right-margin-Heavy-M" style="fill:none;stroke:#00AEEF;stroke-width:0.5;opacity:1.0;" x1="2697.94" x2="2697.94" y1="1030.79" y2="1150.12"/>
  <line id="left-margin-Black-M" style="fill:none;stroke:#00AEEF;stroke-width:0.5;opacity:1.0;" x1="2871.32" x2="2871.32" y1="1030.79" y2="1150.12"/>
  <line id="right-margin-Black-M" style="fill:none;stroke:#00AEEF;stroke-width:0.5;opacity:1.0;" x1="2995.48" x2="2995.48" y1="1030.79" y2="1150.12"/>
  <line id="left-margin-Ultralight-L" style="fill:none;stroke:#00AEEF;stroke-width:0.5;opacity:1.0;" x1="487.592" x2="487.592" y1="1460.79" y2="1580.12"/>
  <line id="right-margin-Ultralight-L" style="fill:none;stroke:#00AEEF;stroke-width:0.5;opacity:1.0;" x1="631.83" x2="631.83" y1="1460.79" y2="1580.12"/>
  <line id="left-margin-Thin-L" style="fill:none;stroke:#00AEEF;stroke-width:0.5;opacity:1.0;" x1="783.693" x2="783.693" y1="1460.79" y2="1580.12"/>
  <line id="right-margin-Thin-L" style="fill:none;stroke:#00AEEF;stroke-width:0.5;opacity:1.0;" x1="929.152" x2="929.152" y1="1460.79" y2="1580.12"/>
  <line id="left-margin-Light-L" style="fill:none;stroke:#00AEEF;stroke-width:0.5;opacity:1.0;" x1="1079.18" x2="1079.18" y1="1460.79" y2="1580.12"/>
  <line id="right-margin-Light-L" style="fill:none;stroke:#00AEEF;stroke-width:0.5;opacity:1.0;" x1="1227.08" x2="1227.08" y1="1460.79" y2="1580.12"/>
  <line id="left-margin-Regular-L" style="fill:none;stroke:#00AEEF;stroke-width:0.5;opacity:1.0;" x1="1374.97" x2="1374.97" y1="1460.79" y2="1580.12"/>
  <line id="right-margin-Regular-L" style="fill:none;stroke:#00AEEF;stroke-width:0.5;opacity:1.0;" x1="1524.72" x2="1524.72" y1="1460.79" y2="1580.12"/>
  <line id="left-margin-Medium-L" style="fill:none;stroke:#00AEEF;stroke-width:0.5;opacity:1.0;" x1="1670.87" x2="1670.87" y1="1460.79" y2="1580.12"/>
  <line id="right-margin-Medium-L" style="fill:none;stroke:#00AEEF;stroke-width:0.5;opacity:1.0;" x1="1822.24" x2="1822.24" y1="1460.79" y2="1580.12"/>
  <line id="left-margin-Semibold-L" style="fill:none;stroke:#00AEEF;stroke-width:0.5;opacity:1.0;" x1="1966.97" x2="1966.97" y1="1460.79" y2="1580.12"/>
  <line id="right-margin-Semibold-L" style="fill:none;stroke:#00AEEF;stroke-width:0.5;opacity:1.0;" x1="2119.56" x2="2119.56" y1="1460.79" y2="1580.12"/>
  <line id="left-margin-Bold-L" style="fill:none;stroke:#00AEEF;stroke-width:0.5;opacity:1.0;" x1="2262.85" x2="2262.85" y1="1460.79" y2="1580.12"/>
  <line id="right-margin-Bold-L" style="fill:none;stroke:#00AEEF;stroke-width:0.5;opacity:1.0;" x1="2417.1" x2="2417.1" y1="1460.79" y2="1580.12"/>
  <line id="left-margin-Heavy-L" style="fill:none;stroke:#00AEEF;stroke-width:0.5;opacity:1.0;" x1="2558.39" x2="2558.39" y1="1460.79" y2="1580.12"/>
  <line id="right-margin-Heavy-L" style="fill:none;stroke:#00AEEF;stroke-width:0.5;opacity:1.0;" x1="2714.98" x2="2714.98" y1="1460.79" y2="1580.12"/>
  <line id="left-margin-Black-L" style="fill:none;stroke:#00AEEF;stroke-width:0.5;opacity:1.0;" x1="2854.05" x2="2854.05" y1="1460.79" y2="1580.12"/>
  <line id="right-margin-Black-L" style="fill:none;stroke:#00AEEF;stroke-width:0.5;opacity:1.0;" x1="3012.75" x2="3012.75" y1="1460.79" y2="1580.12"/>
 </g>
 <g id="Symbols">
  <g id="Black-L" transform="matrix(1 0 0 1 2854.05 1556)">
   <path class="hierarchical-0:tertiary SFSymbolsPreview8E8E8E" d="M79.3457 32.959Q90.5762 32.959 100.757 29.4922Q110.938 26.0254 119.458 19.7754Q127.979 13.5254 134.229 5.00488Q140.479-3.51562 143.945-13.6963Q147.412-23.877 147.412-35.1074Q147.412-46.3379 143.945-56.5186Q140.479-66.6992 134.204-75.2197Q127.93-83.7402 119.434-90.0146Q110.938-96.2891 100.732-99.7314Q90.5273-103.174 79.2969-103.174Q68.1152-103.174 57.9102-99.7314Q47.7051-96.2891 39.209-90.0146Q30.7129-83.7402 24.4385-75.2197Q18.1641-66.6992 14.7217-56.5186Q11.2793-46.3379 11.2793-35.1074Q11.2793-23.877 14.7217-13.6963Q18.1641-3.51562 24.4385 5.00488Q30.7129 13.5254 39.2334 19.7754Q47.7539 26.0254 57.9346 29.4922Q68.1152 32.959 79.3457 32.959Z"/>
   <path class="hierarchical-1:primary SFSymbolsPreview212121" d="M44.6289-12.7441L44.6289-60.791Q44.6289-63.1836 46.2158-64.7949Q47.8027-66.4062 50.1465-66.4062Q52.4414-66.4062 54.0039-64.7949Q55.5664-63.1836 55.5664-60.791L55.5664-40.4785L60.9375-45.9961Q62.207-47.2656 63.5498-47.998Q64.8926-48.7305 66.4551-48.7305Q69.5312-48.7305 72.1191-45.9961L81.1523-36.2793Q81.3477-36.084 81.4941-36.3281L91.3086-46.4844L88.2812-49.4629Q86.5234-51.2207 87.2314-53.4668Q87.9395-55.7129 90.5273-56.3965L107.764-60.9863Q110.107-61.5723 111.865-59.8633Q113.623-58.1543 112.988-55.8105L108.301-38.5742Q107.617-36.0352 105.347-35.2783Q103.076-34.5215 101.367-36.2793L98.1934-39.5508L87.0117-28.0273Q84.1797-25.4395 81.2988-25.4395Q78.2715-25.4395 75.6348-28.0273L66.6992-37.793Q66.5039-38.0371 66.3086-37.793L55.5664-26.5625L55.5664-17.1875Q55.5664-16.6016 56.1523-16.6016L107.666-16.6016Q110.01-16.6016 111.597-15.0146Q113.184-13.4277 113.184-11.0352Q113.184-8.74023 111.597-7.17773Q110.01-5.61523 107.666-5.61523L51.709-5.61523Q48.5352-5.61523 46.582-7.56836Q44.6289-9.52148 44.6289-12.7441Z"/>
  </g>
  <g id="Heavy-L" transform="matrix(1 0 0 1 2558.39 1556)">
   <path class="hierarchical-0:tertiary SFSymbolsPreview8E8E8E" d="M78.2715 31.8848Q89.3555 31.8848 99.3652 28.4668Q109.375 25.0488 117.749 18.8965Q126.123 12.7441 132.3 4.3457Q138.477-4.05273 141.895-14.0625Q145.312-24.0723 145.312-35.1074Q145.312-46.1426 141.895-56.1768Q138.477-66.2109 132.3-74.585Q126.123-82.959 117.749-89.1602Q109.375-95.3613 99.3408-98.7549Q89.3066-102.148 78.2227-102.148Q67.2363-102.148 57.2021-98.7549Q47.168-95.3613 38.7939-89.1602Q30.4199-82.959 24.2432-74.585Q18.0664-66.2109 14.6729-56.1768Q11.2793-46.1426 11.2793-35.1074Q11.2793-24.0723 14.6729-14.0625Q18.0664-4.05273 24.2432 4.3457Q30.4199 12.7441 38.8184 18.8965Q47.2168 25.0488 57.2266 28.4668Q67.2363 31.8848 78.2715 31.8848Z"/>
   <path class="hierarchical-1:primary SFSymbolsPreview212121" d="M43.5059-12.1582L43.5059-61.3281Q43.5059-63.4766 44.9463-64.917Q46.3867-66.3574 48.4863-66.3574Q50.5371-66.3574 51.9531-64.917Q53.3691-63.4766 53.3691-61.3281L53.3691-39.3066L59.4727-45.5566Q60.6934-46.7773 61.9873-47.4609Q63.2812-48.1445 64.7949-48.1445Q67.7734-48.1445 70.2637-45.5566L79.9805-35.2539Q80.2734-34.9609 80.5176-35.3027L90.9668-46.0449L87.5-49.4629Q85.8887-51.0742 86.5479-53.1006Q87.207-55.127 89.5508-55.7617L107.031-60.3027Q109.18-60.8398 110.767-59.3018Q112.354-57.7637 111.768-55.6152L107.129-38.1348Q106.543-35.791 104.492-35.1074Q102.441-34.4238 100.879-36.0352L97.2656-39.6973L85.6934-27.7832Q83.0566-25.293 80.2246-25.293Q77.2949-25.293 74.7559-27.7832L65.1367-38.0859Q64.8438-38.4277 64.5508-38.0859L53.3691-26.5625L53.3691-16.1133Q53.3691-15.5273 53.9551-15.5273L107.373-15.5273Q109.521-15.5273 110.938-14.0869Q112.354-12.6465 112.354-10.498Q112.354-8.44727 110.913-7.03125Q109.473-5.61523 107.373-5.61523L50-5.61523Q47.0703-5.61523 45.2881-7.39746Q43.5059-9.17969 43.5059-12.1582Z"/>
  </g>
  <g id="Bold-L" transform="matrix(1 0 0 1 2262.85 1556)">
   <path class="hierarchical-0:tertiary SFSymbolsPreview8E8E8E" d="M77.0996 30.7129Q87.9395 30.7129 97.7783 27.3438Q107.617 23.9746 115.869 17.9199Q124.121 11.8652 130.176 3.61328Q136.23-4.63867 139.6-14.4775Q142.969-24.3164 142.969-35.1562Q142.969-45.9961 139.6-55.835Q136.23-65.6738 130.151-73.9014Q124.072-82.1289 115.845-88.208Q107.617-94.2871 97.7539-97.6318Q87.8906-100.977 77.0508-100.977Q66.2598-100.977 56.3965-97.6318Q46.5332-94.2871 38.3301-88.208Q30.127-82.1289 24.0479-73.9014Q17.9688-65.6738 14.624-55.835Q11.2793-45.9961 11.2793-35.1562Q11.2793-24.3164 14.624-14.4775Q17.9688-4.63867 24.0479 3.61328Q30.127 11.8652 38.3545 17.9199Q46.582 23.9746 56.4209 27.3438Q66.2598 30.7129 77.0996 30.7129Z"/>
   <path class="hierarchical-1:primary SFSymbolsPreview212121" d="M42.2852-11.5234L42.2852-61.9141Q42.2852-63.7695 43.5547-65.0391Q44.8242-66.3086 46.6309-66.3086Q48.4375-66.3086 49.707-65.0391Q50.9766-63.7695 50.9766-61.9141L50.9766-38.0371L57.9102-45.0684Q59.082-46.2402 60.3271-46.875Q61.5723-47.5098 63.0371-47.5098Q65.8691-47.5098 68.2129-45.0684L78.7109-34.1797Q79.1504-33.7402 79.4922-34.2285L90.5762-45.6055L86.6699-49.5117Q85.2051-50.9277 85.8154-52.71Q86.4258-54.4922 88.5254-55.0293L106.25-59.5215Q108.154-60.0098 109.546-58.6426Q110.938-57.2754 110.449-55.4199L105.908-37.5977Q105.371-35.5469 103.564-34.9121Q101.758-34.2773 100.342-35.7422L96.2891-39.8438L84.3262-27.5391Q81.8359-25.1953 79.0527-25.1953Q76.2695-25.1953 73.877-27.5391L63.4766-38.4277Q63.0859-38.916 62.6465-38.4277L50.9766-26.5137L50.9766-14.8926Q50.9766-14.3066 51.5625-14.3066L107.129-14.3066Q108.984-14.3066 110.229-13.0371Q111.475-11.7676 111.475-9.91211Q111.475-8.10547 110.205-6.86035Q108.936-5.61523 107.129-5.61523L48.1445-5.61523Q45.5078-5.61523 43.8965-7.22656Q42.2852-8.83789 42.2852-11.5234Z"/>
  </g>
  <g id="Semibold-L" transform="matrix(1 0 0 1 1966.97 1556)">
   <path class="hierarchical-0:tertiary SFSymbolsPreview8E8E8E" d="M76.2695 29.8828Q86.9629 29.8828 96.6797 26.5625Q106.396 23.2422 114.551 17.2607Q122.705 11.2793 128.687 3.125Q134.668-5.0293 137.988-14.7461Q141.309-24.4629 141.309-35.1562Q141.309-45.8496 137.988-55.5664Q134.668-65.2832 128.662-73.4131Q122.656-81.543 114.526-87.5488Q106.396-93.5547 96.6553-96.875Q86.9141-100.195 76.2207-100.195Q65.5273-100.195 55.8105-96.875Q46.0938-93.5547 37.9883-87.5488Q29.8828-81.543 23.877-73.4131Q17.8711-65.2832 14.5752-55.5664Q11.2793-45.8496 11.2793-35.1562Q11.2793-24.4629 14.5996-14.7461Q17.9199-5.0293 23.9014 3.125Q29.8828 11.2793 38.0127 17.2607Q46.1426 23.2422 55.8594 26.5625Q65.5762 29.8828 76.2695 29.8828Z"/>
   <path class="hierarchical-1:primary SFSymbolsPreview212121" d="M41.4551-11.084L41.4551-62.3047Q41.4551-63.9648 42.6025-65.1123Q43.75-66.2598 45.3613-66.2598Q47.0215-66.2598 48.1689-65.1123Q49.3164-63.9648 49.3164-62.3047L49.3164-37.1582L56.8359-44.7266Q57.959-45.8496 59.1553-46.46Q60.3516-47.0703 61.7676-47.0703Q64.5508-47.0703 66.7969-44.7266L77.832-33.3984Q78.3203-32.8613 78.7598-33.4473L90.332-45.2637L86.084-49.5117Q84.7656-50.7812 85.3271-52.417Q85.8887-54.0527 87.793-54.541L105.713-58.9355Q107.471-59.4238 108.716-58.1787Q109.961-56.9336 109.521-55.2246L105.029-37.2559Q104.541-35.3516 102.905-34.7656Q101.27-34.1797 100-35.498L95.6055-39.9414L83.3496-27.3438Q80.957-25.0488 78.2715-25.0488Q75.5371-25.0488 73.2422-27.3438L62.3047-38.6719Q61.8164-39.209 61.2793-38.6719L49.3164-26.5137L49.3164-14.0625Q49.3164-13.4277 49.9023-13.4277L106.934-13.4277Q108.594-13.4277 109.741-12.2803Q110.889-11.1328 110.889-9.47266Q110.889-7.86133 109.717-6.73828Q108.545-5.61523 106.934-5.61523L46.875-5.61523Q44.4336-5.61523 42.9443-7.10449Q41.4551-8.59375 41.4551-11.084Z"/>
  </g>
  <g id="Medium-L" transform="matrix(1 0 0 1 1670.87 1556)">
   <path class="hierarchical-0:tertiary SFSymbolsPreview8E8E8E" d="M75.6836 29.248Q86.2305 29.248 95.8496 25.9521Q105.469 22.6562 113.55 16.7236Q121.631 10.791 127.563 2.73438Q133.496-5.32227 136.792-14.9658Q140.088-24.6094 140.088-35.1562Q140.088-45.752 136.792-55.3711Q133.496-64.9902 127.539-73.0469Q121.582-81.1035 113.525-87.0605Q105.469-93.0176 95.8252-96.2891Q86.1816-99.5605 75.6348-99.5605Q65.0391-99.5605 55.4199-96.2891Q45.8008-93.0176 37.7441-87.0605Q29.6875-81.1035 23.7549-73.0469Q17.8223-64.9902 14.5508-55.3711Q11.2793-45.752 11.2793-35.1562Q11.2793-24.6094 14.5508-14.9658Q17.8223-5.32227 23.7549 2.73438Q29.6875 10.791 37.7686 16.7236Q45.8496 22.6562 55.4688 25.9521Q65.0879 29.248 75.6836 29.248Z"/>
   <path class="hierarchical-1:primary SFSymbolsPreview212121" d="M40.7715-10.7422L40.7715-62.6465Q40.7715-64.1602 41.8457-65.21Q42.9199-66.2598 44.3848-66.2598Q45.8496-66.2598 46.9238-65.21Q47.998-64.1602 47.998-62.6465L47.998-36.4746L55.957-44.4824Q57.0801-45.6055 58.2275-46.167Q59.375-46.7285 60.791-46.7285Q63.5254-46.7285 65.7227-44.4824L77.0996-32.8125Q77.6855-32.1777 78.1738-32.8613L90.0879-45.0195L85.5957-49.5605Q84.3262-50.6836 84.8633-52.1973Q85.4004-53.7109 87.207-54.1504L105.273-58.5449Q106.885-58.9844 108.057-57.8369Q109.229-56.6895 108.789-55.127L104.346-36.9629Q103.857-35.2051 102.368-34.668Q100.879-34.1309 99.6582-35.3516L95.0684-40.0391L82.5684-27.2461Q80.2734-25 77.5879-25Q74.9512-25 72.7051-27.2461L61.377-38.8184Q60.8398-39.4531 60.2539-38.8184L47.998-26.4648L47.998-13.4277Q47.998-12.793 48.584-12.793L106.787-12.793Q108.252-12.793 109.302-11.7188Q110.352-10.6445 110.352-9.13086Q110.352-7.71484 109.302-6.66504Q108.252-5.61523 106.787-5.61523L45.8496-5.61523Q43.5547-5.61523 42.1631-7.00684Q40.7715-8.39844 40.7715-10.7422Z"/>
  </g>
  <g id="Regular-L" transform="matrix(1 0 0 1 1374.97 1556)">
   <path class="hierarchical-0:tertiary SFSymbolsPreview8E8E8E" d="M74.8535 28.418Q85.3027 28.418 94.7998 25.1709Q104.297 21.9238 112.256 16.0645Q120.215 10.2051 126.099 2.24609Q131.982-5.71289 135.229-15.2344Q138.477-24.7559 138.477-35.1562Q138.477-45.6055 135.229-55.1025Q131.982-64.5996 126.099-72.5586Q120.215-80.5176 112.256-86.4014Q104.297-92.2852 94.7754-95.5322Q85.2539-98.7793 74.8047-98.7793Q64.3555-98.7793 54.8584-95.5322Q45.3613-92.2852 37.4268-86.4014Q29.4922-80.5176 23.6084-72.5586Q17.7246-64.5996 14.502-55.1025Q11.2793-45.6055 11.2793-35.1562Q11.2793-24.7559 14.5264-15.2344Q17.7734-5.71289 23.6328 2.24609Q29.4922 10.2051 37.4512 16.0645Q45.4102 21.9238 54.9072 25.1709Q64.4043 28.418 74.8535 28.418Z"/>
   <path class="hierarchical-1:primary SFSymbolsPreview212121" d="M39.9414-10.3027L39.9414-63.0371Q39.9414-64.3555 40.8936-65.2832Q41.8457-66.2109 43.1152-66.2109Q44.4336-66.2109 45.3857-65.2832Q46.3379-64.3555 46.3379-63.0371L46.3379-35.5957L54.8828-44.1406Q55.957-45.2148 57.0801-45.752Q58.2031-46.2891 59.5703-46.2891Q62.207-46.2891 64.3066-44.1406L76.2207-32.0312Q76.9043-31.3477 77.4414-32.0801L89.8438-44.6777L85.0098-49.5605Q83.8867-50.5859 84.375-51.9287Q84.8633-53.2715 86.4746-53.6621L104.736-58.0078Q106.201-58.3984 107.227-57.3975Q108.252-56.3965 107.861-54.9805L103.467-36.6211Q103.076-35.0098 101.733-34.5215Q100.391-34.0332 99.3164-35.1562L94.3848-40.1367L81.5918-27.0508Q79.4434-24.9023 76.8066-24.9023Q74.2188-24.9023 72.0703-27.0508L60.2051-39.0625Q59.6191-39.7461 58.9355-39.0625L46.3379-26.4648L46.3379-12.5977Q46.3379-11.9629 46.9238-11.9629L106.592-11.9629Q107.91-11.9629 108.838-11.0107Q109.766-10.0586 109.766-8.74023Q109.766-7.4707 108.813-6.54297Q107.861-5.61523 106.592-5.61523L44.5801-5.61523Q42.4805-5.61523 41.2109-6.88477Q39.9414-8.1543 39.9414-10.3027Z"/>
  </g>
  <g id="Light-L" transform="matrix(1 0 0 1 1079.18 1556)">
   <path class="hierarchical-0:tertiary SFSymbolsPreview8E8E8E" d="M73.9258 27.4902Q84.2285 27.4902 93.6035 24.292Q102.979 21.0938 110.815 15.332Q118.652 9.57031 124.438 1.7334Q130.225-6.10352 133.423-15.4785Q136.621-24.8535 136.621-35.1562Q136.621-45.459 133.423-54.834Q130.225-64.209 124.438-72.0459Q118.652-79.8828 110.815-85.6689Q102.979-91.4551 93.6035-94.6533Q84.2285-97.8516 73.877-97.8516Q63.5742-97.8516 54.2236-94.6533Q44.873-91.4551 37.0361-85.6689Q29.1992-79.8828 23.4131-72.0459Q17.627-64.209 14.4531-54.834Q11.2793-45.459 11.2793-35.1562Q11.2793-24.8535 14.4775-15.4785Q17.6758-6.10352 23.4375 1.7334Q29.1992 9.57031 37.0361 15.332Q44.873 21.0938 54.248 24.292Q63.623 27.4902 73.9258 27.4902Z"/>
   <path class="hierarchical-1:primary SFSymbolsPreview212121" d="M39.5996-9.81445L39.5996-63.1348Q39.5996-64.209 40.3809-64.9414Q41.1621-65.6738 42.1875-65.6738Q43.2617-65.6738 44.043-64.9414Q44.8242-64.209 44.8242-63.1348L44.8242-33.6914L53.8574-42.5781Q54.834-43.6035 55.8594-44.0674Q56.8848-44.5312 58.1543-44.5312Q60.5469-44.5312 62.4512-42.5781L75.0488-30.0293Q75.9277-29.1504 76.6602-30.0293L90.1367-43.75L84.9609-49.0234Q83.9844-49.8535 84.3994-51.001Q84.8145-52.1484 86.1328-52.4902L103.955-56.3965Q105.225-56.6895 106.079-55.8594Q106.934-55.0293 106.592-53.8086L102.637-35.8887Q102.344-34.5703 101.221-34.2041Q100.098-33.8379 99.1699-34.7656L93.7988-40.0879L80.1758-26.2207Q78.2227-24.2188 75.8301-24.2188Q73.4863-24.2188 71.4844-26.2207L58.9355-38.6719Q58.2031-39.502 57.3242-38.6719L44.8242-26.3184L44.8242-11.5723Q44.8242-10.8887 45.459-10.8887L105.762-10.8887Q106.836-10.8887 107.593-10.1074Q108.35-9.32617 108.35-8.25195Q108.35-7.22656 107.568-6.46973Q106.787-5.71289 105.762-5.71289L43.6035-5.71289Q41.7969-5.71289 40.6982-6.81152Q39.5996-7.91016 39.5996-9.81445Z"/>
  </g>
  <g id="Thin-L" transform="matrix(1 0 0 1 783.693 1556)">
   <path class="hierarchical-0:tertiary SFSymbolsPreview8E8E8E" d="M72.7051 26.2695Q82.8613 26.2695 92.041 23.1445Q101.221 20.0195 108.911 14.3799Q116.602 8.74023 122.266 1.0498Q127.93-6.64062 131.055-15.8447Q134.18-25.0488 134.18-35.1562Q134.18-45.3125 131.055-54.4922Q127.93-63.6719 122.29-71.3623Q116.65-79.0527 108.936-84.7168Q101.221-90.3809 92.0166-93.5059Q82.8125-96.6309 72.7051-96.6309Q62.5488-96.6309 53.3691-93.5059Q44.1895-90.3809 36.499-84.7168Q28.8086-79.0527 23.1689-71.3623Q17.5293-63.6719 14.4043-54.4922Q11.2793-45.3125 11.2793-35.1562Q11.2793-25.0488 14.4043-15.8447Q17.5293-6.64062 23.1689 1.0498Q28.8086 8.74023 36.5234 14.3799Q44.2383 20.0195 53.418 23.1445Q62.5977 26.2695 72.7051 26.2695Z"/>
   <path class="hierarchical-1:primary SFSymbolsPreview212121" d="M39.209-9.13086L39.209-63.2324Q39.209-63.9648 39.7461-64.502Q40.2832-65.0391 41.0156-65.0391Q41.748-65.0391 42.2852-64.502Q42.8223-63.9648 42.8223-63.2324L42.8223-31.1523L52.5879-40.5762Q53.418-41.4062 54.3457-41.7969Q55.2734-42.1875 56.2988-42.1875Q58.3984-42.1875 60.1074-40.5762L73.5352-27.3438Q74.707-26.2695 75.6348-27.3926L90.5762-42.5781L84.9609-48.291Q84.2285-48.877 84.4971-49.7803Q84.7656-50.6836 85.791-50.8789L102.979-54.248Q103.955-54.4434 104.614-53.8086Q105.273-53.1738 104.98-52.2461L101.611-34.9121Q101.416-33.9844 100.586-33.7646Q99.7559-33.5449 99.0234-34.2773L93.0664-40.0391L78.3691-25.0977Q76.709-23.3398 74.5605-23.3398Q72.5586-23.3398 70.8008-25.0977L57.373-38.1836Q56.3965-39.209 55.2734-38.1836L42.8223-26.1719L42.8223-10.2051Q42.8223-9.42383 43.6035-9.42383L104.785-9.42383Q105.469-9.42383 105.981-8.88672Q106.494-8.34961 106.494-7.56836Q106.494-6.88477 105.957-6.37207Q105.42-5.85938 104.785-5.85938L42.3828-5.85938Q40.9668-5.85938 40.0879-6.73828Q39.209-7.61719 39.209-9.13086Z"/>
  </g>
  <g id="Ultralight-L" transform="matrix(1 0 0 1 487.592 1556)">
   <path class="hierarchical-0:tertiary SFSymbolsPreview8E8E8E" d="M72.0703 25.6348Q82.1289 25.6348 91.2354 22.5586Q100.342 19.4824 107.935 13.8916Q115.527 8.30078 121.143 0.683594Q126.758-6.93359 129.858-16.0156Q132.959-25.0977 132.959-35.1562Q132.959-45.2148 129.858-54.3213Q126.758-63.4277 121.167-71.0205Q115.576-78.6133 107.959-84.2285Q100.342-89.8438 91.2354-92.9199Q82.1289-95.9961 72.0703-95.9961Q62.0605-95.9961 52.9541-92.9199Q43.8477-89.8438 36.2305-84.2285Q28.6133-78.6133 23.0225-71.0205Q17.4316-63.4277 14.3555-54.3213Q11.2793-45.2148 11.2793-35.1562Q11.2793-25.0977 14.3555-16.0156Q17.4316-6.93359 23.0225 0.683594Q28.6133 8.30078 36.2305 13.8916Q43.8477 19.4824 52.9541 22.5586Q62.0605 25.6348 72.0703 25.6348Z"/>
   <path class="hierarchical-1:primary SFSymbolsPreview212121" d="M38.9648-8.78906L38.9648-63.2812Q38.9648-63.8672 39.3799-64.2578Q39.7949-64.6484 40.3809-64.6484Q40.9668-64.6484 41.3818-64.2578Q41.7969-63.8672 41.7969-63.2812L41.7969-29.8828L51.8555-39.502Q52.6855-40.332 53.5156-40.6738Q54.3457-41.0156 55.3223-41.0156Q57.2754-41.0156 58.8379-39.502L72.7051-25.9766Q74.0234-24.8047 75.0977-25.9766L90.7227-41.9434L84.9121-47.9492Q84.2773-48.3887 84.4971-49.1455Q84.7168-49.9023 85.5469-50.0977L102.441-53.125Q103.271-53.3203 103.809-52.7832Q104.346-52.2461 104.102-51.416L101.025-34.4238Q100.928-33.6914 100.244-33.5449Q99.5605-33.3984 98.9258-34.0332L92.6758-39.9902L77.3926-24.5117Q75.8789-22.9004 73.877-22.9004Q72.0703-22.9004 70.4102-24.5117L56.4941-37.9395Q55.4199-39.0625 54.1504-37.9395L41.7969-26.0742L41.7969-9.52148Q41.7969-8.69141 42.627-8.69141L104.199-8.69141Q104.736-8.69141 105.127-8.25195Q105.518-7.8125 105.518-7.22656Q105.518-6.68945 105.103-6.32324Q104.688-5.95703 104.199-5.95703L41.748-5.95703Q40.5273-5.95703 39.7461-6.71387Q38.9648-7.4707 38.9648-8.78906Z"/>
  </g>
  <g id="Black-M" transform="matrix(1 0 0 1 2871.32 1126)">
   <path class="hierarchical-0:tertiary SFSymbolsPreview8E8E8E" d="M62.0605 18.1641Q73.0957 18.1641 82.7637 14.0137Q92.4316 9.86328 99.7559 2.51465Q107.08-4.83398 111.255-14.4775Q115.43-24.1211 115.43-35.1562Q115.43-46.1914 111.255-55.835Q107.08-65.4785 99.7559-72.8271Q92.4316-80.1758 82.7637-84.3262Q73.0957-88.4766 62.0605-88.4766Q51.0742-88.4766 41.4062-84.3262Q31.7383-80.1758 24.3896-72.8271Q17.041-65.4785 12.8906-55.835Q8.74023-46.1914 8.74023-35.1562Q8.74023-24.1211 12.8906-14.4775Q17.041-4.83398 24.3896 2.51465Q31.7383 9.86328 41.4062 14.0137Q51.0742 18.1641 62.0605 18.1641Z"/>
   <path class="hierarchical-1:primary SFSymbolsPreview212121" d="M35.4004-18.1641L35.4004-54.6387Q35.4004-56.6406 36.6943-57.959Q37.9883-59.2773 39.9414-59.2773Q41.8457-59.2773 43.1152-57.9346Q44.3848-56.5918 44.3848-54.6387L44.3848-39.6484L48.0957-43.457Q50.2441-45.6055 52.3438-45.6055Q54.7852-45.6055 56.8359-43.457L63.4766-36.2305Q63.5742-36.1328 63.6719-36.2793L71.0938-44.043L69.043-46.0938Q67.5781-47.5586 68.1641-49.3896Q68.75-51.2207 70.8496-51.8066L83.8379-55.2734Q85.7422-55.7617 87.207-54.3457Q88.6719-52.9297 88.1348-50.9766L84.6191-37.9883Q84.082-35.9375 82.2021-35.3516Q80.3223-34.7656 78.9062-36.1816L76.6113-38.4766L68.0176-29.5898Q65.7715-27.5391 63.5254-27.5391Q61.1816-27.5391 59.1309-29.5898L52.5391-36.8652Q52.4414-37.0117 52.2949-36.8652L44.3848-28.5156L44.3848-21.875Q44.3848-21.3867 44.873-21.3867L83.3496-21.3867Q85.3027-21.3867 86.5967-20.0684Q87.8906-18.75 87.8906-16.7969Q87.8906-14.8926 86.5967-13.5986Q85.3027-12.3047 83.3496-12.3047L41.1621-12.3047Q38.5742-12.3047 36.9873-13.916Q35.4004-15.5273 35.4004-18.1641Z"/>
  </g>
  <g id="Heavy-M" transform="matrix(1 0 0 1 2575.43 1126)">
   <path class="hierarchical-0:tertiary SFSymbolsPreview8E8E8E" d="M61.2305 17.334Q72.0703 17.334 81.5918 13.2324Q91.1133 9.13086 98.3154 1.9043Q105.518-5.32227 109.644-14.8193Q113.77-24.3164 113.77-35.1562Q113.77-45.9961 109.644-55.4932Q105.518-64.9902 98.3154-72.2412Q91.1133-79.4922 81.5918-83.5693Q72.0703-87.6465 61.2305-87.6465Q50.4395-87.6465 40.918-83.5693Q31.3965-79.4922 24.1699-72.2412Q16.9434-64.9902 12.8418-55.4932Q8.74023-45.9961 8.74023-35.1562Q8.74023-24.3164 12.8418-14.8193Q16.9434-5.32227 24.1699 1.9043Q31.3965 9.13086 40.918 13.2324Q50.4395 17.334 61.2305 17.334Z"/>
   <path class="hierarchical-1:primary SFSymbolsPreview212121" d="M34.375-17.7246L34.375-55.127Q34.375-56.9336 35.5713-58.1299Q36.7676-59.3262 38.5254-59.3262Q40.2344-59.3262 41.4062-58.1055Q42.5781-56.8848 42.5781-55.127L42.5781-38.916L46.875-43.3594Q48.9746-45.4102 51.0742-45.4102Q53.418-45.4102 55.4199-43.3594L62.5977-35.6934Q62.7441-35.498 62.8906-35.7422L70.7031-43.7988L68.2617-46.2402Q66.9434-47.5586 67.4805-49.2188Q68.0176-50.8789 69.9707-51.416L83.3008-54.9316Q85.0586-55.3711 86.377-54.1016Q87.6953-52.832 87.207-51.0254L83.6426-37.6953Q83.1543-35.791 81.4453-35.2539Q79.7363-34.7168 78.4668-35.9863L75.8301-38.623L67.041-29.541Q64.9414-27.5391 62.6953-27.5391Q60.4004-27.5391 58.3984-29.541L51.3184-37.2559Q51.123-37.4512 50.9277-37.2559L42.5781-28.5156L42.5781-21.0449Q42.5781-20.5566 43.0176-20.5566L83.252-20.5566Q85.0098-20.5566 86.2061-19.3359Q87.4023-18.1152 87.4023-16.4062Q87.4023-14.6484 86.2061-13.4766Q85.0098-12.3047 83.252-12.3047L39.6973-12.3047Q37.3047-12.3047 35.8398-13.7939Q34.375-15.2832 34.375-17.7246Z"/>
  </g>
  <g id="Bold-M" transform="matrix(1 0 0 1 2279.65 1126)">
   <path class="hierarchical-0:tertiary SFSymbolsPreview8E8E8E" d="M60.3027 16.4062Q70.9473 16.4062 80.2734 12.3779Q89.5996 8.34961 96.7041 1.2207Q103.809-5.9082 107.861-15.2344Q111.914-24.5605 111.914-35.2051Q111.914-45.8008 107.861-55.127Q103.809-64.4531 96.7041-71.582Q89.5996-78.7109 80.249-82.7393Q70.8984-86.7676 60.3027-86.7676Q49.707-86.7676 40.3564-82.7393Q31.0059-78.7109 23.9014-71.582Q16.7969-64.4531 12.7686-55.127Q8.74023-45.8008 8.74023-35.2051Q8.74023-24.5605 12.7686-15.2344Q16.7969-5.9082 23.9258 1.2207Q31.0547 8.34961 40.3809 12.3779Q49.707 16.4062 60.3027 16.4062Z"/>
   <path class="hierarchical-1:primary SFSymbolsPreview212121" d="M33.3008-17.1875L33.3008-55.7129Q33.3008-57.2754 34.375-58.3496Q35.4492-59.4238 37.0117-59.4238Q38.5254-59.4238 39.5752-58.3496Q40.625-57.2754 40.625-55.7129L40.625-38.1348L45.6543-43.2617Q47.6074-45.2148 49.707-45.2148Q52.002-45.2148 53.9062-43.2617L61.6699-35.1074Q61.9141-34.8145 62.1094-35.1562L70.3125-43.5547L67.5293-46.3867Q66.3086-47.5586 66.8213-49.0479Q67.334-50.5371 69.043-51.0254L82.7637-54.5898Q84.3262-54.9805 85.5225-53.833Q86.7188-52.6855 86.2793-51.123L82.666-37.3535Q82.2266-35.6445 80.7129-35.1318Q79.1992-34.6191 78.0273-35.8398L75.0977-38.8184L66.0645-29.4922Q64.0625-27.5879 61.8652-27.5879Q59.6191-27.5879 57.666-29.4922L50-37.6465Q49.7559-37.9395 49.5117-37.6465L40.625-28.5645L40.625-20.1172Q40.625-19.6289 41.0645-19.6289L83.252-19.6289Q84.8145-19.6289 85.8643-18.5547Q86.9141-17.4805 86.9141-15.918Q86.9141-14.4043 85.8643-13.3545Q84.8145-12.3047 83.252-12.3047L38.1836-12.3047Q35.9863-12.3047 34.6436-13.6475Q33.3008-14.9902 33.3008-17.1875Z"/>
  </g>
  <g id="Semibold-M" transform="matrix(1 0 0 1 1983.6 1126)">
   <path class="hierarchical-0:tertiary SFSymbolsPreview8E8E8E" d="M59.668 15.7227Q70.1172 15.7227 79.3457 11.7432Q88.5742 7.76367 95.6055 0.732422Q102.637-6.29883 106.616-15.5029Q110.596-24.707 110.596-35.2051Q110.596-45.6543 106.616-54.8584Q102.637-64.0625 95.6055-71.0938Q88.5742-78.125 79.3457-82.1289Q70.1172-86.1328 59.6191-86.1328Q49.1699-86.1328 39.9658-82.1289Q30.7617-78.125 23.7305-71.0938Q16.6992-64.0625 12.7197-54.8584Q8.74023-45.6543 8.74023-35.2051Q8.74023-24.707 12.7197-15.5029Q16.6992-6.29883 23.7305 0.732422Q30.7617 7.76367 39.9902 11.7432Q49.2188 15.7227 59.668 15.7227Z"/>
   <path class="hierarchical-1:primary SFSymbolsPreview212121" d="M32.5195-16.8457L32.5195-56.1035Q32.5195-57.5195 33.4961-58.4961Q34.4727-59.4727 35.8887-59.4727Q37.2559-59.4727 38.2324-58.4717Q39.209-57.4707 39.209-56.1035L39.209-37.5977L44.7266-43.2129Q46.6309-45.0684 48.6816-45.0684Q50.9766-45.0684 52.7832-43.2129L60.9863-34.668Q61.2793-34.3262 61.5234-34.7168L70.0195-43.3594L66.9434-46.4844Q65.8203-47.5586 66.2842-48.9258Q66.748-50.293 68.3594-50.7324L82.373-54.2969Q83.7891-54.6387 84.8633-53.6133Q85.9375-52.5879 85.5469-51.123L81.9336-37.1094Q81.543-35.498 80.1514-35.0342Q78.7598-34.5703 77.6367-35.6934L74.5117-38.916L65.2832-29.4434Q63.3789-27.5879 61.2305-27.5879Q58.9844-27.5879 57.1289-29.4434L49.0234-37.9395Q48.7793-38.2812 48.4375-37.9395L39.209-28.5645L39.209-19.4336Q39.209-18.9453 39.6484-18.9453L83.2031-18.9453Q84.5703-18.9453 85.5469-17.9688Q86.5234-16.9922 86.5234-15.5762Q86.5234-14.209 85.5469-13.2324Q84.5703-12.2559 83.2031-12.2559L37.0605-12.2559Q35.0098-12.2559 33.7646-13.501Q32.5195-14.7461 32.5195-16.8457Z"/>
  </g>
  <g id="Medium-M" transform="matrix(1 0 0 1 1687.38 1126)">
   <path class="hierarchical-0:tertiary SFSymbolsPreview8E8E8E" d="M59.1797 15.2344Q69.5312 15.2344 78.6621 11.2793Q87.793 7.32422 94.751 0.366211Q101.709-6.5918 105.664-15.7227Q109.619-24.8535 109.619-35.2051Q109.619-45.5566 105.664-54.6875Q101.709-63.8184 94.751-70.7764Q87.793-77.7344 78.6377-81.6895Q69.4824-85.6445 59.1309-85.6445Q48.7793-85.6445 39.6484-81.6895Q30.5176-77.7344 23.584-70.7764Q16.6504-63.8184 12.6953-54.6875Q8.74023-45.5566 8.74023-35.2051Q8.74023-24.8535 12.6953-15.7227Q16.6504-6.5918 23.6084 0.366211Q30.5664 7.32422 39.6973 11.2793Q48.8281 15.2344 59.1797 15.2344Z"/>
   <path class="hierarchical-1:primary SFSymbolsPreview212121" d="M31.9336-16.5527L31.9336-56.3965Q31.9336-57.666 32.8369-58.5938Q33.7402-59.5215 35.0586-59.5215Q36.3281-59.5215 37.2314-58.5938Q38.1348-57.666 38.1348-56.3965L38.1348-37.1582L44.043-43.1152Q45.8984-44.9707 47.9492-44.9707Q50.1953-44.9707 51.9531-43.1152L60.4492-34.3262Q60.791-33.9844 61.084-34.375L69.7754-43.2617L66.5039-46.582Q65.4297-47.5586 65.8936-48.8281Q66.3574-50.0977 67.8711-50.5371L82.0312-54.1016Q83.3984-54.4434 84.3994-53.4912Q85.4004-52.5391 85.0098-51.1719L81.3965-36.9629Q81.0059-35.4004 79.7119-34.9609Q78.418-34.5215 77.3926-35.5957L74.0723-39.0137L64.7461-29.4434Q62.8906-27.6367 60.7422-27.6367Q58.5449-27.6367 56.6895-29.4434L48.291-38.1348Q47.998-38.5254 47.6562-38.1348L38.1348-28.5645L38.1348-18.9453Q38.1348-18.457 38.623-18.457L83.1543-18.457Q84.4238-18.457 85.3516-17.5537Q86.2793-16.6504 86.2793-15.332Q86.2793-14.0625 85.3516-13.1592Q84.4238-12.2559 83.1543-12.2559L36.2305-12.2559Q34.2773-12.2559 33.1055-13.4277Q31.9336-14.5996 31.9336-16.5527Z"/>
  </g>
  <g id="Regular-M" transform="matrix(1 0 0 1 1391.3 1126)">
   <path class="hierarchical-0:tertiary SFSymbolsPreview8E8E8E" d="M58.5449 14.5996Q68.75 14.5996 77.7588 10.6934Q86.7676 6.78711 93.6523-0.0976562Q100.537-6.98242 104.443-15.9912Q108.35-25 108.35-35.2051Q108.35-45.4102 104.443-54.4189Q100.537-63.4277 93.6523-70.3125Q86.7676-77.1973 77.7344-81.1035Q68.7012-85.0098 58.4961-85.0098Q48.291-85.0098 39.2822-81.1035Q30.2734-77.1973 23.4131-70.3125Q16.5527-63.4277 12.6465-54.4189Q8.74023-45.4102 8.74023-35.2051Q8.74023-25 12.6465-15.9912Q16.5527-6.98242 23.4375-0.0976562Q30.3223 6.78711 39.3311 10.6934Q48.3398 14.5996 58.5449 14.5996Z"/>
   <path class="hierarchical-1:primary SFSymbolsPreview212121" d="M31.1523-16.2109L31.1523-56.7871Q31.1523-57.9102 31.9824-58.7402Q32.8125-59.5703 33.9844-59.5703Q35.1074-59.5703 35.9375-58.7402Q36.7676-57.9102 36.7676-56.7871L36.7676-36.6211L43.1152-43.0664Q44.9219-44.8242 46.9727-44.8242Q49.1699-44.8242 50.8789-43.0664L59.7656-33.9355Q60.1562-33.4961 60.498-33.9844L69.4824-43.0664L65.918-46.6797Q64.9414-47.5586 65.3809-48.7061Q65.8203-49.8535 67.1875-50.2441L81.6406-53.8574Q82.8613-54.1504 83.7646-53.2959Q84.668-52.4414 84.3262-51.2207L80.6641-36.7188Q80.3223-35.3027 79.1504-34.8877Q77.9785-34.4727 77.0508-35.4492L73.4863-39.1113L64.0137-29.3945Q62.2559-27.6367 60.1074-27.6367Q57.959-27.6367 56.1523-29.3945L47.3633-38.4277Q47.0215-38.8672 46.6309-38.4277L36.7676-28.5645L36.7676-18.3105Q36.7676-17.8223 37.207-17.8223L83.1055-17.8223Q84.2285-17.8223 85.0586-16.9922Q85.8887-16.1621 85.8887-15.0391Q85.8887-13.8672 85.0586-13.0615Q84.2285-12.2559 83.1055-12.2559L35.1074-12.2559Q33.3008-12.2559 32.2266-13.3301Q31.1523-14.4043 31.1523-16.2109Z"/>
  </g>
  <g id="Light-M" transform="matrix(1 0 0 1 1095.42 1126)">
   <path class="hierarchical-0:tertiary SFSymbolsPreview8E8E8E" d="M57.7148 13.7695Q67.7734 13.7695 76.6357 9.93652Q85.498 6.10352 92.2607-0.65918Q99.0234-7.42188 102.856-16.2842Q106.689-25.1465 106.689-35.2051Q106.689-45.2637 102.856-54.126Q99.0234-62.9883 92.2607-69.751Q85.498-76.5137 76.6113-80.3467Q67.7246-84.1797 57.666-84.1797Q47.6074-84.1797 38.7451-80.3467Q29.8828-76.5137 23.1445-69.751Q16.4062-62.9883 12.5732-54.126Q8.74023-45.2637 8.74023-35.2051Q8.74023-25.1465 12.5732-16.2842Q16.4062-7.42188 23.1689-0.65918Q29.9316 6.10352 38.7939 9.93652Q47.6562 13.7695 57.7148 13.7695Z"/>
   <path class="hierarchical-1:primary SFSymbolsPreview212121" d="M30.8594-15.7715L30.8594-56.8359Q30.8594-57.7637 31.5186-58.4229Q32.1777-59.082 33.1543-59.082Q34.082-59.082 34.7412-58.4229Q35.4004-57.7637 35.4004-56.8359L35.4004-34.9121L42.2363-41.6504Q43.8477-43.2617 45.7031-43.2617Q47.7051-43.2617 49.2188-41.6504L58.7402-32.1289Q59.3262-31.543 59.7656-32.1289L69.7266-42.2852L65.8691-46.1914Q65.0391-46.9238 65.4053-47.9004Q65.7715-48.877 66.8945-49.1699L80.957-52.3926Q81.9824-52.6367 82.7393-51.9287Q83.4961-51.2207 83.2031-50.1465L79.9316-36.084Q79.6875-34.9121 78.7109-34.5947Q77.7344-34.2773 76.9531-35.1074L72.998-39.0625L62.7441-28.6621Q61.1816-27.0508 59.2285-27.0508Q57.3242-27.0508 55.6641-28.6621L46.2891-38.0859Q45.752-38.6719 45.166-38.0859L35.4004-28.418L35.4004-17.3828Q35.4004-16.8457 35.9375-16.8457L82.373-16.8457Q83.3008-16.8457 83.96-16.1865Q84.6191-15.5273 84.6191-14.5996Q84.6191-13.623 83.96-12.9883Q83.3008-12.3535 82.373-12.3535L34.2773-12.3535Q32.7148-12.3535 31.7871-13.2812Q30.8594-14.209 30.8594-15.7715Z"/>
  </g>
  <g id="Thin-M" transform="matrix(1 0 0 1 799.782 1126)">
   <path class="hierarchical-0:tertiary SFSymbolsPreview8E8E8E" d="M56.5918 12.6465Q66.5039 12.6465 75.1709 8.93555Q83.8379 5.22461 90.4297-1.3916Q97.0215-8.00781 100.781-16.6748Q104.541-25.3418 104.541-35.2051Q104.541-45.0684 100.781-53.7354Q97.0215-62.4023 90.4297-69.0186Q83.8379-75.6348 75.1709-79.3457Q66.5039-83.0566 56.5918-83.0566Q46.7285-83.0566 38.0615-79.3457Q29.3945-75.6348 22.8271-69.0186Q16.2598-62.4023 12.5-53.7354Q8.74023-45.0684 8.74023-35.2051Q8.74023-25.3418 12.4756-16.6748Q16.2109-8.00781 22.8027-1.3916Q29.3945 5.22461 38.0859 8.93555Q46.7773 12.6465 56.5918 12.6465Z"/>
   <path class="hierarchical-1:primary SFSymbolsPreview212121" d="M30.4688-15.1367L30.4688-56.9336Q30.4688-57.5684 30.9326-58.0322Q31.3965-58.4961 32.0312-58.4961Q32.7148-58.4961 33.1787-58.0322Q33.6426-57.5684 33.6426-56.9336L33.6426-32.666L41.0156-39.8438Q42.3828-41.1621 44.043-41.1621Q45.752-41.1621 47.0703-39.8438L57.3242-29.7363Q58.1543-28.9551 58.8379-29.7363L70.0684-41.2109L65.8203-45.5566Q65.1855-46.0938 65.4541-46.8018Q65.7227-47.5098 66.5527-47.7051L80.0293-50.4395Q80.8594-50.6348 81.3965-50.1221Q81.9336-49.6094 81.6895-48.7793L78.9551-35.2539Q78.8086-34.4238 78.1006-34.2285Q77.3926-34.0332 76.8066-34.6191L72.3145-38.9648L61.1328-27.6367Q59.7656-26.2207 58.0566-26.2207Q56.4453-26.2207 55.0293-27.6367L44.8242-37.6465Q44.0918-38.4277 43.2617-37.6465L33.6426-28.2715L33.6426-16.1621Q33.6426-15.5762 34.1797-15.5762L81.3965-15.5762Q82.0801-15.5762 82.4951-15.1123Q82.9102-14.6484 82.9102-13.9648Q82.9102-13.3301 82.4707-12.8906Q82.0312-12.4512 81.3965-12.4512L33.1055-12.4512Q31.9336-12.4512 31.2012-13.208Q30.4688-13.9648 30.4688-15.1367Z"/>
  </g>
  <g id="Ultralight-M" transform="matrix(1 0 0 1 503.632 1126)">
   <path class="hierarchical-0:tertiary SFSymbolsPreview8E8E8E" d="M56.0547 12.1094Q65.8203 12.1094 74.3896 8.42285Q82.959 4.73633 89.4775-1.78223Q95.9961-8.30078 99.707-16.8701Q103.418-25.4395 103.418-35.2051Q103.418-44.9707 99.707-53.54Q95.9961-62.1094 89.4775-68.6279Q82.959-75.1465 74.3896-78.833Q65.8203-82.5195 56.0547-82.5195Q46.2891-82.5195 37.7197-78.833Q29.1504-75.1465 22.6562-68.6279Q16.1621-62.1094 12.4512-53.54Q8.74023-44.9707 8.74023-35.2051Q8.74023-25.4395 12.4268-16.8701Q16.1133-8.30078 22.6318-1.78223Q29.1504 4.73633 37.7197 8.42285Q46.2891 12.1094 56.0547 12.1094Z"/>
   <path class="hierarchical-1:primary SFSymbolsPreview212121" d="M30.2734-14.8438L30.2734-56.9824Q30.2734-57.4707 30.6152-57.8125Q30.957-58.1543 31.4941-58.1543Q31.9824-58.1543 32.3486-57.8125Q32.7148-57.4707 32.7148-56.9824L32.7148-31.4941L40.4297-38.8672Q41.6504-40.0879 43.1641-40.0879Q44.7266-40.0879 45.9473-38.8672L56.6406-28.4668Q57.6172-27.6367 58.3496-28.4668L70.2148-40.6738L65.8203-45.2148Q65.2832-45.6543 65.4785-46.2646Q65.6738-46.875 66.3574-46.9727L79.541-49.4629Q80.2734-49.6094 80.7129-49.1943Q81.1523-48.7793 80.957-48.0469L78.4668-34.8145Q78.3691-34.1797 77.8076-34.0332Q77.2461-33.8867 76.709-34.4238L71.9727-38.916L60.2539-27.1484Q59.082-25.8301 57.4707-25.8301Q56.0059-25.8301 54.6875-27.1484L44.0918-37.4512Q43.2129-38.2812 42.2852-37.4512L32.7148-28.1738L32.7148-15.5273Q32.7148-14.8926 33.3496-14.8926L80.9082-14.8926Q81.4453-14.8926 81.7627-14.5508Q82.0801-14.209 82.0801-13.6719Q82.0801-13.1836 81.7383-12.8662Q81.3965-12.5488 80.9082-12.5488L32.5684-12.5488Q31.4941-12.5488 30.8838-13.1836Q30.2734-13.8184 30.2734-14.8438Z"/>
  </g>
  <g id="Black-S" transform="matrix(1 0 0 1 2884.57 696)">
   <path class="hierarchical-0:tertiary SFSymbolsPreview8E8E8E" d="M48.8281 6.83594Q57.5195 6.83594 65.1123 3.56445Q72.7051 0.292969 78.4912-5.49316Q84.2773-11.2793 87.5488-18.8721Q90.8203-26.4648 90.8203-35.1562Q90.8203-43.8477 87.5488-51.4404Q84.2773-59.0332 78.4912-64.8193Q72.7051-70.6055 65.1123-73.877Q57.5195-77.1484 48.8281-77.1484Q40.1367-77.1484 32.5439-73.877Q24.9512-70.6055 19.165-64.8193Q13.3789-59.0332 10.1074-51.4404Q6.83594-43.8477 6.83594-35.1562Q6.83594-26.4648 10.1074-18.8721Q13.3789-11.2793 19.165-5.49316Q24.9512 0.292969 32.5439 3.56445Q40.1367 6.83594 48.8281 6.83594Z"/>
   <path class="hierarchical-1:primary SFSymbolsPreview212121" d="M28.0273-21.9727L28.0273-50.293Q28.0273-51.9043 29.0771-52.9541Q30.127-54.0039 31.6895-54.0039Q33.252-54.0039 34.2529-52.9297Q35.2539-51.8555 35.2539-50.293L35.2539-38.8184L37.9883-41.6016Q39.6973-43.3105 41.3574-43.3105Q43.2617-43.3105 44.873-41.6016L49.9512-36.084Q50.0488-36.0352 50.0977-36.084L55.8594-42.1387L54.3457-43.6523Q53.1738-44.8242 53.6377-46.3135Q54.1016-47.8027 55.7617-48.2422L65.8203-50.9277Q67.3828-51.3184 68.5547-50.1709Q69.7266-49.0234 69.2871-47.4609L66.5527-37.4512Q66.1133-35.791 64.5996-35.3271Q63.0859-34.8633 61.9629-35.9863L60.2539-37.6953L53.5156-30.7617Q51.7578-29.1504 50-29.1504Q48.1445-29.1504 46.5332-30.7617L41.5039-36.377Q41.4062-36.4746 41.3086-36.377L35.2539-29.9316L35.2539-24.9512Q35.2539-24.5605 35.6445-24.5605L65.2832-24.5605Q66.8457-24.5605 67.8955-23.5107Q68.9453-22.4609 68.9453-20.8984Q68.9453-19.3848 67.8955-18.335Q66.8457-17.2852 65.2832-17.2852L32.666-17.2852Q30.5664-17.2852 29.2969-18.5791Q28.0273-19.873 28.0273-21.9727Z"/>
  </g>
  <g id="Heavy-S" transform="matrix(1 0 0 1 2588.47 696)">
   <path class="hierarchical-0:tertiary SFSymbolsPreview8E8E8E" d="M48.1934 6.20117Q56.7871 6.20117 64.2578 2.97852Q71.7285-0.244141 77.4414-5.95703Q83.1543-11.6699 86.377-19.1406Q89.5996-26.6113 89.5996-35.1562Q89.5996-43.7012 86.377-51.1963Q83.1543-58.6914 77.4414-64.4043Q71.7285-70.1172 64.2334-73.3398Q56.7383-76.5625 48.1934-76.5625Q39.6484-76.5625 32.1777-73.3398Q24.707-70.1172 18.9941-64.4043Q13.2812-58.6914 10.0586-51.1963Q6.83594-43.7012 6.83594-35.1562Q6.83594-26.6113 10.0586-19.1406Q13.2812-11.6699 18.9941-5.95703Q24.707-0.244141 32.2021 2.97852Q39.6973 6.20117 48.1934 6.20117Z"/>
   <path class="hierarchical-1:primary SFSymbolsPreview212121" d="M27.1973-21.6309L27.1973-50.6836Q27.1973-52.1973 28.1738-53.1738Q29.1504-54.1504 30.5664-54.1504Q32.0312-54.1504 32.959-53.1494Q33.8867-52.1484 33.8867-50.6836L33.8867-38.4277L37.1094-41.6992Q38.7207-43.3594 40.4297-43.3594Q42.2852-43.3594 43.8477-41.6992L49.3164-35.8398Q49.4629-35.7422 49.5117-35.8398L55.4688-42.041L53.7109-43.8477Q52.5879-44.9219 53.0518-46.2891Q53.5156-47.6562 55.0293-48.0469L65.4297-50.8301Q66.8945-51.1719 67.9688-50.1221Q69.043-49.0723 68.6523-47.6562L65.8203-37.2559Q65.4297-35.7422 64.0381-35.2783Q62.6465-34.8145 61.5723-35.8887L59.668-37.8418L52.8809-30.8105Q51.1719-29.248 49.4141-29.248Q47.5586-29.248 45.9961-30.8105L40.5762-36.7188Q40.4785-36.8652 40.332-36.7188L33.8867-29.9805L33.8867-24.3652Q33.8867-23.9746 34.2285-23.9746L65.332-23.9746Q66.748-23.9746 67.7246-22.998Q68.7012-22.0215 68.7012-20.6055Q68.7012-19.1895 67.7246-18.2129Q66.748-17.2363 65.332-17.2363L31.543-17.2363Q29.5898-17.2363 28.3936-18.457Q27.1973-19.6777 27.1973-21.6309Z"/>
  </g>
  <g id="Bold-S" transform="matrix(1 0 0 1 2292.42 696)">
   <path class="hierarchical-0:tertiary SFSymbolsPreview8E8E8E" d="M47.5586 5.51758Q55.957 5.51758 63.3057 2.34375Q70.6543-0.830078 76.2695-6.46973Q81.8848-12.1094 85.083-19.458Q88.2812-26.8066 88.2812-35.2051Q88.2812-43.5547 85.083-50.9277Q81.8848-58.3008 76.2695-63.916Q70.6543-69.5312 63.2812-72.7051Q55.9082-75.8789 47.5098-75.8789Q39.1602-75.8789 31.7871-72.7051Q24.4141-69.5312 18.8232-63.916Q13.2324-58.3008 10.0342-50.9277Q6.83594-43.5547 6.83594-35.2051Q6.83594-26.8066 10.0342-19.458Q13.2324-12.1094 18.8477-6.46973Q24.4629-0.830078 31.8115 2.34375Q39.1602 5.51758 47.5586 5.51758Z"/>
   <path class="hierarchical-1:primary SFSymbolsPreview212121" d="M26.2695-21.2891L26.2695-51.1719Q26.2695-52.4902 27.1729-53.3936Q28.0762-54.2969 29.3457-54.2969Q30.6152-54.2969 31.4941-53.3936Q32.373-52.4902 32.373-51.1719L32.373-37.9883L36.084-41.8457Q37.6953-43.4082 39.4043-43.4082Q41.2598-43.4082 42.7734-41.8457L48.6328-35.5957Q48.7793-35.4492 48.9258-35.5957L55.0781-41.9434L52.9785-44.043Q52.002-45.0195 52.417-46.2646Q52.832-47.5098 54.248-47.9004L65.0391-50.7324Q66.3574-51.0742 67.334-50.1221Q68.3105-49.1699 67.9199-47.9004L65.0391-37.1094Q64.6484-35.6445 63.4033-35.2295Q62.1582-34.8145 61.1816-35.791L59.0332-37.9883L52.1484-30.9082Q50.5371-29.3457 48.7305-29.3457Q46.9238-29.3457 45.3613-30.9082L39.5508-37.1582Q39.4043-37.3535 39.2578-37.1582L32.373-30.0293L32.373-23.6816Q32.373-23.3398 32.7148-23.3398L65.3809-23.3398Q66.6504-23.3398 67.5293-22.4365Q68.4082-21.5332 68.4082-20.2637Q68.4082-18.9941 67.5293-18.1152Q66.6504-17.2363 65.3809-17.2363L30.2734-17.2363Q28.4668-17.2363 27.3682-18.335Q26.2695-19.4336 26.2695-21.2891Z"/>
  </g>
  <g id="Semibold-S" transform="matrix(1 0 0 1 1996.2 696)">
   <path class="hierarchical-0:tertiary SFSymbolsPreview8E8E8E" d="M47.0703 5.0293Q55.3711 5.0293 62.6465 1.9043Q69.9219-1.2207 75.4639-6.81152Q81.0059-12.4023 84.1553-19.6777Q87.3047-26.9531 87.3047-35.2051Q87.3047-43.457 84.1553-50.7324Q81.0059-58.0078 75.4395-63.5742Q69.873-69.1406 62.5977-72.29Q55.3223-75.4395 47.0215-75.4395Q38.7695-75.4395 31.4941-72.29Q24.2188-69.1406 18.6768-63.5742Q13.1348-58.0078 9.98535-50.7324Q6.83594-43.457 6.83594-35.2051Q6.83594-26.9531 9.98535-19.6777Q13.1348-12.4023 18.7012-6.81152Q24.2676-1.2207 31.543 1.9043Q38.8184 5.0293 47.0703 5.0293Z"/>
   <path class="hierarchical-1:primary SFSymbolsPreview212121" d="M25.6348-20.9961L25.6348-51.5137Q25.6348-52.6855 26.4648-53.54Q27.2949-54.3945 28.4668-54.3945Q29.6387-54.3945 30.4688-53.54Q31.2988-52.6855 31.2988-51.5137L31.2988-37.6953L35.4004-41.8945Q36.9141-43.457 38.6719-43.457Q40.4785-43.457 41.9922-41.8945L48.1445-35.4004Q48.3398-35.2051 48.4863-35.4004L54.7852-41.8945L52.4902-44.1406Q51.5625-45.0684 51.9775-46.2158Q52.3926-47.3633 53.7109-47.7539L64.7461-50.6348Q65.9668-50.9277 66.8701-50.0732Q67.7734-49.2188 67.4316-48.0469L64.502-36.9629Q64.1113-35.5957 62.9639-35.1807Q61.8164-34.7656 60.8887-35.6934L58.5449-38.0859L51.6113-30.957Q50.0488-29.3945 48.291-29.3945Q46.4844-29.3945 44.9219-30.957L38.8672-37.4023Q38.6719-37.6465 38.4766-37.4023L31.2988-30.0293L31.2988-23.2422Q31.2988-22.8516 31.6406-22.8516L65.3809-22.8516Q66.5527-22.8516 67.3828-22.0215Q68.2129-21.1914 68.2129-20.0195Q68.2129-18.8477 67.3828-18.0176Q66.5527-17.1875 65.3809-17.1875L29.3945-17.1875Q27.6855-17.1875 26.6602-18.2373Q25.6348-19.2871 25.6348-20.9961Z"/>
  </g>
  <g id="Medium-S" transform="matrix(1 0 0 1 1699.83 696)">
   <path class="hierarchical-0:tertiary SFSymbolsPreview8E8E8E" d="M46.7285 4.6875Q54.9316 4.6875 62.1338 1.5625Q69.3359-1.5625 74.8535-7.08008Q80.3711-12.5977 83.4961-19.7998Q86.6211-27.002 86.6211-35.2051Q86.6211-43.3594 83.4961-50.5859Q80.3711-57.8125 74.8291-63.3301Q69.2871-68.8477 62.085-71.9482Q54.8828-75.0488 46.6797-75.0488Q38.4766-75.0488 31.2744-71.9482Q24.0723-68.8477 18.5791-63.3301Q13.0859-57.8125 9.96094-50.5859Q6.83594-43.3594 6.83594-35.2051Q6.83594-27.002 9.96094-19.7998Q13.0859-12.5977 18.6035-7.08008Q24.1211-1.5625 31.3232 1.5625Q38.5254 4.6875 46.7285 4.6875Z"/>
   <path class="hierarchical-1:primary SFSymbolsPreview212121" d="M25.1465-20.8008L25.1465-51.7578Q25.1465-52.8809 25.9277-53.6621Q26.709-54.4434 27.7832-54.4434Q28.9062-54.4434 29.6875-53.6621Q30.4688-52.8809 30.4688-51.7578L30.4688-37.4512L34.8633-41.9434Q36.377-43.457 38.1348-43.457Q39.9414-43.457 41.4062-41.9434L47.8027-35.2539Q47.9492-35.0098 48.1445-35.3027L54.5898-41.7969L52.0996-44.2383Q51.2207-45.1172 51.6113-46.1914Q52.002-47.2656 53.2715-47.6562L64.5508-50.5859Q65.7227-50.8789 66.5527-50.0732Q67.3828-49.2676 67.041-48.1445L64.0625-36.8652Q63.7207-35.5469 62.6221-35.1562Q61.5234-34.7656 60.6934-35.6445L58.2031-38.1836L51.2207-31.0059Q49.707-29.4922 47.9004-29.4922Q46.1426-29.4922 44.6289-31.0059L38.2812-37.5977Q38.1348-37.8906 37.8906-37.5977L30.4688-30.0293L30.4688-22.8516Q30.4688-22.5098 30.8105-22.5098L65.4297-22.5098Q66.5039-22.5098 67.2852-21.7285Q68.0664-20.9473 68.0664-19.873Q68.0664-18.75 67.2852-17.9688Q66.5039-17.1875 65.4297-17.1875L28.7598-17.1875Q27.1484-17.1875 26.1475-18.1641Q25.1465-19.1406 25.1465-20.8008Z"/>
  </g>
  <g id="Regular-S" transform="matrix(1 0 0 1 1403.58 696)">
   <path class="hierarchical-0:tertiary SFSymbolsPreview8E8E8E" d="M46.2402 4.19922Q54.3457 4.19922 61.4746 1.12305Q68.6035-1.95312 74.0479-7.42188Q79.4922-12.8906 82.5928-20.0195Q85.6934-27.1484 85.6934-35.2051Q85.6934-43.2617 82.5928-50.3906Q79.4922-57.5195 74.0234-62.9883Q68.5547-68.457 61.4258-71.5332Q54.2969-74.6094 46.1914-74.6094Q38.1348-74.6094 31.0059-71.5332Q23.877-68.457 18.457-62.9883Q13.0371-57.5195 9.93652-50.3906Q6.83594-43.2617 6.83594-35.2051Q6.83594-27.1484 9.93652-20.0195Q13.0371-12.8906 18.4814-7.42188Q23.9258-1.95312 31.0547 1.12305Q38.1836 4.19922 46.2402 4.19922Z"/>
   <path class="hierarchical-1:primary SFSymbolsPreview212121" d="M24.5117-20.5566L24.5117-52.0508Q24.5117-53.0762 25.2441-53.8086Q25.9766-54.541 26.9531-54.541Q27.9785-54.541 28.7109-53.8086Q29.4434-53.0762 29.4434-52.0508L29.4434-37.1582L34.1797-42.041Q35.6445-43.5059 37.4023-43.5059Q39.209-43.5059 40.625-42.041L47.3145-35.0586Q47.5098-34.8145 47.7051-35.1074L54.2969-41.748L51.6113-44.3848Q50.7812-45.166 51.1719-46.167Q51.5625-47.168 52.7344-47.5098L64.2578-50.4883Q65.332-50.7812 66.0889-50.0488Q66.8457-49.3164 66.5527-48.291L63.5254-36.7188Q63.1836-35.498 62.1826-35.1074Q61.1816-34.7168 60.4004-35.5469L57.7637-38.2812L50.7324-31.0547Q49.2676-29.541 47.4609-29.541Q45.7031-29.541 44.1895-31.0547L37.5977-37.8906Q37.4023-38.1836 37.1582-37.8906L29.4434-30.0781L29.4434-22.4121Q29.4434-22.0703 29.7363-22.0703L65.4297-22.0703Q66.4062-22.0703 67.1387-21.3379Q67.8711-20.6055 67.8711-19.6289Q67.8711-18.6035 67.1387-17.8711Q66.4062-17.1387 65.4297-17.1387L27.8809-17.1387Q26.3672-17.1387 25.4395-18.0664Q24.5117-18.9941 24.5117-20.5566Z"/>
  </g>
  <g id="Light-S" transform="matrix(1 0 0 1 1107.6 696)">
   <path class="hierarchical-0:tertiary SFSymbolsPreview8E8E8E" d="M45.5078 3.4668Q53.4668 3.4668 60.4736 0.463867Q67.4805-2.53906 72.8271-7.91016Q78.1738-13.2812 81.2012-20.2637Q84.2285-27.2461 84.2285-35.2051Q84.2285-43.1641 81.2012-50.1465Q78.1738-57.1289 72.8027-62.5Q67.4316-67.8711 60.4492-70.874Q53.4668-73.877 45.459-73.877Q37.5488-73.877 30.542-70.874Q23.5352-67.8711 18.2129-62.5Q12.8906-57.1289 9.86328-50.1465Q6.83594-43.1641 6.83594-35.2051Q6.83594-27.2461 9.86328-20.2637Q12.8906-13.2812 18.2373-7.91016Q23.584-2.53906 30.5908 0.463867Q37.5977 3.4668 45.5078 3.4668Z"/>
   <path class="hierarchical-1:primary SFSymbolsPreview212121" d="M24.2676-20.166L24.2676-52.0996Q24.2676-52.9297 24.8535-53.5156Q25.4395-54.1016 26.2207-54.1016Q27.0508-54.1016 27.6611-53.5156Q28.2715-52.9297 28.2715-52.0996L28.2715-35.6445L33.3984-40.8203Q34.7168-42.0898 36.2793-42.0898Q37.8906-42.0898 39.209-40.8203L46.3867-33.4473Q46.7773-33.1055 47.0703-33.4961L54.541-41.0156L51.6113-43.9453Q50.8789-44.6289 51.1963-45.459Q51.5137-46.2891 52.4902-46.5332L63.6719-49.2188Q64.5508-49.4141 65.1855-48.8281Q65.8203-48.2422 65.5762-47.3633L62.8906-36.1328Q62.5977-35.1562 61.792-34.8389Q60.9863-34.5215 60.3027-35.2539L57.3242-38.2324L49.6582-30.3711Q48.3398-29.0039 46.6797-29.0039Q45.1172-29.0039 43.7988-30.3711L36.6211-37.5977Q36.3281-37.9883 35.9375-37.5977L28.2715-29.9805L28.2715-21.582Q28.2715-21.1914 28.6133-21.1914L64.7949-21.1914Q65.5762-21.1914 66.1621-20.6055Q66.748-20.0195 66.748-19.2383Q66.748-18.4082 66.1621-17.8223Q65.5762-17.2363 64.7949-17.2363L27.1484-17.2363Q25.8301-17.2363 25.0488-18.0176Q24.2676-18.7988 24.2676-20.166Z"/>
  </g>
  <g id="Thin-S" transform="matrix(1 0 0 1 811.867 696)">
   <path class="hierarchical-0:tertiary SFSymbolsPreview8E8E8E" d="M44.5312 2.49023Q52.3438 2.49023 59.1553-0.439453Q65.9668-3.36914 71.1914-8.59375Q76.416-13.8184 79.3457-20.6299Q82.2754-27.4414 82.2754-35.2051Q82.2754-42.9688 79.3457-49.7803Q76.416-56.5918 71.1914-61.8164Q65.9668-67.041 59.1553-69.9707Q52.3438-72.9004 44.5312-72.9004Q36.7676-72.9004 29.9316-69.9707Q23.0957-67.041 17.9199-61.8164Q12.7441-56.5918 9.79004-49.7803Q6.83594-42.9688 6.83594-35.2051Q6.83594-27.4414 9.79004-20.6299Q12.7441-13.8184 17.9199-8.59375Q23.0957-3.36914 29.9316-0.439453Q36.7676 2.49023 44.5312 2.49023Z"/>
   <path class="hierarchical-1:primary SFSymbolsPreview212121" d="M23.9258-19.6289L23.9258-52.1973Q23.9258-52.7832 24.3164-53.1738Q24.707-53.5645 25.293-53.5645Q25.8301-53.5645 26.2451-53.1738Q26.6602-52.7832 26.6602-52.1973L26.6602-33.6426L32.3242-39.1602Q33.4473-40.2832 34.8145-40.2832Q36.1816-40.2832 37.2559-39.1602L45.166-31.3477Q45.752-30.8105 46.2402-31.3965L54.834-40.0879L51.5625-43.4082Q51.0254-43.8477 51.2451-44.4824Q51.4648-45.1172 52.1973-45.3125L62.8418-47.5098Q63.5742-47.6562 64.0137-47.2168Q64.4531-46.7773 64.2578-46.0938L62.0117-35.4004Q61.8652-34.668 61.2549-34.4727Q60.6445-34.2773 60.1562-34.8633L56.7383-38.1836L48.1934-29.4922Q47.1191-28.3203 45.7031-28.3203Q44.3848-28.3203 43.2129-29.4922L35.3516-37.207Q34.8633-37.7441 34.2285-37.207L26.6602-29.7852L26.6602-20.5078Q26.6602-20.0684 27.0996-20.0684L63.916-20.0684Q64.502-20.0684 64.8926-19.6533Q65.2832-19.2383 65.2832-18.7012Q65.2832-18.1152 64.8926-17.7246Q64.502-17.334 63.916-17.334L26.123-17.334Q25.1465-17.334 24.5361-17.9443Q23.9258-18.5547 23.9258-19.6289Z"/>
  </g>
  <g id="Ultralight-S" transform="matrix(1 0 0 1 515.644 696)">
   <path class="hierarchical-0:tertiary SFSymbolsPreview8E8E8E" d="M44.043 2.00195Q51.7578 2.00195 58.4717-0.878906Q65.1855-3.75977 70.3369-8.91113Q75.4883-14.0625 78.3936-20.7764Q81.2988-27.4902 81.2988-35.2051Q81.2988-42.9199 78.3936-49.6338Q75.4883-56.3477 70.3369-61.499Q65.1855-66.6504 58.4717-69.5312Q51.7578-72.4121 44.043-72.4121Q36.377-72.4121 29.6387-69.5312Q22.9004-66.6504 17.7734-61.499Q12.6465-56.3477 9.74121-49.6338Q6.83594-42.9199 6.83594-35.2051Q6.83594-27.4902 9.74121-20.7764Q12.6465-14.0625 17.7734-8.91113Q22.9004-3.75977 29.6387-0.878906Q36.377 2.00195 44.043 2.00195Z"/>
   <path class="hierarchical-1:primary SFSymbolsPreview212121" d="M23.7793-19.3359L23.7793-52.2461Q23.7793-52.6855 24.0723-52.9785Q24.3652-53.2715 24.8047-53.2715Q25.2441-53.2715 25.5615-52.9785Q25.8789-52.6855 25.8789-52.2461L25.8789-32.6172L31.8359-38.3301Q32.8125-39.3066 34.082-39.3066Q35.3027-39.3066 36.3281-38.3301L44.5312-30.2734Q45.2637-29.6387 45.8496-30.2734L55.0293-39.5996L51.5625-43.1152Q51.123-43.5059 51.2939-43.9941Q51.4648-44.4824 52.0508-44.6289L62.4512-46.6309Q63.0371-46.7285 63.4277-46.3867Q63.8184-46.0449 63.623-45.459L61.6211-35.0098Q61.4746-34.4727 61.0107-34.3262Q60.5469-34.1797 60.1074-34.6191L56.4941-38.1348L47.4609-29.0039Q46.4844-27.9297 45.166-27.9297Q43.9941-27.9297 42.9688-29.0039L34.7168-37.0117Q34.1309-37.6465 33.4473-37.0117L25.8789-29.7363L25.8789-19.9707Q25.8789-19.4824 26.3672-19.4824L63.5254-19.4824Q63.9648-19.4824 64.2578-19.165Q64.5508-18.8477 64.5508-18.4082Q64.5508-17.9688 64.2578-17.7002Q63.9648-17.4316 63.5254-17.4316L25.6348-17.4316Q24.8047-17.4316 24.292-17.9443Q23.7793-18.457 23.7793-19.3359Z"/>
  </g>
 </g>
</svg>
