<?xml version="1.0" encoding="UTF-8"?>
<!--Generator: Apple Native CoreSVG 175-->
<!DOCTYPE svg
PUBLIC "-//W3C//DTD SVG 1.1//EN"
       "http://www.w3.org/Graphics/SVG/1.1/DTD/svg11.dtd">
<svg version="1.1" xmlns="http://www.w3.org/2000/svg" xmlns:xlink="http://www.w3.org/1999/xlink" width="3300" height="2200">
 <!--glyph: "uni100D1A.medium", point size: 100.0, font version: "17.0d12e1", template writer version: "65.1"-->
 <style>.hierarchical-0:secondary {fill:#4D4D4D}
.hierarchical-1:primary {fill:#212121}

.SFSymbolsPreview212121 {fill:#212121;opacity:1.0}
.SFSymbolsPreview4D4D4D {fill:#4D4D4D;opacity:1.0}
</style>
 <g id="Notes">
  <rect height="2200" id="artboard" style="fill:white;opacity:1" width="3300" x="0" y="0"/>
  <line style="fill:none;stroke:black;opacity:1;stroke-width:0.5;" x1="263" x2="3036" y1="292" y2="292"/>
  <text style="stroke:none;fill:black;font-family:sans-serif;font-size:13;font-weight:bold;" transform="matrix(1 0 0 1 263 322)">Weight/Scale Variations</text>
  <text style="stroke:none;fill:black;font-family:sans-serif;font-size:13;text-anchor:middle;" transform="matrix(1 0 0 1 559.711 322)">Ultralight</text>
  <text style="stroke:none;fill:black;font-family:sans-serif;font-size:13;text-anchor:middle;" transform="matrix(1 0 0 1 856.422 322)">Thin</text>
  <text style="stroke:none;fill:black;font-family:sans-serif;font-size:13;text-anchor:middle;" transform="matrix(1 0 0 1 1153.13 322)">Light</text>
  <text style="stroke:none;fill:black;font-family:sans-serif;font-size:13;text-anchor:middle;" transform="matrix(1 0 0 1 1449.84 322)">Regular</text>
  <text style="stroke:none;fill:black;font-family:sans-serif;font-size:13;text-anchor:middle;" transform="matrix(1 0 0 1 1746.56 322)">Medium</text>
  <text style="stroke:none;fill:black;font-family:sans-serif;font-size:13;text-anchor:middle;" transform="matrix(1 0 0 1 2043.27 322)">Semibold</text>
  <text style="stroke:none;fill:black;font-family:sans-serif;font-size:13;text-anchor:middle;" transform="matrix(1 0 0 1 2339.98 322)">Bold</text>
  <text style="stroke:none;fill:black;font-family:sans-serif;font-size:13;text-anchor:middle;" transform="matrix(1 0 0 1 2636.69 322)">Heavy</text>
  <text style="stroke:none;fill:black;font-family:sans-serif;font-size:13;text-anchor:middle;" transform="matrix(1 0 0 1 2933.4 322)">Black</text>
  <line style="fill:none;stroke:black;opacity:1;stroke-width:0.5;" x1="263" x2="3036" y1="1903" y2="1903"/>
  <g transform="matrix(1 0 0 1 263 1933)">
   <path d="M9.24805 0.830078Q10.8691 0.830078 12.2949 0.214844Q13.7207-0.400391 14.8096-1.49414Q15.8984-2.58789 16.5186-4.01367Q17.1387-5.43945 17.1387-7.05078Q17.1387-8.66211 16.5186-10.0879Q15.8984-11.5137 14.8047-12.6074Q13.7109-13.7012 12.2852-14.3164Q10.8594-14.9316 9.23828-14.9316Q7.62695-14.9316 6.20117-14.3164Q4.77539-13.7012 3.69141-12.6074Q2.60742-11.5137 1.9873-10.0879Q1.36719-8.66211 1.36719-7.05078Q1.36719-5.43945 1.9873-4.01367Q2.60742-2.58789 3.69629-1.49414Q4.78516-0.400391 6.21094 0.214844Q7.63672 0.830078 9.24805 0.830078ZM9.24805-0.654297Q7.91992-0.654297 6.7627-1.14746Q5.60547-1.64062 4.73145-2.51953Q3.85742-3.39844 3.36426-4.56055Q2.87109-5.72266 2.87109-7.05078Q2.87109-8.37891 3.35938-9.54102Q3.84766-10.7031 4.72168-11.582Q5.5957-12.4609 6.75293-12.9541Q7.91016-13.4473 9.23828-13.4473Q10.5762-13.4473 11.7334-12.9541Q12.8906-12.4609 13.7695-11.582Q14.6484-10.7031 15.1465-9.54102Q15.6445-8.37891 15.6445-7.05078Q15.6445-5.72266 15.1514-4.56055Q14.6582-3.39844 13.7842-2.51953Q12.9102-1.64062 11.748-1.14746Q10.5859-0.654297 9.24805-0.654297ZM5.6543-7.05078Q5.6543-6.72852 5.85938-6.52832Q6.06445-6.32812 6.40625-6.32812L8.51562-6.32812L8.51562-4.20898Q8.51562-3.88672 8.71094-3.67676Q8.90625-3.4668 9.23828-3.4668Q9.56055-3.4668 9.77051-3.67676Q9.98047-3.88672 9.98047-4.20898L9.98047-6.32812L12.0898-6.32812Q12.4219-6.32812 12.627-6.52832Q12.832-6.72852 12.832-7.05078Q12.832-7.38281 12.627-7.58789Q12.4219-7.79297 12.0898-7.79297L9.98047-7.79297L9.98047-9.90234Q9.98047-10.2344 9.77051-10.4443Q9.56055-10.6543 9.23828-10.6543Q8.90625-10.6543 8.71094-10.4443Q8.51562-10.2344 8.51562-9.90234L8.51562-7.79297L6.40625-7.79297Q6.06445-7.79297 5.85938-7.58789Q5.6543-7.38281 5.6543-7.05078Z"/>
  </g>
  <g transform="matrix(1 0 0 1 281.867 1933)">
   <path d="M11.709 2.91016Q13.75 2.91016 15.5518 2.12891Q17.3535 1.34766 18.7305-0.0292969Q20.1074-1.40625 20.8887-3.20801Q21.6699-5.00977 21.6699-7.05078Q21.6699-9.0918 20.8887-10.8936Q20.1074-12.6953 18.7305-14.0723Q17.3535-15.4492 15.5469-16.2305Q13.7402-17.0117 11.6992-17.0117Q9.6582-17.0117 7.85645-16.2305Q6.05469-15.4492 4.68262-14.0723Q3.31055-12.6953 2.5293-10.8936Q1.74805-9.0918 1.74805-7.05078Q1.74805-5.00977 2.5293-3.20801Q3.31055-1.40625 4.6875-0.0292969Q6.06445 1.34766 7.86621 2.12891Q9.66797 2.91016 11.709 2.91016ZM11.709 1.25Q9.98047 1.25 8.47656 0.605469Q6.97266-0.0390625 5.83496-1.17676Q4.69727-2.31445 4.05762-3.81836Q3.41797-5.32227 3.41797-7.05078Q3.41797-8.7793 4.05762-10.2832Q4.69727-11.7871 5.83008-12.9297Q6.96289-14.0723 8.4668-14.7119Q9.9707-15.3516 11.6992-15.3516Q13.4277-15.3516 14.9316-14.7119Q16.4355-14.0723 17.5781-12.9297Q18.7207-11.7871 19.3652-10.2832Q20.0098-8.7793 20.0098-7.05078Q20.0098-5.32227 19.3701-3.81836Q18.7305-2.31445 17.5928-1.17676Q16.4551-0.0390625 14.9463 0.605469Q13.4375 1.25 11.709 1.25ZM7.17773-7.05078Q7.17773-6.69922 7.41211-6.47461Q7.64648-6.25 8.01758-6.25L10.8887-6.25L10.8887-3.36914Q10.8887-2.99805 11.1133-2.76855Q11.3379-2.53906 11.6895-2.53906Q12.0605-2.53906 12.29-2.76855Q12.5195-2.99805 12.5195-3.36914L12.5195-6.25L15.4004-6.25Q15.7715-6.25 16.001-6.47461Q16.2305-6.69922 16.2305-7.05078Q16.2305-7.42188 16.001-7.65137Q15.7715-7.88086 15.4004-7.88086L12.5195-7.88086L12.5195-10.752Q12.5195-11.1328 12.29-11.3623Q12.0605-11.5918 11.6895-11.5918Q11.3379-11.5918 11.1133-11.3574Q10.8887-11.123 10.8887-10.752L10.8887-7.88086L8.01758-7.88086Q7.63672-7.88086 7.40723-7.65137Q7.17773-7.42188 7.17773-7.05078Z"/>
  </g>
  <g transform="matrix(1 0 0 1 305.646 1933)">
   <path d="M14.9707 5.66406Q17.0605 5.66406 18.96 5.01465Q20.8594 4.36523 22.4512 3.19336Q24.043 2.02148 25.2197 0.429688Q26.3965-1.16211 27.0459-3.06641Q27.6953-4.9707 27.6953-7.05078Q27.6953-9.14062 27.0459-11.04Q26.3965-12.9395 25.2197-14.5312Q24.043-16.123 22.4512-17.2998Q20.8594-18.4766 18.9551-19.126Q17.0508-19.7754 14.9609-19.7754Q12.8711-19.7754 10.9717-19.126Q9.07227-18.4766 7.48535-17.2998Q5.89844-16.123 4.72168-14.5312Q3.54492-12.9395 2.90039-11.04Q2.25586-9.14062 2.25586-7.05078Q2.25586-4.9707 2.90527-3.06641Q3.55469-1.16211 4.72656 0.429688Q5.89844 2.02148 7.49023 3.19336Q9.08203 4.36523 10.9814 5.01465Q12.8809 5.66406 14.9707 5.66406ZM14.9707 3.84766Q13.1641 3.84766 11.5283 3.2959Q9.89258 2.74414 8.53516 1.74805Q7.17773 0.751953 6.17676-0.610352Q5.17578-1.97266 4.62891-3.6084Q4.08203-5.24414 4.08203-7.05078Q4.08203-8.86719 4.62891-10.5029Q5.17578-12.1387 6.17188-13.501Q7.16797-14.8633 8.52539-15.8594Q9.88281-16.8555 11.5186-17.4023Q13.1543-17.9492 14.9609-17.9492Q16.7773-17.9492 18.4131-17.4023Q20.0488-16.8555 21.4111-15.8594Q22.7734-14.8633 23.7695-13.501Q24.7656-12.1387 25.3174-10.5029Q25.8691-8.86719 25.8691-7.05078Q25.8789-5.24414 25.332-3.6084Q24.7852-1.97266 23.7842-0.610352Q22.7832 0.751953 21.4209 1.74805Q20.0586 2.74414 18.4229 3.2959Q16.7871 3.84766 14.9707 3.84766ZM9.19922-7.05078Q9.19922-6.66992 9.45801-6.4209Q9.7168-6.17188 10.1172-6.17188L14.0625-6.17188L14.0625-2.2168Q14.0625-1.81641 14.3115-1.55762Q14.5605-1.29883 14.9512-1.29883Q15.3516-1.29883 15.6104-1.55273Q15.8691-1.80664 15.8691-2.2168L15.8691-6.17188L19.8242-6.17188Q20.2246-6.17188 20.4785-6.4209Q20.7324-6.66992 20.7324-7.05078Q20.7324-7.46094 20.4785-7.71484Q20.2246-7.96875 19.8242-7.96875L15.8691-7.96875L15.8691-11.9141Q15.8691-12.3242 15.6104-12.583Q15.3516-12.8418 14.9512-12.8418Q14.5605-12.8418 14.3115-12.583Q14.0625-12.3242 14.0625-11.9141L14.0625-7.96875L10.1172-7.96875Q9.70703-7.96875 9.45312-7.71484Q9.19922-7.46094 9.19922-7.05078Z"/>
  </g>
  <text style="stroke:none;fill:black;font-family:sans-serif;font-size:13;font-weight:bold;" transform="matrix(1 0 0 1 263 1953)">Design Variations</text>
  <text style="stroke:none;fill:black;font-family:sans-serif;font-size:13;" transform="matrix(1 0 0 1 263 1971)">Symbols are supported in up to nine weights and three scales.</text>
  <text style="stroke:none;fill:black;font-family:sans-serif;font-size:13;" transform="matrix(1 0 0 1 263 1989)">For optimal layout with text and other symbols, vertically align</text>
  <text style="stroke:none;fill:black;font-family:sans-serif;font-size:13;" transform="matrix(1 0 0 1 263 2007)">symbols with the adjacent text.</text>
  <line style="fill:none;stroke:#00AEEF;stroke-width:0.5;opacity:1.0;" x1="776" x2="776" y1="1919" y2="1933"/>
  <g transform="matrix(1 0 0 1 776 1933)">
   <path d="M3.31055 0.15625Q3.70117 0.15625 3.91602-0.00976562Q4.13086-0.175781 4.26758-0.585938L5.52734-4.0332L11.2891-4.0332L12.5488-0.585938Q12.6855-0.175781 12.9004-0.00976562Q13.1152 0.15625 13.4961 0.15625Q13.8867 0.15625 14.1162-0.0585938Q14.3457-0.273438 14.3457-0.644531Q14.3457-0.869141 14.2383-1.17188L9.6582-13.3691Q9.48242-13.8184 9.17969-14.043Q8.87695-14.2676 8.4082-14.2676Q7.5-14.2676 7.17773-13.3789L2.59766-1.16211Q2.49023-0.859375 2.49023-0.634766Q2.49023-0.263672 2.70996-0.0537109Q2.92969 0.15625 3.31055 0.15625ZM6.00586-5.51758L8.37891-12.0898L8.42773-12.0898L10.8008-5.51758Z"/>
  </g>
  <line style="fill:none;stroke:#00AEEF;stroke-width:0.5;opacity:1.0;" x1="793.197" x2="793.197" y1="1919" y2="1933"/>
  <text style="stroke:none;fill:black;font-family:sans-serif;font-size:13;font-weight:bold;" transform="matrix(1 0 0 1 776 1953)">Margins</text>
  <text style="stroke:none;fill:black;font-family:sans-serif;font-size:13;" transform="matrix(1 0 0 1 776 1971)">Leading and trailing margins on the left and right side of each symbol</text>
  <text style="stroke:none;fill:black;font-family:sans-serif;font-size:13;" transform="matrix(1 0 0 1 776 1989)">can be adjusted by modifying the x-location of the margin guidelines.</text>
  <text style="stroke:none;fill:black;font-family:sans-serif;font-size:13;" transform="matrix(1 0 0 1 776 2007)">Modifications are automatically applied proportionally to all</text>
  <text style="stroke:none;fill:black;font-family:sans-serif;font-size:13;" transform="matrix(1 0 0 1 776 2025)">scales and weights.</text>
  <g transform="matrix(1 0 0 1 1289 1933)">
   <path d="M2.8418 1.86523L4.54102 3.57422Q5.18555 4.22852 5.90332 4.17969Q6.62109 4.13086 7.31445 3.35938L18.0078-8.42773L17.041-9.4043L6.42578 2.27539Q6.16211 2.57812 5.89355 2.61719Q5.625 2.65625 5.27344 2.30469L4.10156 1.14258Q3.75 0.791016 3.79395 0.522461Q3.83789 0.253906 4.14062-0.0195312L15.6152-10.8203L14.6387-11.7871L3.04688-0.898438Q2.30469-0.214844 2.25098 0.498047Q2.19727 1.21094 2.8418 1.86523ZM9.25781-16.3281Q8.94531-16.0254 8.90625-15.6348Q8.86719-15.2441 9.04297-14.9512Q9.21875-14.6777 9.55566-14.541Q9.89258-14.4043 10.3809-14.5215Q11.4746-14.7754 12.5977-14.7314Q13.7207-14.6875 14.7949-13.9844L14.209-12.5293Q13.9551-11.9043 14.0674-11.4404Q14.1797-10.9766 14.5801-10.5664L16.875-8.25195Q17.2363-7.88086 17.5781-7.82227Q17.9199-7.76367 18.3398-7.8418L19.4043-8.03711L20.0684-7.36328L20.0293-6.80664Q20-6.43555 20.1221-6.12305Q20.2441-5.81055 20.6055-5.44922L21.3672-4.70703Q21.7285-4.3457 22.1533-4.33105Q22.5781-4.31641 22.9297-4.66797L25.8398-7.58789Q26.1914-7.93945 26.1816-8.35449Q26.1719-8.76953 25.8105-9.13086L25.0391-9.89258Q24.6875-10.2539 24.3799-10.3857Q24.0723-10.5176 23.7109-10.4883L23.1348-10.4395L22.4902-11.0742L22.7344-12.1973Q22.832-12.6172 22.6953-12.9834Q22.5586-13.3496 22.1191-13.7891L19.9219-15.9766Q18.6719-17.2168 17.2607-17.8369Q15.8496-18.457 14.4189-18.4814Q12.9883-18.5059 11.665-17.959Q10.3418-17.4121 9.25781-16.3281ZM10.752-15.957Q11.6602-16.6211 12.7002-16.9043Q13.7402-17.1875 14.8047-17.085Q15.8691-16.9824 16.8701-16.5137Q17.8711-16.0449 18.7012-15.2051L21.1328-12.793Q21.3086-12.6172 21.3525-12.4512Q21.3965-12.2852 21.3379-12.0312L21.0156-10.5469L22.5195-9.0625L23.5059-9.12109Q23.6914-9.13086 23.7891-9.09668Q23.8867-9.0625 24.0332-8.91602L24.6094-8.33984L22.168-5.89844L21.5918-6.47461Q21.4453-6.62109 21.4062-6.71875Q21.3672-6.81641 21.377-7.01172L21.4453-7.98828L19.9512-9.47266L18.4277-9.21875Q18.1836-9.16992 18.042-9.2041Q17.9004-9.23828 17.7148-9.41406L15.7129-11.416Q15.5176-11.5918 15.4932-11.7529Q15.4688-11.9141 15.5859-12.1875L16.4648-14.2773Q15.293-15.3711 13.8281-15.791Q12.3633-16.2109 10.8398-15.7617Q10.7227-15.7324 10.6885-15.8057Q10.6543-15.8789 10.752-15.957Z"/>
  </g>
  <text style="stroke:none;fill:black;font-family:sans-serif;font-size:13;font-weight:bold;" transform="matrix(1 0 0 1 1289 1953)">Exporting</text>
  <text style="stroke:none;fill:black;font-family:sans-serif;font-size:13;" transform="matrix(1 0 0 1 1289 1971)">Symbols should be outlined when exporting to ensure the</text>
  <text style="stroke:none;fill:black;font-family:sans-serif;font-size:13;" transform="matrix(1 0 0 1 1289 1989)">design is preserved when submitting to Xcode.</text>
  <text id="template-version" style="stroke:none;fill:black;font-family:sans-serif;font-size:13;text-anchor:end;" transform="matrix(1 0 0 1 3036 1933)">Template v.3.0</text>
  <text style="stroke:none;fill:black;font-family:sans-serif;font-size:13;text-anchor:end;" transform="matrix(1 0 0 1 3036 1951)">Requires Xcode 13 or greater</text>
  <text id="descriptive-name" style="stroke:none;fill:black;font-family:sans-serif;font-size:13;text-anchor:end;" transform="matrix(1 0 0 1 3036 1969)">Generated from chart.line.uptrend.xyaxis.circle</text>
  <text style="stroke:none;fill:black;font-family:sans-serif;font-size:13;text-anchor:end;" transform="matrix(1 0 0 1 3036 1987)">Typeset at 100 points</text>
  <text style="stroke:none;fill:black;font-family:sans-serif;font-size:13;" transform="matrix(1 0 0 1 263 726)">Small</text>
  <text style="stroke:none;fill:black;font-family:sans-serif;font-size:13;" transform="matrix(1 0 0 1 263 1156)">Medium</text>
  <text style="stroke:none;fill:black;font-family:sans-serif;font-size:13;" transform="matrix(1 0 0 1 263 1586)">Large</text>
 </g>
 <g id="Guides">
  <g id="H-reference" style="fill:#27AAE1;stroke:none;" transform="matrix(1 0 0 1 339 696)">
   <path d="M0.976562 0L3.66211 0L29.3457-67.1387L30.0293-67.1387L30.0293-70.459L28.125-70.459ZM11.6699-24.4629L46.9727-24.4629L46.2402-26.709L12.4512-26.709ZM55.127 0L57.7637 0L30.6152-70.459L29.4434-70.459L29.4434-67.1387Z"/>
  </g>
  <line id="Baseline-S" style="fill:none;stroke:#27AAE1;opacity:1;stroke-width:0.5;" x1="263" x2="3036" y1="696" y2="696"/>
  <line id="Capline-S" style="fill:none;stroke:#27AAE1;opacity:1;stroke-width:0.5;" x1="263" x2="3036" y1="625.541" y2="625.541"/>
  <g id="H-reference" style="fill:#27AAE1;stroke:none;" transform="matrix(1 0 0 1 339 1126)">
   <path d="M0.976562 0L3.66211 0L29.3457-67.1387L30.0293-67.1387L30.0293-70.459L28.125-70.459ZM11.6699-24.4629L46.9727-24.4629L46.2402-26.709L12.4512-26.709ZM55.127 0L57.7637 0L30.6152-70.459L29.4434-70.459L29.4434-67.1387Z"/>
  </g>
  <line id="Baseline-M" style="fill:none;stroke:#27AAE1;opacity:1;stroke-width:0.5;" x1="263" x2="3036" y1="1126" y2="1126"/>
  <line id="Capline-M" style="fill:none;stroke:#27AAE1;opacity:1;stroke-width:0.5;" x1="263" x2="3036" y1="1055.54" y2="1055.54"/>
  <g id="H-reference" style="fill:#27AAE1;stroke:none;" transform="matrix(1 0 0 1 339 1556)">
   <path d="M0.976562 0L3.66211 0L29.3457-67.1387L30.0293-67.1387L30.0293-70.459L28.125-70.459ZM11.6699-24.4629L46.9727-24.4629L46.2402-26.709L12.4512-26.709ZM55.127 0L57.7637 0L30.6152-70.459L29.4434-70.459L29.4434-67.1387Z"/>
  </g>
  <line id="Baseline-L" style="fill:none;stroke:#27AAE1;opacity:1;stroke-width:0.5;" x1="263" x2="3036" y1="1556" y2="1556"/>
  <line id="Capline-L" style="fill:none;stroke:#27AAE1;opacity:1;stroke-width:0.5;" x1="263" x2="3036" y1="1485.54" y2="1485.54"/>
  <line id="left-margin-Ultralight-S" style="fill:none;stroke:#00AEEF;stroke-width:0.5;opacity:1.0;" x1="515.644" x2="515.644" y1="600.785" y2="720.121"/>
  <line id="right-margin-Ultralight-S" style="fill:none;stroke:#00AEEF;stroke-width:0.5;opacity:1.0;" x1="603.778" x2="603.778" y1="600.785" y2="720.121"/>
  <line id="left-margin-Thin-S" style="fill:none;stroke:#00AEEF;stroke-width:0.5;opacity:1.0;" x1="811.867" x2="811.867" y1="600.785" y2="720.121"/>
  <line id="right-margin-Thin-S" style="fill:none;stroke:#00AEEF;stroke-width:0.5;opacity:1.0;" x1="900.978" x2="900.978" y1="600.785" y2="720.121"/>
  <line id="left-margin-Light-S" style="fill:none;stroke:#00AEEF;stroke-width:0.5;opacity:1.0;" x1="1107.6" x2="1107.6" y1="600.785" y2="720.121"/>
  <line id="right-margin-Light-S" style="fill:none;stroke:#00AEEF;stroke-width:0.5;opacity:1.0;" x1="1198.67" x2="1198.67" y1="600.785" y2="720.121"/>
  <line id="left-margin-Regular-S" style="fill:none;stroke:#00AEEF;stroke-width:0.5;opacity:1.0;" x1="1403.58" x2="1403.58" y1="600.785" y2="720.121"/>
  <line id="right-margin-Regular-S" style="fill:none;stroke:#00AEEF;stroke-width:0.5;opacity:1.0;" x1="1496.11" x2="1496.11" y1="600.785" y2="720.121"/>
  <line id="left-margin-Medium-S" style="fill:none;stroke:#00AEEF;stroke-width:0.5;opacity:1.0;" x1="1699.83" x2="1699.83" y1="600.785" y2="720.121"/>
  <line id="right-margin-Medium-S" style="fill:none;stroke:#00AEEF;stroke-width:0.5;opacity:1.0;" x1="1793.28" x2="1793.28" y1="600.785" y2="720.121"/>
  <line id="left-margin-Semibold-S" style="fill:none;stroke:#00AEEF;stroke-width:0.5;opacity:1.0;" x1="1996.2" x2="1996.2" y1="600.785" y2="720.121"/>
  <line id="right-margin-Semibold-S" style="fill:none;stroke:#00AEEF;stroke-width:0.5;opacity:1.0;" x1="2090.34" x2="2090.34" y1="600.785" y2="720.121"/>
  <line id="left-margin-Bold-S" style="fill:none;stroke:#00AEEF;stroke-width:0.5;opacity:1.0;" x1="2292.42" x2="2292.42" y1="600.785" y2="720.121"/>
  <line id="right-margin-Bold-S" style="fill:none;stroke:#00AEEF;stroke-width:0.5;opacity:1.0;" x1="2387.54" x2="2387.54" y1="600.785" y2="720.121"/>
  <line id="left-margin-Heavy-S" style="fill:none;stroke:#00AEEF;stroke-width:0.5;opacity:1.0;" x1="2588.47" x2="2588.47" y1="600.785" y2="720.121"/>
  <line id="right-margin-Heavy-S" style="fill:none;stroke:#00AEEF;stroke-width:0.5;opacity:1.0;" x1="2684.91" x2="2684.91" y1="600.785" y2="720.121"/>
  <line id="left-margin-Black-S" style="fill:none;stroke:#00AEEF;stroke-width:0.5;opacity:1.0;" x1="2884.57" x2="2884.57" y1="600.785" y2="720.121"/>
  <line id="right-margin-Black-S" style="fill:none;stroke:#00AEEF;stroke-width:0.5;opacity:1.0;" x1="2982.23" x2="2982.23" y1="600.785" y2="720.121"/>
  <line id="left-margin-Ultralight-M" style="fill:none;stroke:#00AEEF;stroke-width:0.5;opacity:1.0;" x1="503.632" x2="503.632" y1="1030.79" y2="1150.12"/>
  <line id="right-margin-Ultralight-M" style="fill:none;stroke:#00AEEF;stroke-width:0.5;opacity:1.0;" x1="615.79" x2="615.79" y1="1030.79" y2="1150.12"/>
  <line id="left-margin-Thin-M" style="fill:none;stroke:#00AEEF;stroke-width:0.5;opacity:1.0;" x1="799.782" x2="799.782" y1="1030.79" y2="1150.12"/>
  <line id="right-margin-Thin-M" style="fill:none;stroke:#00AEEF;stroke-width:0.5;opacity:1.0;" x1="913.063" x2="913.063" y1="1030.79" y2="1150.12"/>
  <line id="left-margin-Light-M" style="fill:none;stroke:#00AEEF;stroke-width:0.5;opacity:1.0;" x1="1095.42" x2="1095.42" y1="1030.79" y2="1150.12"/>
  <line id="right-margin-Light-M" style="fill:none;stroke:#00AEEF;stroke-width:0.5;opacity:1.0;" x1="1210.85" x2="1210.85" y1="1030.79" y2="1150.12"/>
  <line id="left-margin-Regular-M" style="fill:none;stroke:#00AEEF;stroke-width:0.5;opacity:1.0;" x1="1391.3" x2="1391.3" y1="1030.79" y2="1150.12"/>
  <line id="right-margin-Regular-M" style="fill:none;stroke:#00AEEF;stroke-width:0.5;opacity:1.0;" x1="1508.39" x2="1508.39" y1="1030.79" y2="1150.12"/>
  <line id="left-margin-Medium-M" style="fill:none;stroke:#00AEEF;stroke-width:0.5;opacity:1.0;" x1="1687.38" x2="1687.38" y1="1030.79" y2="1150.12"/>
  <line id="right-margin-Medium-M" style="fill:none;stroke:#00AEEF;stroke-width:0.5;opacity:1.0;" x1="1805.74" x2="1805.74" y1="1030.79" y2="1150.12"/>
  <line id="left-margin-Semibold-M" style="fill:none;stroke:#00AEEF;stroke-width:0.5;opacity:1.0;" x1="1983.6" x2="1983.6" y1="1030.79" y2="1150.12"/>
  <line id="right-margin-Semibold-M" style="fill:none;stroke:#00AEEF;stroke-width:0.5;opacity:1.0;" x1="2102.93" x2="2102.93" y1="1030.79" y2="1150.12"/>
  <line id="left-margin-Bold-M" style="fill:none;stroke:#00AEEF;stroke-width:0.5;opacity:1.0;" x1="2279.65" x2="2279.65" y1="1030.79" y2="1150.12"/>
  <line id="right-margin-Bold-M" style="fill:none;stroke:#00AEEF;stroke-width:0.5;opacity:1.0;" x1="2400.3" x2="2400.3" y1="1030.79" y2="1150.12"/>
  <line id="left-margin-Heavy-M" style="fill:none;stroke:#00AEEF;stroke-width:0.5;opacity:1.0;" x1="2575.43" x2="2575.43" y1="1030.79" y2="1150.12"/>
  <line id="right-margin-Heavy-M" style="fill:none;stroke:#00AEEF;stroke-width:0.5;opacity:1.0;" x1="2697.94" x2="2697.94" y1="1030.79" y2="1150.12"/>
  <line id="left-margin-Black-M" style="fill:none;stroke:#00AEEF;stroke-width:0.5;opacity:1.0;" x1="2871.32" x2="2871.32" y1="1030.79" y2="1150.12"/>
  <line id="right-margin-Black-M" style="fill:none;stroke:#00AEEF;stroke-width:0.5;opacity:1.0;" x1="2995.48" x2="2995.48" y1="1030.79" y2="1150.12"/>
  <line id="left-margin-Ultralight-L" style="fill:none;stroke:#00AEEF;stroke-width:0.5;opacity:1.0;" x1="487.592" x2="487.592" y1="1460.79" y2="1580.12"/>
  <line id="right-margin-Ultralight-L" style="fill:none;stroke:#00AEEF;stroke-width:0.5;opacity:1.0;" x1="631.83" x2="631.83" y1="1460.79" y2="1580.12"/>
  <line id="left-margin-Thin-L" style="fill:none;stroke:#00AEEF;stroke-width:0.5;opacity:1.0;" x1="783.693" x2="783.693" y1="1460.79" y2="1580.12"/>
  <line id="right-margin-Thin-L" style="fill:none;stroke:#00AEEF;stroke-width:0.5;opacity:1.0;" x1="929.152" x2="929.152" y1="1460.79" y2="1580.12"/>
  <line id="left-margin-Light-L" style="fill:none;stroke:#00AEEF;stroke-width:0.5;opacity:1.0;" x1="1079.18" x2="1079.18" y1="1460.79" y2="1580.12"/>
  <line id="right-margin-Light-L" style="fill:none;stroke:#00AEEF;stroke-width:0.5;opacity:1.0;" x1="1227.08" x2="1227.08" y1="1460.79" y2="1580.12"/>
  <line id="left-margin-Regular-L" style="fill:none;stroke:#00AEEF;stroke-width:0.5;opacity:1.0;" x1="1374.97" x2="1374.97" y1="1460.79" y2="1580.12"/>
  <line id="right-margin-Regular-L" style="fill:none;stroke:#00AEEF;stroke-width:0.5;opacity:1.0;" x1="1524.72" x2="1524.72" y1="1460.79" y2="1580.12"/>
  <line id="left-margin-Medium-L" style="fill:none;stroke:#00AEEF;stroke-width:0.5;opacity:1.0;" x1="1670.87" x2="1670.87" y1="1460.79" y2="1580.12"/>
  <line id="right-margin-Medium-L" style="fill:none;stroke:#00AEEF;stroke-width:0.5;opacity:1.0;" x1="1822.24" x2="1822.24" y1="1460.79" y2="1580.12"/>
  <line id="left-margin-Semibold-L" style="fill:none;stroke:#00AEEF;stroke-width:0.5;opacity:1.0;" x1="1966.97" x2="1966.97" y1="1460.79" y2="1580.12"/>
  <line id="right-margin-Semibold-L" style="fill:none;stroke:#00AEEF;stroke-width:0.5;opacity:1.0;" x1="2119.56" x2="2119.56" y1="1460.79" y2="1580.12"/>
  <line id="left-margin-Bold-L" style="fill:none;stroke:#00AEEF;stroke-width:0.5;opacity:1.0;" x1="2262.85" x2="2262.85" y1="1460.79" y2="1580.12"/>
  <line id="right-margin-Bold-L" style="fill:none;stroke:#00AEEF;stroke-width:0.5;opacity:1.0;" x1="2417.1" x2="2417.1" y1="1460.79" y2="1580.12"/>
  <line id="left-margin-Heavy-L" style="fill:none;stroke:#00AEEF;stroke-width:0.5;opacity:1.0;" x1="2558.39" x2="2558.39" y1="1460.79" y2="1580.12"/>
  <line id="right-margin-Heavy-L" style="fill:none;stroke:#00AEEF;stroke-width:0.5;opacity:1.0;" x1="2714.98" x2="2714.98" y1="1460.79" y2="1580.12"/>
  <line id="left-margin-Black-L" style="fill:none;stroke:#00AEEF;stroke-width:0.5;opacity:1.0;" x1="2854.05" x2="2854.05" y1="1460.79" y2="1580.12"/>
  <line id="right-margin-Black-L" style="fill:none;stroke:#00AEEF;stroke-width:0.5;opacity:1.0;" x1="3012.75" x2="3012.75" y1="1460.79" y2="1580.12"/>
 </g>
 <g id="Symbols">
  <g id="Black-L" transform="matrix(1 0 0 1 2854.05 1556)">
   <path class="hierarchical-0:secondary SFSymbolsPreview4D4D4D" d="M79.3457 32.8613Q90.5762 32.8613 100.757 29.3945Q110.938 25.9277 119.458 19.6777Q127.979 13.4277 134.229 4.90723Q140.479-3.61328 143.945-13.7939Q147.412-23.9746 147.412-35.2051Q147.412-46.4355 143.945-56.6162Q140.479-66.7969 134.204-75.3174Q127.93-83.8379 119.434-90.1123Q110.938-96.3867 100.732-99.8291Q90.5273-103.271 79.2969-103.271Q68.1152-103.271 57.9102-99.8291Q47.7051-96.3867 39.209-90.1123Q30.7129-83.8379 24.4385-75.3174Q18.1641-66.7969 14.7217-56.6162Q11.2793-46.4355 11.2793-35.2051Q11.2793-23.9746 14.7217-13.7939Q18.1641-3.61328 24.4385 4.90723Q30.7129 13.4277 39.2334 19.6777Q47.7539 25.9277 57.9346 29.3945Q68.1152 32.8613 79.3457 32.8613ZM79.3457 12.4023Q71.4355 12.4023 64.2822 10.0098Q57.1289 7.61719 51.1963 3.24707Q45.2637-1.12305 40.8936-7.08008Q36.5234-13.0371 34.1309-20.166Q31.7383-27.2949 31.7383-35.2051Q31.7383-43.1152 34.1309-50.2686Q36.5234-57.4219 40.8936-63.3545Q45.2637-69.2871 51.1963-73.6572Q57.1289-78.0273 64.2578-80.4199Q71.3867-82.8125 79.2969-82.8125Q87.207-82.8125 94.3604-80.4199Q101.514-78.0273 107.471-73.6572Q113.428-69.2871 117.798-63.3545Q122.168-57.4219 124.561-50.2686Q126.953-43.1152 126.953-35.2051Q126.953-27.2949 124.561-20.166Q122.168-13.0371 117.798-7.08008Q113.428-1.12305 107.495 3.24707Q101.562 7.61719 94.4092 10.0098Q87.2559 12.4023 79.3457 12.4023Z"/>
   <path class="hierarchical-1:primary SFSymbolsPreview212121" d="M48.2422-14.9414Q48.2422-12.2559 49.8535-10.6201Q51.4648-8.98438 54.1504-8.98438L105.078-8.98438Q106.934-8.98438 108.252-10.2295Q109.57-11.4746 109.57-13.4277Q109.57-15.3809 108.252-16.626Q106.934-17.8711 105.078-17.8711L57.4707-17.8711Q57.0801-17.8711 57.0801-18.2617L57.0801-58.6426Q57.0801-60.5957 55.835-61.8896Q54.5898-63.1836 52.6367-63.1836Q50.7324-63.1836 49.4873-61.8896Q48.2422-60.5957 48.2422-58.6426ZM56.0059-26.6113L67.041-38.1348Q67.5293-38.6719 68.0664-38.1348L76.3184-29.248Q78.4668-27.0508 81.0547-27.0508Q83.5938-27.0508 85.8398-29.248L96.4355-40.0391L99.707-36.6699Q101.074-35.3027 102.783-35.9375Q104.492-36.5723 105.029-38.5254L109.326-54.2969Q109.814-56.1035 108.447-57.4219Q107.08-58.7402 105.273-58.252L89.5508-54.0527Q87.5977-53.5156 86.9629-51.8066Q86.3281-50.0977 87.7441-48.6816L90.8691-45.6055L81.543-35.9375Q81.0547-35.4004 80.5664-35.9863L72.3145-44.873Q70.166-47.1191 67.5293-47.1191Q64.9902-47.1191 62.8418-44.873L50.4395-32.1289Z"/>
  </g>
  <g id="Heavy-L" transform="matrix(1 0 0 1 2558.39 1556)">
   <path class="hierarchical-0:secondary SFSymbolsPreview4D4D4D" d="M78.2715 31.7871Q89.3555 31.7871 99.3652 28.3691Q109.375 24.9512 117.749 18.7988Q126.123 12.6465 132.3 4.24805Q138.477-4.15039 141.895-14.1602Q145.312-24.1699 145.312-35.2051Q145.312-46.2402 141.895-56.2744Q138.477-66.3086 132.3-74.6826Q126.123-83.0566 117.749-89.2578Q109.375-95.459 99.3408-98.8525Q89.3066-102.246 78.2227-102.246Q67.2363-102.246 57.2021-98.8525Q47.168-95.459 38.7939-89.2578Q30.4199-83.0566 24.2432-74.6826Q18.0664-66.3086 14.6729-56.2744Q11.2793-46.2402 11.2793-35.2051Q11.2793-24.1699 14.6729-14.1602Q18.0664-4.15039 24.2432 4.24805Q30.4199 12.6465 38.8184 18.7988Q47.2168 24.9512 57.2266 28.3691Q67.2363 31.7871 78.2715 31.7871ZM78.2715 14.0137Q70.1172 14.0137 62.7197 11.5479Q55.3223 9.08203 49.1943 4.56543Q43.0664 0.0488281 38.5498-6.12793Q34.0332-12.3047 31.543-19.6777Q29.0527-27.0508 29.0527-35.2051Q29.0527-43.4082 31.543-50.8057Q34.0332-58.2031 38.5254-64.3311Q43.0176-70.459 49.1699-74.9756Q55.3223-79.4922 62.6953-81.9824Q70.0684-84.4727 78.2227-84.4727Q86.4258-84.4727 93.8232-81.9824Q101.221-79.4922 107.373-74.9756Q113.525-70.459 118.042-64.3311Q122.559-58.2031 125.049-50.8057Q127.539-43.4082 127.539-35.2051Q127.539-27.0508 125.049-19.6777Q122.559-12.3047 118.042-6.12793Q113.525 0.0488281 107.397 4.56543Q101.27 9.08203 93.8721 11.5479Q86.4746 14.0137 78.2715 14.0137Z"/>
   <path class="hierarchical-1:primary SFSymbolsPreview212121" d="M46.4844-14.0137Q46.4844-11.4746 47.998-9.93652Q49.5117-8.39844 52.0508-8.39844L105.273-8.39844Q106.982-8.39844 108.203-9.5459Q109.424-10.6934 109.424-12.5Q109.424-14.3066 108.203-15.4785Q106.982-16.6504 105.273-16.6504L55.0781-16.6504Q54.6875-16.6504 54.6875-16.9922L54.6875-59.5703Q54.6875-61.3281 53.5156-62.5488Q52.3438-63.7695 50.5859-63.7695Q48.8281-63.7695 47.6562-62.5488Q46.4844-61.3281 46.4844-59.5703ZM53.6133-26.3672L65.2344-38.3301Q65.7715-38.916 66.3086-38.3301L75.3418-28.8086Q77.4902-26.6113 80.0293-26.6113Q82.6172-26.6113 84.7656-28.8086L95.8496-40.0391L99.5117-36.3281Q100.781-35.0586 102.393-35.6445Q104.004-36.2305 104.492-38.0859L108.789-54.3457Q109.277-56.0547 107.983-57.2998Q106.689-58.5449 104.98-58.0566L88.7695-53.8574Q86.9141-53.3691 86.3037-51.7578Q85.6934-50.1465 87.0605-48.8281L90.5762-45.3613L80.5664-35.0586Q80.0781-34.4727 79.541-35.0586L70.459-44.6777Q68.3594-46.875 65.7227-46.875Q63.1836-46.875 61.084-44.6777L48.3398-31.6406Z"/>
  </g>
  <g id="Bold-L" transform="matrix(1 0 0 1 2262.85 1556)">
   <path class="hierarchical-0:secondary SFSymbolsPreview4D4D4D" d="M77.0996 30.6152Q87.9395 30.6152 97.7783 27.2461Q107.617 23.877 115.869 17.8223Q124.121 11.7676 130.176 3.51562Q136.23-4.73633 139.6-14.5752Q142.969-24.4141 142.969-35.2539Q142.969-46.0938 139.6-55.9326Q136.23-65.7715 130.151-73.999Q124.072-82.2266 115.845-88.3057Q107.617-94.3848 97.7539-97.7295Q87.8906-101.074 77.0508-101.074Q66.2598-101.074 56.3965-97.7295Q46.5332-94.3848 38.3301-88.3057Q30.127-82.2266 24.0479-73.999Q17.9688-65.7715 14.624-55.9326Q11.2793-46.0938 11.2793-35.2539Q11.2793-24.4141 14.624-14.5752Q17.9688-4.73633 24.0479 3.51562Q30.127 11.7676 38.3545 17.8223Q46.582 23.877 56.4209 27.2461Q66.2598 30.6152 77.0996 30.6152ZM77.0996 15.8203Q68.6523 15.8203 60.9863 13.2568Q53.3203 10.6934 46.9482 6.00586Q40.5762 1.31836 35.8887-5.07812Q31.2012-11.4746 28.6377-19.1162Q26.0742-26.7578 26.0742-35.2539Q26.0742-43.75 28.6377-51.416Q31.2012-59.082 35.8887-65.4541Q40.5762-71.8262 46.9238-76.4893Q53.2715-81.1523 60.9375-83.7158Q68.6035-86.2793 77.0508-86.2793Q85.5469-86.2793 93.2129-83.7158Q100.879-81.1523 107.275-76.4893Q113.672-71.8262 118.335-65.4541Q122.998-59.082 125.586-51.416Q128.174-43.75 128.174-35.2539Q128.174-26.7578 125.61-19.1162Q123.047-11.4746 118.359-5.07812Q113.672 1.31836 107.3 6.00586Q100.928 10.6934 93.2617 13.2568Q85.5957 15.8203 77.0996 15.8203Z"/>
   <path class="hierarchical-1:primary SFSymbolsPreview212121" d="M44.5312-12.9883Q44.5312-10.5957 45.9717-9.15527Q47.4121-7.71484 49.7559-7.71484L105.518-7.71484Q107.031-7.71484 108.154-8.78906Q109.277-9.86328 109.277-11.4746Q109.277-13.0859 108.179-14.1602Q107.08-15.2344 105.518-15.2344L52.3926-15.2344Q52.0508-15.2344 52.0508-15.5762L52.0508-60.5957Q52.0508-62.207 50.9766-63.3057Q49.9023-64.4043 48.291-64.4043Q46.7285-64.4043 45.6299-63.3057Q44.5312-62.207 44.5312-60.5957ZM50.9277-26.123L63.1836-38.623Q63.7695-39.209 64.3555-38.623L74.2676-28.3203Q76.4648-26.1719 78.9551-26.1719Q81.4941-26.1719 83.6426-28.3203L95.2148-40.0879L99.2676-35.9863Q100.488-34.7656 101.978-35.3027Q103.467-35.8398 103.955-37.5977L108.252-54.4434Q108.691-56.0547 107.495-57.2021Q106.299-58.3496 104.688-57.9102L87.8906-53.7109Q86.1816-53.2227 85.6201-51.709Q85.0586-50.1953 86.2793-49.0234L90.2344-45.0684L79.4922-34.082Q79.0039-33.4473 78.418-34.082L68.4082-44.4336Q66.3574-46.6309 63.7695-46.6309Q61.1816-46.6309 59.1309-44.4336L45.9961-31.1035Z"/>
  </g>
  <g id="Semibold-L" transform="matrix(1 0 0 1 1966.97 1556)">
   <path class="hierarchical-0:secondary SFSymbolsPreview4D4D4D" d="M76.2695 29.7852Q86.9629 29.7852 96.6797 26.4648Q106.396 23.1445 114.551 17.1631Q122.705 11.1816 128.687 3.02734Q134.668-5.12695 137.988-14.8438Q141.309-24.5605 141.309-35.2539Q141.309-45.9473 137.988-55.6641Q134.668-65.3809 128.662-73.5107Q122.656-81.6406 114.526-87.6465Q106.396-93.6523 96.6553-96.9727Q86.9141-100.293 76.2207-100.293Q65.5273-100.293 55.8105-96.9727Q46.0938-93.6523 37.9883-87.6465Q29.8828-81.6406 23.877-73.5107Q17.8711-65.3809 14.5752-55.6641Q11.2793-45.9473 11.2793-35.2539Q11.2793-24.5605 14.5996-14.8438Q17.9199-5.12695 23.9014 3.02734Q29.8828 11.1816 38.0127 17.1631Q46.1426 23.1445 55.8594 26.4648Q65.5762 29.7852 76.2695 29.7852ZM76.2695 17.041Q67.627 17.041 59.7656 14.4043Q51.9043 11.7676 45.3857 6.98242Q38.8672 2.19727 34.0576-4.3457Q29.248-10.8887 26.6357-18.7256Q24.0234-26.5625 24.0234-35.2539Q24.0234-43.9453 26.6357-51.8066Q29.248-59.668 34.0332-66.1865Q38.8184-72.7051 45.3369-77.4902Q51.8555-82.2754 59.7168-84.9121Q67.5781-87.5488 76.2207-87.5488Q84.9609-87.5488 92.7979-84.9121Q100.635-82.2754 107.178-77.4902Q113.721-72.7051 118.506-66.1865Q123.291-59.668 125.928-51.8066Q128.564-43.9453 128.564-35.2539Q128.613-26.5625 126.001-18.7256Q123.389-10.8887 118.579-4.3457Q113.77 2.19727 107.227 6.98242Q100.684 11.7676 92.8467 14.4043Q85.0098 17.041 76.2695 17.041Z"/>
   <path class="hierarchical-1:primary SFSymbolsPreview212121" d="M43.1641-12.2559Q43.1641-10.0098 44.5312-8.64258Q45.8984-7.27539 48.0957-7.27539L105.615-7.27539Q107.031-7.27539 108.081-8.27637Q109.131-9.27734 109.131-10.7422Q109.131-12.207 108.105-13.2324Q107.08-14.2578 105.615-14.2578L50.4883-14.2578Q50.1953-14.2578 50.1953-14.5508L50.1953-61.2793Q50.1953-62.7441 49.1699-63.7695Q48.1445-64.7949 46.6797-64.7949Q45.2148-64.7949 44.1895-63.7695Q43.1641-62.7441 43.1641-61.2793ZM49.0723-25.9277L61.7676-38.7695Q62.4023-39.4043 62.9395-38.7695L73.4863-27.9297Q75.6836-25.8301 78.125-25.8301Q80.7129-25.8301 82.8125-27.9297L94.7754-40.0879L99.0723-35.6934Q100.244-34.5703 101.636-35.083Q103.027-35.5957 103.516-37.2559L107.812-54.4922Q108.252-56.0059 107.129-57.0801Q106.006-58.1543 104.443-57.7637L87.2559-53.5645Q85.5957-53.125 85.083-51.6846Q84.5703-50.2441 85.7422-49.1211L89.9902-44.873L78.7109-33.3496Q78.2227-32.7148 77.5879-33.3496L66.9922-44.2871Q64.9414-46.4355 62.3535-46.4355Q59.7656-46.4355 57.7148-44.2871L44.3848-30.7129Z"/>
  </g>
  <g id="Medium-L" transform="matrix(1 0 0 1 1670.87 1556)">
   <path class="hierarchical-0:secondary SFSymbolsPreview4D4D4D" d="M75.6836 29.1504Q86.2305 29.1504 95.8496 25.8545Q105.469 22.5586 113.55 16.626Q121.631 10.6934 127.563 2.63672Q133.496-5.41992 136.792-15.0635Q140.088-24.707 140.088-35.2539Q140.088-45.8496 136.792-55.4688Q133.496-65.0879 127.539-73.1445Q121.582-81.2012 113.525-87.1582Q105.469-93.1152 95.8252-96.3867Q86.1816-99.6582 75.6348-99.6582Q65.0391-99.6582 55.4199-96.3867Q45.8008-93.1152 37.7441-87.1582Q29.6875-81.2012 23.7549-73.1445Q17.8223-65.0879 14.5508-55.4688Q11.2793-45.8496 11.2793-35.2539Q11.2793-24.707 14.5508-15.0635Q17.8223-5.41992 23.7549 2.63672Q29.6875 10.6934 37.7686 16.626Q45.8496 22.5586 55.4688 25.8545Q65.0879 29.1504 75.6836 29.1504ZM75.6836 18.0176Q66.8457 18.0176 58.8379 15.332Q50.8301 12.6465 44.2139 7.76367Q37.5977 2.88086 32.6904-3.78418Q27.7832-10.4492 25.1221-18.4326Q22.4609-26.416 22.4609-35.2539Q22.4609-44.1406 25.1221-52.124Q27.7832-60.1074 32.666-66.748Q37.5488-73.3887 44.165-78.2715Q50.7812-83.1543 58.7891-85.8154Q66.7969-88.4766 75.6348-88.4766Q84.4727-88.4766 92.4805-85.8154Q100.488-83.1543 107.129-78.2715Q113.77-73.3887 118.652-66.748Q123.535-60.1074 126.221-52.124Q128.906-44.1406 128.906-35.2539Q128.955-26.416 126.294-18.4326Q123.633-10.4492 118.726-3.78418Q113.818 2.88086 107.178 7.76367Q100.537 12.6465 92.5293 15.332Q84.5215 18.0176 75.6836 18.0176Z"/>
   <path class="hierarchical-1:primary SFSymbolsPreview212121" d="M42.1387-11.7188Q42.1387-9.52148 43.457-8.20312Q44.7754-6.88477 46.875-6.88477L105.762-6.88477Q107.08-6.88477 108.081-7.86133Q109.082-8.83789 109.082-10.2051Q109.082-11.5723 108.105-12.5488Q107.129-13.5254 105.762-13.5254L49.0723-13.5254Q48.8281-13.5254 48.8281-13.8184L48.8281-61.8164Q48.8281-63.1836 47.8271-64.1602Q46.8262-65.1367 45.459-65.1367Q44.0918-65.1367 43.1152-64.1602Q42.1387-63.1836 42.1387-61.8164ZM47.6562-25.8301L60.6934-38.916Q61.3281-39.5508 61.9141-38.916L72.9492-27.6855Q75.1465-25.5859 77.5391-25.5859Q80.127-25.5859 82.1777-27.6855L94.4336-40.1367L98.9746-35.498Q100.049-34.4238 101.392-34.8877Q102.734-35.3516 103.223-37.0117L107.52-54.541Q107.91-56.0059 106.836-57.0312Q105.762-58.0566 104.297-57.666L86.8164-53.4668Q85.2051-53.0273 84.6924-51.6357Q84.1797-50.2441 85.3027-49.2188L89.7949-44.7266L78.1738-32.8613Q77.6367-32.1777 77.002-32.8125L65.8691-44.1406Q63.8672-46.2891 61.3281-46.2891Q58.7402-46.2891 56.6895-44.1406L43.1152-30.4199Z"/>
  </g>
  <g id="Regular-L" transform="matrix(1 0 0 1 1374.97 1556)">
   <path class="hierarchical-0:secondary SFSymbolsPreview4D4D4D" d="M74.8535 28.3203Q85.3027 28.3203 94.7998 25.0732Q104.297 21.8262 112.256 15.9668Q120.215 10.1074 126.099 2.14844Q131.982-5.81055 135.229-15.332Q138.477-24.8535 138.477-35.2539Q138.477-45.7031 135.229-55.2002Q131.982-64.6973 126.099-72.6562Q120.215-80.6152 112.256-86.499Q104.297-92.3828 94.7754-95.6299Q85.2539-98.877 74.8047-98.877Q64.3555-98.877 54.8584-95.6299Q45.3613-92.3828 37.4268-86.499Q29.4922-80.6152 23.6084-72.6562Q17.7246-64.6973 14.502-55.2002Q11.2793-45.7031 11.2793-35.2539Q11.2793-24.8535 14.5264-15.332Q17.7734-5.81055 23.6328 2.14844Q29.4922 10.1074 37.4512 15.9668Q45.4102 21.8262 54.9072 25.0732Q64.4043 28.3203 74.8535 28.3203ZM74.8535 19.2383Q65.8203 19.2383 57.6416 16.4795Q49.4629 13.7207 42.6758 8.74023Q35.8887 3.75977 30.8838-3.05176Q25.8789-9.86328 23.1445-18.042Q20.4102-26.2207 20.4102-35.2539Q20.4102-44.3359 23.1445-52.5146Q25.8789-60.6934 30.8594-67.5049Q35.8398-74.3164 42.627-79.2969Q49.4141-84.2773 57.5928-87.0117Q65.7715-89.7461 74.8047-89.7461Q83.8867-89.7461 92.0654-87.0117Q100.244-84.2773 107.056-79.2969Q113.867-74.3164 118.848-67.5049Q123.828-60.6934 126.587-52.5146Q129.346-44.3359 129.346-35.2539Q129.395-26.2207 126.66-18.042Q123.926-9.86328 118.921-3.05176Q113.916 3.75977 107.104 8.74023Q100.293 13.7207 92.1143 16.4795Q83.9355 19.2383 74.8535 19.2383Z"/>
   <path class="hierarchical-1:primary SFSymbolsPreview212121" d="M40.7715-10.9863Q40.7715-8.93555 42.0166-7.69043Q43.2617-6.44531 45.2637-6.44531L105.859-6.44531Q107.08-6.44531 108.008-7.34863Q108.936-8.25195 108.936-9.52148Q108.936-10.7422 108.032-11.6699Q107.129-12.5977 105.859-12.5977L47.2168-12.5977Q46.9727-12.5977 46.9727-12.8418L46.9727-62.5Q46.9727-63.7695 46.0449-64.6729Q45.1172-65.5762 43.8477-65.5762Q42.627-65.5762 41.6992-64.6729Q40.7715-63.7695 40.7715-62.5ZM45.8008-25.6348L59.2773-39.0625Q59.9609-39.7461 60.5469-39.0625L72.168-27.3438Q74.3652-25.2441 76.7578-25.2441Q79.3457-25.2441 81.3477-27.3438L93.9453-40.1367L98.7793-35.2539Q99.8047-34.2285 101.074-34.668Q102.344-35.1074 102.783-36.6699L107.08-54.5898Q107.471-55.957 106.47-56.9336Q105.469-57.9102 104.053-57.5195L86.1816-53.3203Q84.668-52.9297 84.1797-51.6113Q83.6914-50.293 84.7656-49.3164L89.5508-44.5312L77.3926-32.1777Q76.8555-31.4941 76.1719-32.1289L64.4531-43.9941Q62.4512-46.0938 59.9121-46.0938Q57.3242-46.0938 55.3223-43.9941L41.5039-30.0293Z"/>
  </g>
  <g id="Light-L" transform="matrix(1 0 0 1 1079.18 1556)">
   <path class="hierarchical-0:secondary SFSymbolsPreview4D4D4D" d="M73.9258 27.3926Q84.2285 27.3926 93.6035 24.1943Q102.979 20.9961 110.815 15.2344Q118.652 9.47266 124.438 1.63574Q130.225-6.20117 133.423-15.5762Q136.621-24.9512 136.621-35.2539Q136.621-45.5566 133.423-54.9316Q130.225-64.3066 124.438-72.1436Q118.652-79.9805 110.815-85.7666Q102.979-91.5527 93.6035-94.751Q84.2285-97.9492 73.877-97.9492Q63.5742-97.9492 54.2236-94.751Q44.873-91.5527 37.0361-85.7666Q29.1992-79.9805 23.4131-72.1436Q17.627-64.3066 14.4531-54.9316Q11.2793-45.5566 11.2793-35.2539Q11.2793-24.9512 14.4775-15.5762Q17.6758-6.20117 23.4375 1.63574Q29.1992 9.47266 37.0361 15.2344Q44.873 20.9961 54.248 24.1943Q63.623 27.3926 73.9258 27.3926ZM73.9258 20.5078Q64.6973 20.5078 56.3232 17.6758Q47.9492 14.8438 40.9912 9.74121Q34.0332 4.63867 28.9307-2.31934Q23.8281-9.27734 21.0205-17.6514Q18.2129-26.0254 18.2129-35.2539Q18.2129-44.5312 21.0205-52.8809Q23.8281-61.2305 28.9307-68.2129Q34.0332-75.1953 40.9912-80.2979Q47.9492-85.4004 56.2988-88.208Q64.6484-91.0156 73.877-91.0156Q83.1543-91.0156 91.5283-88.208Q99.9023-85.4004 106.86-80.2979Q113.818-75.1953 118.945-68.2129Q124.072-61.2305 126.88-52.8809Q129.688-44.5312 129.688-35.2539Q129.736-26.0254 126.929-17.6514Q124.121-9.27734 118.994-2.31934Q113.867 4.63867 106.909 9.74121Q99.9512 14.8438 91.5771 17.6758Q83.2031 20.5078 73.9258 20.5078Z"/>
   <path class="hierarchical-1:primary SFSymbolsPreview212121" d="M40.1367-10.2539Q40.1367-8.44727 41.2109-7.37305Q42.2852-6.29883 44.043-6.29883L105.322-6.29883Q106.348-6.29883 107.08-7.00684Q107.812-7.71484 107.812-8.78906Q107.812-9.76562 107.104-10.5225Q106.396-11.2793 105.322-11.2793L45.6543-11.2793Q45.2148-11.2793 45.2148-11.7676L45.2148-62.8418Q45.2148-63.8672 44.458-64.5996Q43.7012-65.332 42.6758-65.332Q41.6504-65.332 40.8936-64.5996Q40.1367-63.8672 40.1367-62.8418ZM44.2871-25.6348L57.5684-38.7207Q58.4473-39.5508 59.1797-38.7207L71.582-26.416Q73.584-24.5117 75.7812-24.5117Q78.1738-24.5117 80.0293-26.416L93.5547-40.1367L98.877-34.8633Q99.7559-33.9844 100.83-34.3262Q101.904-34.668 102.246-35.9375L106.104-53.6133Q106.445-54.7852 105.615-55.6152Q104.785-56.4453 103.516-56.1035L85.9863-52.2949Q84.7168-51.9531 84.3018-50.8301Q83.8867-49.707 84.8145-48.9258L89.9414-43.7012L76.6113-30.127Q75.9277-29.2969 75-30.127L62.5488-42.5293Q60.6934-44.4336 58.3496-44.4336Q56.0059-44.4336 54.1504-42.5293L40.7715-29.248Z"/>
  </g>
  <g id="Thin-L" transform="matrix(1 0 0 1 783.693 1556)">
   <path class="hierarchical-0:secondary SFSymbolsPreview4D4D4D" d="M72.7051 26.1719Q82.8613 26.1719 92.041 23.0469Q101.221 19.9219 108.911 14.2822Q116.602 8.64258 122.266 0.952148Q127.93-6.73828 131.055-15.9424Q134.18-25.1465 134.18-35.2539Q134.18-45.4102 131.055-54.5898Q127.93-63.7695 122.29-71.46Q116.65-79.1504 108.936-84.8145Q101.221-90.4785 92.0166-93.6035Q82.8125-96.7285 72.7051-96.7285Q62.5488-96.7285 53.3691-93.6035Q44.1895-90.4785 36.499-84.8145Q28.8086-79.1504 23.1689-71.46Q17.5293-63.7695 14.4043-54.5898Q11.2793-45.4102 11.2793-35.2539Q11.2793-25.1465 14.4043-15.9424Q17.5293-6.73828 23.1689 0.952148Q28.8086 8.64258 36.5234 14.2822Q44.2383 19.9219 53.418 23.0469Q62.5977 26.1719 72.7051 26.1719ZM72.7051 22.168Q63.2324 22.168 54.6143 19.2627Q45.9961 16.3574 38.8184 11.084Q31.6406 5.81055 26.3428-1.36719Q21.0449-8.54492 18.1641-17.1631Q15.2832-25.7812 15.2832-35.2539Q15.2832-44.7754 18.1641-53.3936Q21.0449-62.0117 26.3428-69.1895Q31.6406-76.3672 38.8184-81.6406Q45.9961-86.9141 54.5898-89.8193Q63.1836-92.7246 72.7051-92.7246Q82.2266-92.7246 90.8203-89.8193Q99.4141-86.9141 106.616-81.6406Q113.818-76.3672 119.092-69.1895Q124.365-62.0117 127.271-53.3936Q130.176-44.7754 130.176-35.2539Q130.176-25.7812 127.271-17.1631Q124.365-8.54492 119.092-1.36719Q113.818 5.81055 106.641 11.084Q99.4629 16.3574 90.8447 19.2627Q82.2266 22.168 72.7051 22.168Z"/>
   <path class="hierarchical-1:primary SFSymbolsPreview212121" d="M39.3066-9.27734Q39.3066-7.86133 40.1855-6.95801Q41.0645-6.05469 42.4805-6.05469L104.639-6.05469Q105.322-6.05469 105.859-6.56738Q106.396-7.08008 106.396-7.8125Q106.396-8.54492 105.884-9.05762Q105.371-9.57031 104.639-9.57031L43.6523-9.57031Q42.9199-9.57031 42.9199-10.3027L42.9199-63.2324Q42.9199-63.9648 42.3828-64.4775Q41.8457-64.9902 41.1133-64.9902Q40.3809-64.9902 39.8438-64.4775Q39.3066-63.9648 39.3066-63.2324ZM42.2852-25.6348L55.2734-38.2812Q56.4453-39.3066 57.373-38.2812L70.8008-25.1953Q72.6074-23.4863 74.5605-23.4863Q76.709-23.4863 78.3203-25.1953L93.0664-40.0879L98.9746-34.375Q99.6582-33.6426 100.488-33.8623Q101.318-34.082 101.514-35.0098L104.883-52.2461Q105.127-53.2227 104.492-53.833Q103.857-54.4434 102.881-54.248L85.6934-50.9277Q84.7656-50.7324 84.4727-49.8535Q84.1797-48.9746 84.9121-48.3887L90.4785-42.627L75.6348-27.4902Q74.707-26.416 73.5352-27.4414L60.0586-40.625Q58.3984-42.2852 56.3477-42.2852Q54.2969-42.2852 52.5879-40.625L39.8438-28.2227Z"/>
  </g>
  <g id="Ultralight-L" transform="matrix(1 0 0 1 487.592 1556)">
   <path class="hierarchical-0:secondary SFSymbolsPreview4D4D4D" d="M72.0703 25.5371Q82.1289 25.5371 91.2354 22.4609Q100.342 19.3848 107.935 13.7939Q115.527 8.20312 121.143 0.585938Q126.758-7.03125 129.858-16.1133Q132.959-25.1953 132.959-35.2539Q132.959-45.3125 129.858-54.4189Q126.758-63.5254 121.167-71.1182Q115.576-78.7109 107.959-84.3262Q100.342-89.9414 91.2354-93.0176Q82.1289-96.0938 72.0703-96.0938Q62.0605-96.0938 52.9541-93.0176Q43.8477-89.9414 36.2305-84.3262Q28.6133-78.7109 23.0225-71.1182Q17.4316-63.5254 14.3555-54.4189Q11.2793-45.3125 11.2793-35.2539Q11.2793-25.1953 14.3555-16.1133Q17.4316-7.03125 23.0225 0.585938Q28.6133 8.20312 36.2305 13.7939Q43.8477 19.3848 52.9541 22.4609Q62.0605 25.5371 72.0703 25.5371ZM72.0703 23.0469Q62.4512 23.0469 53.7109 20.0928Q44.9707 17.1387 37.6709 11.792Q30.3711 6.44531 25.0244-0.854492Q19.6777-8.1543 16.7236-16.8945Q13.7695-25.6348 13.7695-35.2539Q13.7695-44.9219 16.7236-53.6377Q19.6777-62.3535 25.0244-69.6533Q30.3711-76.9531 37.6953-82.3242Q45.0195-87.6953 53.7354-90.6494Q62.4512-93.6035 72.0703-93.6035Q81.7383-93.6035 90.4785-90.6494Q99.2188-87.6953 106.494-82.3242Q113.77-76.9531 119.141-69.6533Q124.512-62.3535 127.466-53.6377Q130.42-44.9219 130.42-35.2539Q130.371-25.6348 127.441-16.8945Q124.512-8.1543 119.141-0.854492Q113.77 6.44531 106.494 11.792Q99.2188 17.1387 90.4785 20.0928Q81.7383 23.0469 72.0703 23.0469Z"/>
   <path class="hierarchical-1:primary SFSymbolsPreview212121" d="M38.916-8.78906Q38.916-7.51953 39.6729-6.73828Q40.4297-5.95703 41.6992-5.95703L104.346-5.95703Q104.883-5.95703 105.273-6.32324Q105.664-6.68945 105.664-7.27539Q105.664-7.86133 105.298-8.27637Q104.932-8.69141 104.346-8.69141L42.627-8.69141Q41.748-8.69141 41.748-9.57031L41.748-63.4766Q41.748-64.0625 41.3574-64.4531Q40.9668-64.8438 40.3809-64.8438Q39.7949-64.8438 39.3555-64.4531Q38.916-64.0625 38.916-63.4766ZM41.2598-25.6348L54.1504-38.0859Q55.4199-39.1602 56.4941-38.0859L70.459-24.5605Q72.1191-22.998 73.9258-22.998Q75.9277-22.998 77.4414-24.5605L92.8223-40.0879L99.0723-34.1309Q99.6582-33.4473 100.342-33.6182Q101.025-33.7891 101.221-34.5215L104.248-51.6113Q104.492-52.3926 103.955-52.9297Q103.418-53.4668 102.539-53.3203L85.5957-50.2441Q84.8145-50.0488 84.5947-49.3164Q84.375-48.584 85.0098-48.0957L90.7715-42.0898L75.1465-26.0742Q74.0723-24.9023 72.7539-26.0742L58.8379-39.6484Q57.2754-41.1621 55.3223-41.1621Q53.418-41.1621 51.8555-39.6484L39.3555-27.7344Z"/>
  </g>
  <g id="Black-M" transform="matrix(1 0 0 1 2871.32 1126)">
   <path class="hierarchical-0:secondary SFSymbolsPreview4D4D4D" d="M62.0605 18.1152Q73.0957 18.1152 82.7637 13.9648Q92.4316 9.81445 99.7559 2.46582Q107.08-4.88281 111.255-14.5264Q115.43-24.1699 115.43-35.2051Q115.43-46.2402 111.255-55.8838Q107.08-65.5273 99.7559-72.876Q92.4316-80.2246 82.7637-84.375Q73.0957-88.5254 62.0605-88.5254Q51.0742-88.5254 41.4062-84.375Q31.7383-80.2246 24.3896-72.876Q17.041-65.5273 12.8906-55.8838Q8.74023-46.2402 8.74023-35.2051Q8.74023-24.1699 12.8906-14.5264Q17.041-4.88281 24.3896 2.46582Q31.7383 9.81445 41.4062 13.9648Q51.0742 18.1152 62.0605 18.1152ZM62.0605 0.732422Q54.6387 0.732422 48.1201-2.05078Q41.6016-4.83398 36.6455-9.76562Q31.6895-14.6973 28.9062-21.2158Q26.123-27.7344 26.123-35.2051Q26.123-42.6758 28.9062-49.1943Q31.6895-55.7129 36.6455-60.6445Q41.6016-65.5762 48.1201-68.3594Q54.6387-71.1426 62.0605-71.1426Q69.5312-71.1426 76.0498-68.3594Q82.5684-65.5762 87.5-60.6445Q92.4316-55.7129 95.2393-49.1943Q98.0469-42.6758 98.0469-35.2051Q98.0469-27.7344 95.2393-21.2158Q92.4316-14.6973 87.5-9.76562Q82.5684-4.83398 76.0498-2.05078Q69.5312 0.732422 62.0605 0.732422Z"/>
   <path class="hierarchical-1:primary SFSymbolsPreview212121" d="M38.7207-20.0684Q38.7207-17.9199 39.9902-16.6504Q41.2598-15.3809 43.4082-15.3809L81.1035-15.3809Q82.666-15.3809 83.6914-16.3574Q84.7168-17.334 84.7168-18.8965Q84.7168-20.459 83.6914-21.4355Q82.666-22.4121 81.1035-22.4121L46.1426-22.4121Q45.752-22.4121 45.752-22.8027L45.752-52.6855Q45.752-54.248 44.7754-55.2979Q43.7988-56.3477 42.2363-56.3477Q40.6738-56.3477 39.6973-55.2979Q38.7207-54.248 38.7207-52.6855ZM45.0195-28.7598L52.9785-37.207Q53.418-37.6465 53.8086-37.207L59.8145-30.6641Q61.4258-29.0039 63.3789-29.0039Q65.2832-29.0039 66.9922-30.6641L75.1465-38.9648L77.4902-36.5234Q78.5645-35.4492 79.9316-35.9131Q81.2988-36.377 81.7383-37.9395L84.9121-49.6094Q85.2539-51.0254 84.1797-52.0752Q83.1055-53.125 81.6895-52.7344L70.0684-49.6094Q68.5059-49.2188 68.042-47.876Q67.5781-46.5332 68.6523-45.4102L70.8984-43.2129L63.8184-35.8398Q63.3789-35.4004 62.9883-35.8887L56.9824-42.3828Q55.3711-44.0918 53.418-44.0918Q51.4648-44.0918 49.8535-42.3828L40.7227-33.0078Z"/>
  </g>
  <g id="Heavy-M" transform="matrix(1 0 0 1 2575.43 1126)">
   <path class="hierarchical-0:secondary SFSymbolsPreview4D4D4D" d="M61.2305 17.2852Q72.0703 17.2852 81.5918 13.1836Q91.1133 9.08203 98.3154 1.85547Q105.518-5.37109 109.644-14.8682Q113.77-24.3652 113.77-35.2051Q113.77-46.0449 109.644-55.542Q105.518-65.0391 98.3154-72.29Q91.1133-79.541 81.5918-83.6182Q72.0703-87.6953 61.2305-87.6953Q50.4395-87.6953 40.918-83.6182Q31.3965-79.541 24.1699-72.29Q16.9434-65.0391 12.8418-55.542Q8.74023-46.0449 8.74023-35.2051Q8.74023-24.3652 12.8418-14.8682Q16.9434-5.37109 24.1699 1.85547Q31.3965 9.08203 40.918 13.1836Q50.4395 17.2852 61.2305 17.2852ZM61.2305 2.05078Q53.5156 2.05078 46.7529-0.854492Q39.9902-3.75977 34.8633-8.8623Q29.7363-13.9648 26.8555-20.7275Q23.9746-27.4902 23.9746-35.2051Q23.9746-42.9688 26.8555-49.7314Q29.7363-56.4941 34.8633-61.5967Q39.9902-66.6992 46.7529-69.5801Q53.5156-72.4609 61.2305-72.4609Q68.9453-72.4609 75.708-69.5801Q82.4707-66.6992 87.5977-61.5967Q92.7246-56.4941 95.6299-49.7314Q98.5352-42.9688 98.5352-35.2051Q98.5352-27.4902 95.6299-20.7275Q92.7246-13.9648 87.6221-8.8623Q82.5195-3.75977 75.7568-0.854492Q68.9941 2.05078 61.2305 2.05078Z"/>
   <path class="hierarchical-1:primary SFSymbolsPreview212121" d="M37.1094-19.2871Q37.1094-17.2363 38.3301-16.04Q39.5508-14.8438 41.6016-14.8438L81.3965-14.8438Q82.8125-14.8438 83.7891-15.7715Q84.7656-16.6992 84.7656-18.1641Q84.7656-19.5801 83.7891-20.5322Q82.8125-21.4844 81.3965-21.4844L44.0918-21.4844Q43.75-21.4844 43.75-21.7773L43.75-53.5156Q43.75-54.9805 42.8223-55.957Q41.8945-56.9336 40.4297-56.9336Q38.9648-56.9336 38.0371-55.957Q37.1094-54.9805 37.1094-53.5156ZM42.9688-28.5156L51.5625-37.5Q51.9531-37.9395 52.3438-37.5L58.9355-30.4199Q60.6445-28.7598 62.5977-28.7598Q64.502-28.7598 66.2109-30.4199L74.6094-38.9648L77.2461-36.2793Q78.2715-35.2539 79.5898-35.6934Q80.9082-36.1328 81.2988-37.6465L84.5703-49.9023Q84.9121-51.2207 83.8867-52.2217Q82.8613-53.2227 81.4941-52.8809L69.2871-49.6582Q67.8223-49.2676 67.3584-47.9736Q66.8945-46.6797 67.9199-45.6543L70.459-43.1152L62.9883-35.4004Q62.5977-34.9609 62.207-35.4492L55.5664-42.4805Q53.9551-44.1895 51.9531-44.1895Q49.9512-44.1895 48.3398-42.4805L38.7695-32.666Z"/>
  </g>
  <g id="Bold-M" transform="matrix(1 0 0 1 2279.65 1126)">
   <path class="hierarchical-0:secondary SFSymbolsPreview4D4D4D" d="M60.3027 16.3574Q70.9473 16.3574 80.2734 12.3291Q89.5996 8.30078 96.7041 1.17188Q103.809-5.95703 107.861-15.2832Q111.914-24.6094 111.914-35.2539Q111.914-45.8496 107.861-55.1758Q103.809-64.502 96.7041-71.6309Q89.5996-78.7598 80.249-82.7881Q70.8984-86.8164 60.3027-86.8164Q49.707-86.8164 40.3564-82.7881Q31.0059-78.7598 23.9014-71.6309Q16.7969-64.502 12.7686-55.1758Q8.74023-45.8496 8.74023-35.2539Q8.74023-24.6094 12.7686-15.2832Q16.7969-5.95703 23.9258 1.17188Q31.0547 8.30078 40.3809 12.3291Q49.707 16.3574 60.3027 16.3574ZM60.3027 3.51562Q52.2949 3.51562 45.2637 0.488281Q38.2324-2.53906 32.9102-7.83691Q27.5879-13.1348 24.6094-20.166Q21.6309-27.1973 21.6309-35.2539Q21.6309-43.3105 24.6094-50.3174Q27.5879-57.3242 32.9102-62.6465Q38.2324-67.9688 45.2393-70.9717Q52.2461-73.9746 60.3027-73.9746Q68.3594-73.9746 75.3662-70.9717Q82.373-67.9688 87.6953-62.6465Q93.0176-57.3242 96.0449-50.3174Q99.0723-43.3105 99.0723-35.2539Q99.0723-27.1973 96.0693-20.166Q93.0664-13.1348 87.7441-7.83691Q82.4219-2.53906 75.3906 0.488281Q68.3594 3.51562 60.3027 3.51562Z"/>
   <path class="hierarchical-1:primary SFSymbolsPreview212121" d="M35.3516-18.457Q35.3516-16.5039 36.5234-15.3564Q37.6953-14.209 39.5996-14.209L81.7383-14.209Q83.0566-14.209 83.9844-15.0879Q84.9121-15.9668 84.9121-17.334Q84.9121-18.6523 83.9844-19.5312Q83.0566-20.4102 81.7383-20.4102L41.8457-20.4102Q41.6016-20.4102 41.6016-20.6543L41.6016-54.4434Q41.6016-55.7617 40.6982-56.6895Q39.7949-57.6172 38.4766-57.6172Q37.1582-57.6172 36.2549-56.6895Q35.3516-55.7617 35.3516-54.4434ZM40.7227-28.2715L50-37.793Q50.3906-38.2324 50.7812-37.793L58.0566-30.1758Q59.7656-28.4668 61.7188-28.4668Q63.7207-28.4668 65.4297-30.1758L74.1211-39.0137L77.002-36.0352Q78.0273-35.0586 79.248-35.4736Q80.4688-35.8887 80.8594-37.3535L84.2285-50.1953Q84.5703-51.5137 83.5938-52.4414Q82.6172-53.3691 81.3477-53.0273L68.5059-49.7559Q67.0898-49.3652 66.6504-48.1201Q66.2109-46.875 67.1875-45.8984L70.0684-43.0664L62.1582-34.9609Q61.7676-34.5215 61.377-34.9609L54.0527-42.627Q52.3926-44.3359 50.3906-44.3359Q48.3398-44.3359 46.7285-42.627L36.6699-32.3242Z"/>
  </g>
  <g id="Semibold-M" transform="matrix(1 0 0 1 1983.6 1126)">
   <path class="hierarchical-0:secondary SFSymbolsPreview4D4D4D" d="M59.668 15.6738Q70.1172 15.6738 79.3457 11.6943Q88.5742 7.71484 95.6055 0.683594Q102.637-6.34766 106.616-15.5518Q110.596-24.7559 110.596-35.2539Q110.596-45.7031 106.616-54.9072Q102.637-64.1113 95.6055-71.1426Q88.5742-78.1738 79.3457-82.1777Q70.1172-86.1816 59.6191-86.1816Q49.1699-86.1816 39.9658-82.1777Q30.7617-78.1738 23.7305-71.1426Q16.6992-64.1113 12.7197-54.9072Q8.74023-45.7031 8.74023-35.2539Q8.74023-24.7559 12.7197-15.5518Q16.6992-6.34766 23.7305 0.683594Q30.7617 7.71484 39.9902 11.6943Q49.2188 15.6738 59.668 15.6738ZM59.668 4.49219Q51.416 4.49219 44.2139 1.41602Q37.0117-1.66016 31.543-7.10449Q26.0742-12.5488 23.0225-19.751Q19.9707-26.9531 19.9707-35.2539Q19.9707-43.5059 23.0225-50.708Q26.0742-57.9102 31.5186-63.3789Q36.9629-68.8477 44.165-71.8994Q51.3672-74.9512 59.6191-74.9512Q67.9199-74.9512 75.1221-71.8994Q82.3242-68.8477 87.7686-63.3789Q93.2129-57.9102 96.3135-50.708Q99.4141-43.5059 99.4141-35.2539Q99.4141-26.9531 96.3379-19.751Q93.2617-12.5488 87.8174-7.10449Q82.373-1.66016 75.1465 1.41602Q67.9199 4.49219 59.668 4.49219Z"/>
   <path class="hierarchical-1:primary SFSymbolsPreview212121" d="M34.1309-17.8711Q34.1309-15.9668 35.2539-14.8682Q36.377-13.7695 38.2324-13.7695L81.9824-13.7695Q83.2031-13.7695 84.082-14.624Q84.9609-15.4785 84.9609-16.748Q84.9609-17.9688 84.082-18.8232Q83.2031-19.6777 81.9824-19.6777L40.2344-19.6777Q40.0391-19.6777 40.0391-19.873L40.0391-55.0781Q40.0391-56.2988 39.1846-57.1777Q38.3301-58.0566 37.1094-58.0566Q35.8398-58.0566 34.9854-57.1777Q34.1309-56.2988 34.1309-55.0781ZM39.1113-28.0762L48.877-37.9883Q49.3164-38.4277 49.6582-37.9883L57.373-29.9805Q59.1797-28.2715 61.1328-28.2715Q63.1348-28.2715 64.8438-29.9805L73.7305-39.0137L76.8066-35.8398Q77.7832-34.8633 78.9795-35.2783Q80.1758-35.6934 80.5664-37.1094L83.9844-50.3906Q84.3262-51.6602 83.374-52.5635Q82.4219-53.4668 81.2012-53.125L67.9199-49.7559Q66.5527-49.4141 66.1133-48.2178Q65.6738-47.0215 66.6504-46.0938L69.7266-42.9688L61.5234-34.6191Q61.1328-34.1797 60.7422-34.5703L52.9785-42.7246Q51.3184-44.4336 49.2676-44.4336Q47.2168-44.4336 45.5566-42.7246L35.2051-32.0801Z"/>
  </g>
  <g id="Medium-M" transform="matrix(1 0 0 1 1687.38 1126)">
   <path class="hierarchical-0:secondary SFSymbolsPreview4D4D4D" d="M59.1797 15.1855Q69.5312 15.1855 78.6621 11.2305Q87.793 7.27539 94.751 0.317383Q101.709-6.64062 105.664-15.7715Q109.619-24.9023 109.619-35.2539Q109.619-45.6055 105.664-54.7363Q101.709-63.8672 94.751-70.8252Q87.793-77.7832 78.6377-81.7383Q69.4824-85.6934 59.1309-85.6934Q48.7793-85.6934 39.6484-81.7383Q30.5176-77.7832 23.584-70.8252Q16.6504-63.8672 12.6953-54.7363Q8.74023-45.6055 8.74023-35.2539Q8.74023-24.9023 12.6953-15.7715Q16.6504-6.64062 23.6084 0.317383Q30.5664 7.27539 39.6973 11.2305Q48.8281 15.1855 59.1797 15.1855ZM59.1797 5.27344Q50.7324 5.27344 43.4082 2.12402Q36.084-1.02539 30.5176-6.5918Q24.9512-12.1582 21.8262-19.4824Q18.7012-26.8066 18.7012-35.2539Q18.7012-43.7012 21.8262-51.0254Q24.9512-58.3496 30.4932-63.916Q36.0352-69.4824 43.3838-72.6074Q50.7324-75.7324 59.1309-75.7324Q67.5781-75.7324 74.9023-72.6074Q82.2266-69.4824 87.8174-63.916Q93.4082-58.3496 96.5576-51.0254Q99.707-43.7012 99.707-35.2539Q99.707-26.8066 96.582-19.4824Q93.457-12.1582 87.8906-6.5918Q82.3242-1.02539 74.9756 2.12402Q67.627 5.27344 59.1797 5.27344Z"/>
   <path class="hierarchical-1:primary SFSymbolsPreview212121" d="M33.2031-17.4316Q33.2031-15.5762 34.3018-14.5264Q35.4004-13.4766 37.1582-13.4766L82.1289-13.4766Q83.3008-13.4766 84.1553-14.2822Q85.0098-15.0879 85.0098-16.3086Q85.0098-17.4316 84.1553-18.2861Q83.3008-19.1406 82.1289-19.1406L39.0625-19.1406Q38.916-19.1406 38.916-19.2871L38.916-55.5664Q38.916-56.7383 38.0859-57.5928Q37.2559-58.4473 36.084-58.4473Q34.8633-58.4473 34.0332-57.5928Q33.2031-56.7383 33.2031-55.5664ZM37.9395-27.9785L48.0469-38.1836Q48.4375-38.623 48.8281-38.1836L56.8848-29.834Q58.6914-28.125 60.6445-28.125Q62.7441-28.125 64.4043-29.834L73.4375-39.0625L76.709-35.6934Q77.6367-34.7656 78.7842-35.1807Q79.9316-35.5957 80.3223-36.9141L83.7891-50.5859Q84.1309-51.8066 83.2275-52.6611Q82.3242-53.5156 81.1035-53.2227L67.5293-49.8047Q66.1621-49.4629 65.7227-48.2666Q65.2832-47.0703 66.2598-46.1914L69.4824-42.9199L61.084-34.375Q60.6934-33.9355 60.3027-34.3262L52.1484-42.7734Q50.4883-44.4824 48.4375-44.4824Q46.3379-44.4824 44.6777-42.7734L34.082-31.8848Z"/>
  </g>
  <g id="Regular-M" transform="matrix(1 0 0 1 1391.3 1126)">
   <path class="hierarchical-0:secondary SFSymbolsPreview4D4D4D" d="M58.5449 14.5508Q68.75 14.5508 77.7588 10.6445Q86.7676 6.73828 93.6523-0.146484Q100.537-7.03125 104.443-16.04Q108.35-25.0488 108.35-35.2539Q108.35-45.459 104.443-54.4678Q100.537-63.4766 93.6523-70.3613Q86.7676-77.2461 77.7344-81.1523Q68.7012-85.0586 58.4961-85.0586Q48.291-85.0586 39.2822-81.1523Q30.2734-77.2461 23.4131-70.3613Q16.5527-63.4766 12.6465-54.4678Q8.74023-45.459 8.74023-35.2539Q8.74023-25.0488 12.6465-16.04Q16.5527-7.03125 23.4375-0.146484Q30.3223 6.73828 39.3311 10.6445Q48.3398 14.5508 58.5449 14.5508ZM58.5449 6.25Q49.9023 6.25 42.3828 3.02734Q34.8633-0.195312 29.1748-5.88379Q23.4863-11.5723 20.2881-19.0918Q17.0898-26.6113 17.0898-35.2539Q17.0898-43.8965 20.2881-51.416Q23.4863-58.9355 29.1504-64.6484Q34.8145-70.3613 42.334-73.5596Q49.8535-76.7578 58.4961-76.7578Q67.1387-76.7578 74.6582-73.5596Q82.1777-70.3613 87.8906-64.6484Q93.6035-58.9355 96.8262-51.416Q100.049-43.8965 100.049-35.2539Q100.049-26.6113 96.8506-19.0918Q93.6523-11.5723 87.9639-5.88379Q82.2754-0.195312 74.7314 3.02734Q67.1875 6.25 58.5449 6.25Z"/>
   <path class="hierarchical-1:primary SFSymbolsPreview212121" d="M31.9824-16.8457Q31.9824-15.0879 33.0322-14.0625Q34.082-13.0371 35.791-13.0371L82.373-13.0371Q83.4473-13.0371 84.2529-13.8184Q85.0586-14.5996 85.0586-15.7227Q85.0586-16.7969 84.2529-17.6025Q83.4473-18.4082 82.373-18.4082L37.5-18.4082Q37.4023-18.4082 37.4023-18.5059L37.4023-56.2012Q37.4023-57.2754 36.5967-58.0811Q35.791-58.8867 34.7168-58.8867Q33.5938-58.8867 32.7881-58.0811Q31.9824-57.2754 31.9824-56.2012ZM36.377-27.7832L46.9727-38.3789Q47.3633-38.8184 47.7051-38.3789L56.25-29.6387Q58.1055-27.9297 60.0586-27.9297Q62.1582-27.9297 63.8184-29.6387L73.0469-39.0625L76.5137-35.498Q77.4414-34.6191 78.54-35.0098Q79.6387-35.4004 79.9805-36.7188L83.5449-50.7812Q83.8867-51.9531 83.0078-52.7832Q82.1289-53.6133 80.957-53.3203L66.9434-49.8535Q65.625-49.5117 65.21-48.3643Q64.7949-47.2168 65.7227-46.3867L69.1895-42.8711L60.4492-34.0332Q60.1074-33.5938 59.7168-33.9844L51.0742-42.8711Q49.4141-44.5801 47.3145-44.5801Q45.2148-44.5801 43.5547-42.8711L32.6172-31.6406Z"/>
  </g>
  <g id="Light-M" transform="matrix(1 0 0 1 1095.42 1126)">
   <path class="hierarchical-0:secondary SFSymbolsPreview4D4D4D" d="M57.7148 13.7207Q67.7734 13.7207 76.6357 9.8877Q85.498 6.05469 92.2607-0.708008Q99.0234-7.4707 102.856-16.333Q106.689-25.1953 106.689-35.2539Q106.689-45.3125 102.856-54.1748Q99.0234-63.0371 92.2607-69.7998Q85.498-76.5625 76.6113-80.3955Q67.7246-84.2285 57.666-84.2285Q47.6074-84.2285 38.7451-80.3955Q29.8828-76.5625 23.1445-69.7998Q16.4062-63.0371 12.5732-54.1748Q8.74023-45.3125 8.74023-35.2539Q8.74023-25.1953 12.5732-16.333Q16.4062-7.4707 23.1689-0.708008Q29.9316 6.05469 38.7939 9.8877Q47.6562 13.7207 57.7148 13.7207ZM57.7148 7.37305Q48.877 7.37305 41.1377 4.07715Q33.3984 0.78125 27.5391-5.07812Q21.6797-10.9375 18.3838-18.6768Q15.0879-26.416 15.0879-35.2539Q15.0879-44.0918 18.3838-51.8311Q21.6797-59.5703 27.5391-65.4541Q33.3984-71.3379 41.1133-74.6338Q48.8281-77.9297 57.666-77.9297Q66.5527-77.9297 74.2676-74.6338Q81.9824-71.3379 87.8662-65.4541Q93.75-59.5703 97.0703-51.8311Q100.391-44.0918 100.391-35.2539Q100.391-26.416 97.0703-18.6768Q93.75-10.9375 87.915-5.07812Q82.0801 0.78125 74.3408 4.07715Q66.6016 7.37305 57.7148 7.37305Z"/>
   <path class="hierarchical-1:primary SFSymbolsPreview212121" d="M31.3965-16.2109Q31.3965-14.6973 32.2998-13.7939Q33.2031-12.8906 34.668-12.8906L81.8848-12.8906Q82.7637-12.8906 83.4229-13.5254Q84.082-14.1602 84.082-15.0391Q84.082-15.918 83.4229-16.5771Q82.7637-17.2363 81.8848-17.2363L36.084-17.2363Q35.8398-17.2363 35.8398-17.5293L35.8398-56.4941Q35.8398-57.373 35.1807-58.0322Q34.5215-58.6914 33.6426-58.6914Q32.7148-58.6914 32.0557-58.0322Q31.3965-57.373 31.3965-56.4941ZM35.0098-27.7832L45.4102-38.0859Q45.9961-38.6719 46.4844-38.0859L55.7129-28.8086Q57.373-27.2461 59.1797-27.2461Q61.1328-27.2461 62.6465-28.8086L72.6562-39.0625L76.5625-35.1562Q77.3438-34.375 78.2715-34.6924Q79.1992-35.0098 79.4922-36.084L82.666-49.9023Q82.959-50.9277 82.2266-51.6113Q81.4941-52.2949 80.4688-52.0508L66.748-48.9258Q65.625-48.6328 65.2832-47.6562Q64.9414-46.6797 65.7227-46.0449L69.5312-42.1387L59.7656-32.1777Q59.2285-31.6406 58.6426-32.1777L49.3652-41.5527Q47.8516-43.1152 45.9473-43.1152Q43.9941-43.1152 42.4805-41.5527L31.9336-30.957Z"/>
  </g>
  <g id="Thin-M" transform="matrix(1 0 0 1 799.782 1126)">
   <path class="hierarchical-0:secondary SFSymbolsPreview4D4D4D" d="M56.5918 12.5977Q66.5039 12.5977 75.1709 8.88672Q83.8379 5.17578 90.4297-1.44043Q97.0215-8.05664 100.781-16.7236Q104.541-25.3906 104.541-35.2539Q104.541-45.1172 100.781-53.7842Q97.0215-62.4512 90.4297-69.0674Q83.8379-75.6836 75.1709-79.3945Q66.5039-83.1055 56.5918-83.1055Q46.7285-83.1055 38.0615-79.3945Q29.3945-75.6836 22.8271-69.0674Q16.2598-62.4512 12.5-53.7842Q8.74023-45.1172 8.74023-35.2539Q8.74023-25.3906 12.4756-16.7236Q16.2109-8.05664 22.8027-1.44043Q29.3945 5.17578 38.0859 8.88672Q46.7773 12.5977 56.5918 12.5977ZM56.5918 8.88672Q47.4609 8.88672 39.4775 5.44434Q31.4941 2.00195 25.415-4.05273Q19.3359-10.1074 15.918-18.1152Q12.5-26.123 12.5-35.2539Q12.5-44.3848 15.918-52.3926Q19.3359-60.4004 25.415-66.4795Q31.4941-72.5586 39.4775-76.001Q47.4609-79.4434 56.5918-79.4434Q65.7715-79.4434 73.7549-76.001Q81.7383-72.5586 87.8174-66.4795Q93.8965-60.4004 97.3389-52.3926Q100.781-44.3848 100.781-35.2539Q100.781-26.123 97.3633-18.1152Q93.9453-10.1074 87.8662-4.05273Q81.7871 2.00195 73.7793 5.44434Q65.7715 8.88672 56.5918 8.88672Z"/>
   <path class="hierarchical-1:primary SFSymbolsPreview212121" d="M30.6641-15.332Q30.6641-14.1602 31.3965-13.4277Q32.1289-12.6953 33.3008-12.6953L81.25-12.6953Q81.8848-12.6953 82.3486-13.1104Q82.8125-13.5254 82.8125-14.1602Q82.8125-14.7949 82.373-15.2588Q81.9336-15.7227 81.25-15.7227L34.2773-15.7227Q33.7402-15.7227 33.7402-16.2109L33.7402-56.8359Q33.7402-57.4707 33.3008-57.9346Q32.8613-58.3984 32.2266-58.3984Q31.5918-58.3984 31.1279-57.9346Q30.6641-57.4707 30.6641-56.8359ZM33.252-27.7832L43.3594-37.6953Q44.1895-38.4277 44.9219-37.6953L55.0781-27.7344Q56.4941-26.3672 58.0566-26.3672Q59.7656-26.3672 61.084-27.7344L72.2168-39.0137L76.709-34.668Q77.2949-34.082 77.9785-34.2773Q78.6621-34.4727 78.8574-35.2539L81.543-48.7305Q81.7871-49.5117 81.25-50.0244Q80.7129-50.5371 79.8828-50.3906L66.5039-47.6562Q65.6738-47.5098 65.4297-46.7773Q65.1855-46.0449 65.8203-45.5566L70.0684-41.1621L58.8379-29.7852Q58.1543-29.0039 57.3242-29.7852L47.1191-39.7949Q45.8008-41.1621 44.1406-41.1621Q42.4316-41.1621 41.1133-39.7949L31.1035-30.0293Z"/>
  </g>
  <g id="Ultralight-M" transform="matrix(1 0 0 1 503.632 1126)">
   <path class="hierarchical-0:secondary SFSymbolsPreview4D4D4D" d="M56.0547 12.0605Q65.8203 12.0605 74.3896 8.37402Q82.959 4.6875 89.4775-1.83105Q95.9961-8.34961 99.707-16.9189Q103.418-25.4883 103.418-35.2539Q103.418-45.0195 99.707-53.5889Q95.9961-62.1582 89.4775-68.6768Q82.959-75.1953 74.3896-78.8818Q65.8203-82.5684 56.0547-82.5684Q46.2891-82.5684 37.7197-78.8818Q29.1504-75.1953 22.6562-68.6768Q16.1621-62.1582 12.4512-53.5889Q8.74023-45.0195 8.74023-35.2539Q8.74023-25.4883 12.4268-16.9189Q16.1133-8.34961 22.6318-1.83105Q29.1504 4.6875 37.7197 8.37402Q46.2891 12.0605 56.0547 12.0605ZM56.0547 9.66797Q46.7773 9.66797 38.6475 6.17676Q30.5176 2.68555 24.3164-3.49121Q18.1152-9.66797 14.624-17.8223Q11.1328-25.9766 11.1328-35.2539Q11.1328-44.5312 14.624-52.6855Q18.1152-60.8398 24.3164-67.041Q30.5176-73.2422 38.6475-76.7334Q46.7773-80.2246 56.0547-80.2246Q65.3809-80.2246 73.5107-76.7334Q81.6406-73.2422 87.8174-67.041Q93.9941-60.8398 97.5098-52.6855Q101.025-44.5312 101.025-35.2539Q101.025-25.9766 97.5098-17.8223Q93.9941-9.66797 87.8174-3.49121Q81.6406 2.68555 73.5107 6.17676Q65.3809 9.66797 56.0547 9.66797Z"/>
   <path class="hierarchical-1:primary SFSymbolsPreview212121" d="M30.2734-14.8926Q30.2734-13.8672 30.9082-13.2324Q31.543-12.5977 32.5195-12.5977L80.957-12.5977Q81.3965-12.5977 81.7627-12.915Q82.1289-13.2324 82.1289-13.7207Q82.1289-14.209 81.7871-14.5752Q81.4453-14.9414 80.957-14.9414L33.3496-14.9414Q32.7148-14.9414 32.7148-15.5762L32.7148-57.0312Q32.7148-57.5684 32.3486-57.9102Q31.9824-58.252 31.4941-58.252Q30.957-58.252 30.6152-57.9102Q30.2734-57.5684 30.2734-57.0312ZM32.3242-27.7832L42.334-37.4512Q43.2617-38.3301 44.0918-37.4512L54.7363-27.1973Q56.0059-25.8789 57.4707-25.8789Q59.082-25.8789 60.3027-27.1973L71.9727-39.0137L76.7578-34.4727Q77.2461-33.9355 77.8076-34.082Q78.3691-34.2285 78.5156-34.8633L80.957-48.0957Q81.2012-48.8281 80.7373-49.2432Q80.2734-49.6582 79.5898-49.5117L66.3574-47.0215Q65.6738-46.9238 65.5029-46.2891Q65.332-45.6543 65.8203-45.3125L70.3125-40.6738L58.3984-28.5156Q57.5684-27.6855 56.5918-28.5156L45.9473-38.916Q44.7754-40.1855 43.2129-40.1855Q41.6504-40.1855 40.3809-38.916L30.6152-29.541Z"/>
  </g>
  <g id="Black-S" transform="matrix(1 0 0 1 2884.57 696)">
   <path class="hierarchical-0:secondary SFSymbolsPreview4D4D4D" d="M48.8281 6.78711Q57.5195 6.78711 65.1123 3.51562Q72.7051 0.244141 78.4912-5.54199Q84.2773-11.3281 87.5488-18.9209Q90.8203-26.5137 90.8203-35.2051Q90.8203-43.8965 87.5488-51.4893Q84.2773-59.082 78.4912-64.8682Q72.7051-70.6543 65.1123-73.9258Q57.5195-77.1973 48.8281-77.1973Q40.1367-77.1973 32.5439-73.9258Q24.9512-70.6543 19.165-64.8682Q13.3789-59.082 10.1074-51.4893Q6.83594-43.8965 6.83594-35.2051Q6.83594-26.5137 10.1074-18.9209Q13.3789-11.3281 19.165-5.54199Q24.9512 0.244141 32.5439 3.51562Q40.1367 6.78711 48.8281 6.78711ZM48.8281-7.37305Q43.0664-7.37305 38.0127-9.5459Q32.959-11.7188 29.1504-15.5273Q25.3418-19.3359 23.1689-24.3896Q20.9961-29.4434 20.9961-35.2051Q20.9961-40.9668 23.1689-46.0205Q25.3418-51.0742 29.1504-54.8828Q32.959-58.6914 38.0127-60.8643Q43.0664-63.0371 48.8281-63.0371Q54.5898-63.0371 59.6436-60.8643Q64.6973-58.6914 68.5059-54.8828Q72.3145-51.0742 74.4873-46.0205Q76.6602-40.9668 76.6602-35.2051Q76.6602-29.4434 74.4873-24.3896Q72.3145-19.3359 68.5059-15.5273Q64.6973-11.7188 59.6436-9.5459Q54.5898-7.37305 48.8281-7.37305Z"/>
   <path class="hierarchical-1:primary SFSymbolsPreview212121" d="M30.7617-23.5352Q30.7617-21.875 31.7871-20.8496Q32.8125-19.8242 34.4727-19.8242L63.4277-19.8242Q64.6484-19.8242 65.4541-20.6055Q66.2598-21.3867 66.2598-22.6074Q66.2598-23.877 65.4541-24.6338Q64.6484-25.3906 63.4277-25.3906L36.6699-25.3906Q36.3281-25.3906 36.3281-25.7324L36.3281-48.6816Q36.3281-49.9512 35.5713-50.7568Q34.8145-51.5625 33.5449-51.5625Q32.3242-51.5625 31.543-50.7568Q30.7617-49.9512 30.7617-48.6816ZM35.791-30.2246L41.8457-36.6699Q42.1875-37.0117 42.5293-36.6699L47.0703-31.6895Q48.3398-30.3711 49.8535-30.3711Q51.3184-30.3711 52.6367-31.6895L58.9844-38.1348L60.791-36.2793Q61.6211-35.4492 62.6953-35.8154Q63.7695-36.1816 64.1113-37.4023L66.5527-46.3379Q66.8457-47.4609 65.9912-48.291Q65.1367-49.1211 64.0137-48.8281L55.0781-46.4355Q53.8574-46.0938 53.4912-45.0439Q53.125-43.9941 54.0039-43.1152L55.6641-41.4551L50.1953-35.7422Q49.8535-35.4004 49.5117-35.791L44.9707-40.7227Q43.7012-42.041 42.1875-42.041Q40.7227-42.041 39.4531-40.7227L32.4219-33.5449Z"/>
  </g>
  <g id="Heavy-S" transform="matrix(1 0 0 1 2588.47 696)">
   <path class="hierarchical-0:secondary SFSymbolsPreview4D4D4D" d="M48.1934 6.15234Q56.7871 6.15234 64.2578 2.92969Q71.7285-0.292969 77.4414-6.00586Q83.1543-11.7188 86.377-19.1895Q89.5996-26.6602 89.5996-35.2051Q89.5996-43.75 86.377-51.2451Q83.1543-58.7402 77.4414-64.4531Q71.7285-70.166 64.2334-73.3887Q56.7383-76.6113 48.1934-76.6113Q39.6484-76.6113 32.1777-73.3887Q24.707-70.166 18.9941-64.4531Q13.2812-58.7402 10.0586-51.2451Q6.83594-43.75 6.83594-35.2051Q6.83594-26.6602 10.0586-19.1895Q13.2812-11.7188 18.9941-6.00586Q24.707-0.292969 32.2021 2.92969Q39.6973 6.15234 48.1934 6.15234ZM48.1934-6.39648Q42.2363-6.39648 37.0117-8.64258Q31.7871-10.8887 27.8564-14.8438Q23.9258-18.7988 21.6797-24.0234Q19.4336-29.248 19.4336-35.2051Q19.4336-41.1621 21.6553-46.4111Q23.877-51.6602 27.832-55.5908Q31.7871-59.5215 37.0117-61.7676Q42.2363-64.0137 48.1934-64.0137Q54.1992-64.0137 59.4238-61.7676Q64.6484-59.5215 68.5791-55.5908Q72.5098-51.6602 74.7803-46.4111Q77.0508-41.1621 77.0508-35.2051Q77.0508-29.248 74.8047-24.0234Q72.5586-18.7988 68.6035-14.8438Q64.6484-10.8887 59.4238-8.64258Q54.1992-6.39648 48.1934-6.39648Z"/>
   <path class="hierarchical-1:primary SFSymbolsPreview212121" d="M29.4922-22.9492Q29.4922-21.3379 30.4932-20.3613Q31.4941-19.3848 33.1055-19.3848L63.7695-19.3848Q64.8926-19.3848 65.6738-20.1416Q66.4551-20.8984 66.4551-22.0703Q66.4551-23.2422 65.6738-23.999Q64.8926-24.7559 63.7695-24.7559L35.1074-24.7559Q34.8633-24.7559 34.8633-25L34.8633-49.3652Q34.8633-50.5371 34.1064-51.3184Q33.3496-52.0996 32.1777-52.0996Q31.0059-52.0996 30.249-51.3184Q29.4922-50.5371 29.4922-49.3652ZM34.2285-30.0293L40.8203-36.9629Q41.1621-37.2559 41.4551-36.9629L46.4355-31.5918Q47.7539-30.2246 49.3164-30.2246Q50.8301-30.2246 52.1484-31.5918L58.6426-38.1348L60.5957-36.1328Q61.4258-35.3027 62.4756-35.6689Q63.5254-36.0352 63.8184-37.2559L66.4062-46.6797Q66.6992-47.8027 65.8691-48.6084Q65.0391-49.4141 63.916-49.1211L54.4922-46.582Q53.2715-46.2891 52.9053-45.2393Q52.5391-44.1895 53.418-43.3594L55.2734-41.5039L49.6094-35.5957Q49.3164-35.3027 49.0234-35.6445L43.9941-40.9668Q42.7246-42.334 41.1621-42.334Q39.6484-42.334 38.3301-40.9668L30.9082-33.3496Z"/>
  </g>
  <g id="Bold-S" transform="matrix(1 0 0 1 2292.42 696)">
   <path class="hierarchical-0:secondary SFSymbolsPreview4D4D4D" d="M47.5586 5.46875Q55.957 5.46875 63.3057 2.29492Q70.6543-0.878906 76.2695-6.51855Q81.8848-12.1582 85.083-19.5068Q88.2812-26.8555 88.2812-35.2539Q88.2812-43.6035 85.083-50.9766Q81.8848-58.3496 76.2695-63.9648Q70.6543-69.5801 63.2812-72.7539Q55.9082-75.9277 47.5098-75.9277Q39.1602-75.9277 31.7871-72.7539Q24.4141-69.5801 18.8232-63.9648Q13.2324-58.3496 10.0342-50.9766Q6.83594-43.6035 6.83594-35.2539Q6.83594-26.8555 10.0342-19.5068Q13.2324-12.1582 18.8477-6.51855Q24.4629-0.878906 31.8115 2.29492Q39.1602 5.46875 47.5586 5.46875ZM47.5586-5.32227Q41.3574-5.32227 35.9375-7.6416Q30.5176-9.96094 26.416-14.0625Q22.3145-18.1641 19.9951-23.6084Q17.6758-29.0527 17.6758-35.2539Q17.6758-41.4551 19.9951-46.875Q22.3145-52.2949 26.3916-56.3965Q30.4688-60.498 35.8887-62.8174Q41.3086-65.1367 47.5098-65.1367Q53.7598-65.1367 59.1797-62.8174Q64.5996-60.498 68.7012-56.3965Q72.8027-52.2949 75.1221-46.875Q77.4414-41.4551 77.4414-35.2539Q77.4414-29.0527 75.1221-23.6084Q72.8027-18.1641 68.7256-14.0625Q64.6484-9.96094 59.2041-7.6416Q53.7598-5.32227 47.5586-5.32227Z"/>
   <path class="hierarchical-1:primary SFSymbolsPreview212121" d="M28.0273-22.3633Q28.0273-20.8008 28.9795-19.8486Q29.9316-18.8965 31.4941-18.8965L64.0625-18.8965Q65.1855-18.8965 65.9424-19.6289Q66.6992-20.3613 66.6992-21.4355Q66.6992-22.5586 65.9424-23.291Q65.1855-24.0234 64.0625-24.0234L33.3496-24.0234Q33.2031-24.0234 33.2031-24.1699L33.2031-50.0977Q33.2031-51.2207 32.4707-51.9775Q31.7383-52.7344 30.6152-52.7344Q29.541-52.7344 28.7842-51.9775Q28.0273-51.2207 28.0273-50.0977ZM32.4707-29.834L39.6973-37.2559Q39.9414-37.5977 40.2344-37.2559L45.7031-31.4941Q47.0703-30.127 48.6328-30.127Q50.2441-30.127 51.6113-31.4941L58.2031-38.1836L60.3516-35.9375Q61.1328-35.1562 62.1582-35.5225Q63.1836-35.8887 63.4766-37.0605L66.2109-47.1191Q66.5039-48.1934 65.6982-48.9502Q64.8926-49.707 63.8184-49.4141L53.8086-46.7773Q52.6367-46.4844 52.2705-45.459Q51.9043-44.4336 52.7344-43.6523L54.834-41.5527L48.9258-35.4492Q48.6816-35.1562 48.3887-35.4492L42.8711-41.3086Q41.5527-42.6758 39.9414-42.6758Q38.3789-42.6758 37.0117-41.3086L29.1504-33.1543Z"/>
  </g>
  <g id="Semibold-S" transform="matrix(1 0 0 1 1996.2 696)">
   <path class="hierarchical-0:secondary SFSymbolsPreview4D4D4D" d="M47.0703 4.98047Q55.3711 4.98047 62.6465 1.85547Q69.9219-1.26953 75.4639-6.86035Q81.0059-12.4512 84.1553-19.7266Q87.3047-27.002 87.3047-35.2539Q87.3047-43.5059 84.1553-50.7812Q81.0059-58.0566 75.4395-63.623Q69.873-69.1895 62.5977-72.3389Q55.3223-75.4883 47.0215-75.4883Q38.7695-75.4883 31.4941-72.3389Q24.2188-69.1895 18.6768-63.623Q13.1348-58.0566 9.98535-50.7812Q6.83594-43.5059 6.83594-35.2539Q6.83594-27.002 9.98535-19.7266Q13.1348-12.4512 18.7012-6.86035Q24.2676-1.26953 31.543 1.85547Q38.8184 4.98047 47.0703 4.98047ZM47.0703-4.58984Q40.7227-4.58984 35.1562-6.95801Q29.5898-9.32617 25.3906-13.5254Q21.1914-17.7246 18.8232-23.291Q16.4551-28.8574 16.4551-35.2539Q16.4551-41.6016 18.8232-47.168Q21.1914-52.7344 25.3662-56.9336Q29.541-61.1328 35.1074-63.5254Q40.6738-65.918 47.0215-65.918Q53.418-65.918 58.9844-63.5254Q64.5508-61.1328 68.75-56.9336Q72.9492-52.7344 75.3418-47.168Q77.7344-41.6016 77.7344-35.2539Q77.7344-28.8574 75.3662-23.291Q72.998-17.7246 68.7988-13.5254Q64.5996-9.32617 59.0332-6.95801Q53.4668-4.58984 47.0703-4.58984Z"/>
   <path class="hierarchical-1:primary SFSymbolsPreview212121" d="M27.0508-21.9238Q27.0508-20.3613 27.9785-19.4336Q28.9062-18.5059 30.4199-18.5059L64.3066-18.5059Q65.3809-18.5059 66.1133-19.2383Q66.8457-19.9707 66.8457-20.9961Q66.8457-22.0703 66.1133-22.7783Q65.3809-23.4863 64.3066-23.4863L32.1289-23.4863Q32.0312-23.4863 32.0312-23.584L32.0312-50.6348Q32.0312-51.6602 31.3232-52.3926Q30.6152-53.125 29.541-53.125Q28.5156-53.125 27.7832-52.3926Q27.0508-51.6602 27.0508-50.6348ZM31.25-29.6387L38.916-37.4512Q39.1602-37.793 39.4043-37.4512L45.2148-31.3965Q46.6309-29.9805 48.1934-29.9805Q49.8535-29.9805 51.2207-31.3965L57.9102-38.1836L60.1562-35.791Q60.9863-35.0586 61.9629-35.4004Q62.9395-35.7422 63.2812-36.9141L66.0645-47.3633Q66.3574-48.4375 65.6006-49.1699Q64.8438-49.9023 63.7207-49.6094L53.3203-46.9238Q52.1973-46.582 51.8311-45.5811Q51.4648-44.5801 52.2461-43.7988L54.541-41.5527L48.4863-35.3516Q48.2422-35.0586 47.998-35.3027L42.1387-41.5039Q40.7715-42.8711 39.1602-42.8711Q37.5-42.8711 36.1328-41.5039L27.9297-33.0078Z"/>
  </g>
  <g id="Medium-S" transform="matrix(1 0 0 1 1699.83 696)">
   <path class="hierarchical-0:secondary SFSymbolsPreview4D4D4D" d="M46.7285 4.63867Q54.9316 4.63867 62.1338 1.51367Q69.3359-1.61133 74.8535-7.12891Q80.3711-12.6465 83.4961-19.8486Q86.6211-27.0508 86.6211-35.2539Q86.6211-43.4082 83.4961-50.6348Q80.3711-57.8613 74.8291-63.3789Q69.2871-68.8965 62.085-71.9971Q54.8828-75.0977 46.6797-75.0977Q38.4766-75.0977 31.2744-71.9971Q24.0723-68.8965 18.5791-63.3789Q13.0859-57.8613 9.96094-50.6348Q6.83594-43.4082 6.83594-35.2539Q6.83594-27.0508 9.96094-19.8486Q13.0859-12.6465 18.6035-7.12891Q24.1211-1.61133 31.3232 1.51367Q38.5254 4.63867 46.7285 4.63867ZM46.7285-4.00391Q40.2344-4.00391 34.5703-6.4209Q28.9062-8.83789 24.6338-13.1348Q20.3613-17.4316 17.9443-23.0957Q15.5273-28.7598 15.5273-35.2539Q15.5273-41.748 17.9199-47.4121Q20.3125-53.0762 24.585-57.373Q28.8574-61.6699 34.5215-64.0869Q40.1855-66.5039 46.6797-66.5039Q53.1738-66.5039 58.8379-64.0869Q64.502-61.6699 68.7988-57.373Q73.0957-53.0762 75.5127-47.4121Q77.9297-41.748 77.9297-35.2539Q77.9297-28.7598 75.5127-23.0957Q73.0957-17.4316 68.8477-13.1348Q64.5996-8.83789 58.9111-6.4209Q53.2227-4.00391 46.7285-4.00391Z"/>
   <path class="hierarchical-1:primary SFSymbolsPreview212121" d="M26.2695-21.582Q26.2695-20.0684 27.1729-19.165Q28.0762-18.2617 29.5898-18.2617L64.4531-18.2617Q65.4785-18.2617 66.2109-18.9697Q66.9434-19.6777 66.9434-20.7031Q66.9434-21.7285 66.2109-22.4121Q65.4785-23.0957 64.4531-23.0957L31.1523-23.0957Q31.1523-23.0957 31.1523-23.1934L31.1523-51.0254Q31.1523-52.0508 30.4443-52.7588Q29.7363-53.4668 28.7109-53.4668Q27.7344-53.4668 27.002-52.7588Q26.2695-52.0508 26.2695-51.0254ZM30.2734-29.541L38.2812-37.6465Q38.4766-37.9395 38.7695-37.6465L44.7754-31.3477Q46.2402-29.9316 47.8516-29.9316Q49.5605-29.9316 50.9277-31.3477L57.666-38.2324L60.0098-35.7422Q60.791-34.9609 61.7676-35.3027Q62.7441-35.6445 63.0859-36.8652L65.9668-47.5586Q66.2598-48.6328 65.5029-49.3652Q64.7461-50.0977 63.623-49.8047L52.9297-46.9727Q51.8066-46.6797 51.4404-45.7031Q51.0742-44.7266 51.8555-43.9453L54.2969-41.5527L48.0957-35.2539Q47.9004-35.0098 47.6562-35.2539L41.5039-41.6504Q40.1855-43.0664 38.4766-43.0664Q36.8164-43.0664 35.4492-41.6504L27.002-32.9102Z"/>
  </g>
  <g id="Regular-S" transform="matrix(1 0 0 1 1403.58 696)">
   <path class="hierarchical-0:secondary SFSymbolsPreview4D4D4D" d="M46.2402 4.15039Q54.3457 4.15039 61.4746 1.07422Q68.6035-2.00195 74.0479-7.4707Q79.4922-12.9395 82.5928-20.0684Q85.6934-27.1973 85.6934-35.2539Q85.6934-43.3105 82.5928-50.4395Q79.4922-57.5684 74.0234-63.0371Q68.5547-68.5059 61.4258-71.582Q54.2969-74.6582 46.1914-74.6582Q38.1348-74.6582 31.0059-71.582Q23.877-68.5059 18.457-63.0371Q13.0371-57.5684 9.93652-50.4395Q6.83594-43.3105 6.83594-35.2539Q6.83594-27.1973 9.93652-20.0684Q13.0371-12.9395 18.4814-7.4707Q23.9258-2.00195 31.0547 1.07422Q38.1836 4.15039 46.2402 4.15039ZM46.2402-3.27148Q39.5996-3.27148 33.8135-5.7373Q28.0273-8.20312 23.6572-12.5977Q19.2871-16.9922 16.8213-22.8027Q14.3555-28.6133 14.3555-35.2539Q14.3555-41.8945 16.7969-47.7051Q19.2383-53.5156 23.6084-57.9102Q27.9785-62.3047 33.7646-64.7705Q39.5508-67.2363 46.1914-67.2363Q52.8809-67.2363 58.667-64.7705Q64.4531-62.3047 68.8477-57.9102Q73.2422-53.5156 75.7324-47.7051Q78.2227-41.8945 78.2227-35.2539Q78.2227-28.6133 75.7568-22.8027Q73.291-16.9922 68.9209-12.5977Q64.5508-8.20312 58.7402-5.7373Q52.9297-3.27148 46.2402-3.27148Z"/>
   <path class="hierarchical-1:primary SFSymbolsPreview212121" d="M25.293-21.1426Q25.293-19.6777 26.1719-18.7988Q27.0508-17.9199 28.5156-17.9199L64.6973-17.9199Q65.6738-17.9199 66.3818-18.6035Q67.0898-19.2871 67.0898-20.2637Q67.0898-21.2402 66.3818-21.9238Q65.6738-22.6074 64.6973-22.6074L29.9805-22.6074Q30.0293-22.6074 30.0293-22.6074L30.0293-51.5137Q30.0293-52.4902 29.3213-53.1738Q28.6133-53.8574 27.6367-53.8574Q26.709-53.8574 26.001-53.1738Q25.293-52.4902 25.293-51.5137ZM29.1016-29.3945L37.5-37.8418Q37.6953-38.1348 37.9395-37.8418L44.2871-31.25Q45.8008-29.834 47.4121-29.834Q49.1699-29.834 50.5371-31.25L57.373-38.2324L59.8633-35.5957Q60.6445-34.8633 61.5967-35.2051Q62.5488-35.5469 62.8418-36.7188L65.8203-47.8516Q66.1133-48.877 65.3809-49.585Q64.6484-50.293 63.5742-50L52.4902-47.1191Q51.3672-46.8262 51.001-45.8496Q50.6348-44.873 51.416-44.1406L54.0039-41.6016L47.6562-35.1562Q47.4609-34.9121 47.2656-35.1074L40.7715-41.8457Q39.4043-43.2617 37.6953-43.2617Q35.9863-43.2617 34.5703-41.8457L25.8301-32.7637Z"/>
  </g>
  <g id="Light-S" transform="matrix(1 0 0 1 1107.6 696)">
   <path class="hierarchical-0:secondary SFSymbolsPreview4D4D4D" d="M45.5078 3.41797Q53.4668 3.41797 60.4736 0.415039Q67.4805-2.58789 72.8271-7.95898Q78.1738-13.3301 81.2012-20.3125Q84.2285-27.2949 84.2285-35.2539Q84.2285-43.2129 81.2012-50.1953Q78.1738-57.1777 72.8027-62.5488Q67.4316-67.9199 60.4492-70.9229Q53.4668-73.9258 45.459-73.9258Q37.5488-73.9258 30.542-70.9229Q23.5352-67.9199 18.2129-62.5488Q12.8906-57.1777 9.86328-50.1953Q6.83594-43.2129 6.83594-35.2539Q6.83594-27.2949 9.86328-20.3125Q12.8906-13.3301 18.2373-7.95898Q23.584-2.58789 30.5908 0.415039Q37.5977 3.41797 45.5078 3.41797ZM45.5078-2.29492Q38.6719-2.29492 32.6904-4.83398Q26.709-7.37305 22.1924-11.9141Q17.6758-16.4551 15.1367-22.4365Q12.5977-28.418 12.5977-35.2539Q12.5977-42.0898 15.1367-48.0713Q17.6758-54.0527 22.1924-58.5938Q26.709-63.1348 32.666-65.6738Q38.623-68.2129 45.459-68.2129Q52.3438-68.2129 58.3252-65.6738Q64.3066-63.1348 68.8232-58.5938Q73.3398-54.0527 75.9277-48.0713Q78.5156-42.0898 78.5156-35.2539Q78.5156-28.418 75.9521-22.4365Q73.3887-16.4551 68.8721-11.9141Q64.3555-7.37305 58.374-4.83398Q52.3926-2.29492 45.5078-2.29492Z"/>
   <path class="hierarchical-1:primary SFSymbolsPreview212121" d="M24.8047-20.5566Q24.8047-19.2871 25.5615-18.5303Q26.3184-17.7734 27.5879-17.7734L64.3066-17.7734Q65.0879-17.7734 65.6494-18.335Q66.2109-18.8965 66.2109-19.6777Q66.2109-20.459 65.6494-21.0205Q65.0879-21.582 64.3066-21.582L28.7598-21.582Q28.6621-21.582 28.6621-21.7285L28.6621-51.7578Q28.6621-52.5391 28.0762-53.1006Q27.4902-53.6621 26.709-53.6621Q25.9277-53.6621 25.3662-53.1006Q24.8047-52.5391 24.8047-51.7578ZM27.9297-29.3945L36.1328-37.5977Q36.5234-37.9883 36.8652-37.5977L43.8477-30.5176Q45.2148-29.248 46.6797-29.248Q48.291-29.248 49.5117-30.5176L57.0801-38.2324L59.9609-35.3027Q60.5957-34.668 61.4014-34.9365Q62.207-35.2051 62.4512-36.1816L65.0879-47.0703Q65.332-47.9492 64.7217-48.5352Q64.1113-49.1211 63.1836-48.877L52.3438-46.2891Q51.416-46.0938 51.123-45.2637Q50.8301-44.4336 51.4648-43.7988L54.3457-40.9668L47.0703-33.5449Q46.7285-33.1543 46.3379-33.4961L39.3066-40.6738Q38.0371-41.9434 36.4746-41.9434Q34.9609-41.9434 33.6426-40.6738L25.2441-32.1289Z"/>
  </g>
  <g id="Thin-S" transform="matrix(1 0 0 1 811.867 696)">
   <path class="hierarchical-0:secondary SFSymbolsPreview4D4D4D" d="M44.5312 2.44141Q52.3438 2.44141 59.1553-0.488281Q65.9668-3.41797 71.1914-8.64258Q76.416-13.8672 79.3457-20.6787Q82.2754-27.4902 82.2754-35.2539Q82.2754-43.0176 79.3457-49.8291Q76.416-56.6406 71.1914-61.8652Q65.9668-67.0898 59.1553-70.0195Q52.3438-72.9492 44.5312-72.9492Q36.7676-72.9492 29.9316-70.0195Q23.0957-67.0898 17.9199-61.8652Q12.7441-56.6406 9.79004-49.8291Q6.83594-43.0176 6.83594-35.2539Q6.83594-27.4902 9.79004-20.6787Q12.7441-13.8672 17.9199-8.64258Q23.0957-3.41797 29.9316-0.488281Q36.7676 2.44141 44.5312 2.44141ZM44.5312-0.927734Q37.4512-0.927734 31.2256-3.58887Q25-6.25 20.2881-10.9619Q15.5762-15.6738 12.915-21.9238Q10.2539-28.1738 10.2539-35.2539Q10.2539-42.334 12.915-48.584Q15.5762-54.834 20.2881-59.5459Q25-64.2578 31.2256-66.9189Q37.4512-69.5801 44.5312-69.5801Q51.6602-69.5801 57.8857-66.9189Q64.1113-64.2578 68.8232-59.5459Q73.5352-54.834 76.1963-48.584Q78.8574-42.334 78.8574-35.2539Q78.8574-28.1738 76.1963-21.9238Q73.5352-15.6738 68.8232-10.9619Q64.1113-6.25 57.8857-3.58887Q51.6602-0.927734 44.5312-0.927734Z"/>
   <path class="hierarchical-1:primary SFSymbolsPreview212121" d="M24.1211-19.8242Q24.1211-18.7988 24.707-18.2129Q25.293-17.627 26.2695-17.627L63.7207-17.627Q64.2578-17.627 64.6484-17.9932Q65.0391-18.3594 65.0391-18.8965Q65.0391-19.4336 64.6729-19.8486Q64.3066-20.2637 63.7207-20.2637L27.1484-20.2637Q26.8066-20.2637 26.8066-20.6055L26.8066-52.0996Q26.8066-52.6367 26.3916-53.0273Q25.9766-53.418 25.4395-53.418Q24.9023-53.418 24.5117-53.0273Q24.1211-52.6367 24.1211-52.0996ZM26.3184-29.3945L34.3262-37.2559Q34.9121-37.793 35.4492-37.2559L43.2129-29.541Q44.3848-28.418 45.6543-28.418Q47.0703-28.418 48.0957-29.541L56.6406-38.1836L60.0098-34.9121Q60.5469-34.375 61.1084-34.5459Q61.6699-34.7168 61.8652-35.4004L64.0625-46.0449Q64.2578-46.6797 63.7939-47.1436Q63.3301-47.6074 62.6465-47.4121L52.0996-45.2148Q51.416-45.0684 51.2207-44.4336Q51.0254-43.7988 51.5137-43.4082L54.7363-40.0879L46.2402-31.4453Q45.7031-30.8105 45.1172-31.3965L37.3047-39.1602Q36.2305-40.2344 34.8633-40.2344Q33.4961-40.2344 32.4219-39.1602L24.4629-31.2988Z"/>
  </g>
  <g id="Ultralight-S" transform="matrix(1 0 0 1 515.644 696)">
   <path class="hierarchical-0:secondary SFSymbolsPreview4D4D4D" d="M44.043 1.95312Q51.7578 1.95312 58.4717-0.927734Q65.1855-3.80859 70.3369-8.95996Q75.4883-14.1113 78.3936-20.8252Q81.2988-27.5391 81.2988-35.2539Q81.2988-42.9688 78.3936-49.6826Q75.4883-56.3965 70.3369-61.5479Q65.1855-66.6992 58.4717-69.5801Q51.7578-72.4609 44.043-72.4609Q36.377-72.4609 29.6387-69.5801Q22.9004-66.6992 17.7734-61.5479Q12.6465-56.3965 9.74121-49.6826Q6.83594-42.9688 6.83594-35.2539Q6.83594-27.5391 9.74121-20.8252Q12.6465-14.1113 17.7734-8.95996Q22.9004-3.80859 29.6387-0.927734Q36.377 1.95312 44.043 1.95312ZM44.043-0.292969Q36.8164-0.292969 30.4688-3.00293Q24.1211-5.71289 19.3115-10.5225Q14.502-15.332 11.7676-21.6797Q9.0332-28.0273 9.0332-35.2539Q9.0332-42.4805 11.7676-48.8281Q14.502-55.1758 19.3115-59.9854Q24.1211-64.7949 30.4688-67.5049Q36.8164-70.2148 44.043-70.2148Q51.2695-70.2148 57.6416-67.5049Q64.0137-64.7949 68.7988-59.9854Q73.584-55.1758 76.3184-48.8281Q79.0527-42.4805 79.0527-35.2539Q79.0527-28.0273 76.3428-21.6797Q73.6328-15.332 68.8232-10.5225Q64.0137-5.71289 57.666-3.00293Q51.3184-0.292969 44.043-0.292969Z"/>
   <path class="hierarchical-1:primary SFSymbolsPreview212121" d="M23.7793-19.4336Q23.7793-18.5547 24.292-18.042Q24.8047-17.5293 25.6348-17.5293L63.4766-17.5293Q63.8184-17.5293 64.1357-17.7979Q64.4531-18.0664 64.4531-18.5059Q64.4531-18.9453 64.1602-19.2627Q63.8672-19.5801 63.4766-19.5801L26.3184-19.5801Q25.8789-19.5801 25.8789-20.0195L25.8789-52.2461Q25.8789-52.6855 25.5615-53.0029Q25.2441-53.3203 24.8047-53.3203Q24.3652-53.3203 24.0723-53.0029Q23.7793-52.6855 23.7793-52.2461ZM25.4883-29.3945L33.3984-37.0605Q34.082-37.6953 34.7168-37.0605L42.9199-29.0527Q43.9453-28.0273 45.166-28.0273Q46.4355-28.0273 47.4121-29.0527L56.3965-38.1836L60.0586-34.668Q60.498-34.2285 60.9619-34.375Q61.4258-34.5215 61.5723-35.0586L63.5742-45.5078Q63.7207-46.0449 63.3301-46.4111Q62.9395-46.7773 62.4023-46.6309L51.9531-44.6777Q51.4648-44.5801 51.2939-44.043Q51.123-43.5059 51.5137-43.1641L54.9316-39.6484L45.8008-30.3223Q45.2148-29.6387 44.4824-30.3223L36.3281-38.3301Q35.3027-39.3555 34.0332-39.3555Q32.8125-39.3555 31.7871-38.3301L24.0723-30.9082Z"/>
  </g>
 </g>
</svg>
